<svg width="55" height="55" viewBox="0 0 55 55" fill="none" xmlns="http://www.w3.org/2000/svg">
<path d="M12.9009 53.4497H31.8009C33.3668 53.4519 34.9176 53.1438 36.3637 52.543C37.8098 51.9423 39.1225 51.0609 40.2259 49.9497L52.0009 38.1747C52.4779 37.7007 52.8543 37.1354 53.1078 36.5125C53.3612 35.8897 53.4864 35.2221 53.4759 34.5497C53.4924 33.543 53.2046 32.5547 52.65 31.7142C52.0955 30.8738 51.3002 30.2203 50.3682 29.8394C49.4361 29.4585 48.4107 29.3678 47.4263 29.5793C46.4419 29.7908 45.5442 30.2946 44.8509 31.0247L31.9759 43.8997H29.7009C30.3939 43.9023 31.079 43.7533 31.7083 43.463C32.3376 43.1728 32.8957 42.7483 33.3436 42.2195C33.7914 41.6906 34.1182 41.0702 34.3008 40.4017C34.4834 39.7332 34.5176 39.0328 34.4009 38.3497C34.162 37.208 33.5315 36.1857 32.6184 35.4597C31.7053 34.7338 30.5671 34.35 29.4009 34.3747H20.0509L17.7259 33.2247C15.7314 32.2307 13.4937 31.8295 11.2781 32.0688C9.06257 32.3081 6.96211 33.1778 5.22589 34.5747C3.88655 35.6685 2.81112 37.0503 2.07963 38.6171C1.34813 40.184 0.979407 41.8957 1.00089 43.6247V43.8997" stroke="#FF650C" stroke-width="2" stroke-miterlimit="10"/>
<path d="M29.5758 43.9004H17.6758" stroke="#FF650C" stroke-width="2" stroke-miterlimit="10"/>
<path d="M10.5254 1H15.2754C18.4381 1 21.4713 2.25638 23.7076 4.49275C25.944 6.72912 27.2004 9.76229 27.2004 12.925H22.4254C19.267 12.9184 16.2403 11.6591 14.0093 9.42342C11.7783 7.18777 10.5254 4.15838 10.5254 1Z" stroke="#FF650C" stroke-width="2" stroke-miterlimit="10"/>
<path d="M31.9754 15.2998H27.2004C27.2004 13.7338 27.5088 12.1831 28.1081 10.7363C28.7074 9.2895 29.5858 7.9749 30.6931 6.86756C31.8005 5.76022 33.1151 4.88183 34.5619 4.28254C36.0087 3.68325 37.5594 3.37481 39.1254 3.37481H43.9004C43.9004 6.53751 42.644 9.57068 40.4076 11.8071C38.1713 14.0434 35.1381 15.2998 31.9754 15.2998Z" stroke="#FF650C" stroke-width="2" stroke-miterlimit="10"/>
<path d="M27.2012 34.3748V12.9248" stroke="#FF650C" stroke-width="2" stroke-miterlimit="10"/>
</svg>
