<svg width="48" height="48" viewBox="0 0 48 48" fill="none" xmlns="http://www.w3.org/2000/svg">
<path d="M24 0C23.9928 0 23.9874 0 23.9802 0C23.9766 0 23.9748 0 23.9712 0C23.9622 0 23.9532 0.00180102 23.9424 0.00180102C10.7125 0.0324133 0 10.7647 0 24C0 37.2317 10.7125 47.9658 23.9424 47.9982C23.9514 47.9982 23.9604 48 23.9712 48C23.9748 48 23.9784 48 23.9802 48C23.9874 48 23.9946 48 24 48C37.2533 48 48 37.2533 48 24C48 10.7467 37.2533 0 24 0ZM24.9598 14.3625C27.5042 14.2923 29.9802 13.9574 32.3643 13.3758C33.0828 16.2047 33.5294 19.4658 33.5996 23.0402H24.9598V14.3625ZM24.9598 12.443V2.07263C27.5474 2.78932 30.1693 6.2395 31.8403 11.53C29.6237 12.0648 27.3223 12.3764 24.9598 12.443ZM23.0402 2.04922V12.443C20.6579 12.3764 18.3385 12.0594 16.1038 11.5156C17.7893 6.19268 20.4346 2.72989 23.0402 2.05102V2.04922ZM23.0402 14.3607V23.0402H14.3409C14.4112 19.4604 14.8577 16.1957 15.578 13.3649C17.9802 13.952 20.476 14.2923 23.0402 14.3607ZM12.4088 23.0402H1.94478C2.15726 18.1044 3.9958 13.5828 6.93818 10.0012C9.07563 11.1789 11.3427 12.1423 13.7197 12.8625C12.9436 15.9238 12.479 19.3758 12.4088 23.0402ZM12.4088 24.9598C12.479 28.6225 12.9436 32.0744 13.7197 35.1357C11.3445 35.8577 9.07563 36.8211 6.93818 37.9988C3.994 34.4172 2.15546 29.8956 1.94478 24.9598H12.4088ZM14.3409 24.9598H23.0402V33.6285C20.476 33.6969 17.9802 34.039 15.5762 34.6279C14.8577 31.7989 14.4112 28.536 14.3409 24.9598ZM23.0402 35.5462V45.9508C20.4328 45.2701 17.7839 41.8037 16.1002 36.4736C18.3349 35.9298 20.6561 35.6129 23.0402 35.5462ZM24.9598 45.9292V35.548C27.3241 35.6165 29.6255 35.928 31.8421 36.4628C30.1711 41.7587 27.5492 45.2143 24.9598 45.9292ZM24.9598 33.6285V24.9598H33.5996C33.5294 28.5306 33.0846 31.7863 32.3679 34.6134C29.982 34.0318 27.506 33.6951 24.9616 33.6267L24.9598 33.6285ZM35.5318 24.9598H46.057C45.8445 29.8956 44.0078 34.4154 41.0636 37.997C38.9082 36.8121 36.6213 35.8415 34.2263 35.1176C35.0006 32.06 35.4634 28.6152 35.5336 24.9616L35.5318 24.9598ZM35.5318 23.0402C35.4616 19.3794 34.997 15.9346 34.2227 12.8734C36.6177 12.1495 38.9028 11.1807 41.0564 9.9958C44.0024 13.5774 45.8427 18.1008 46.0552 23.0402H35.5318ZM39.7347 8.53001C37.8241 9.54562 35.8091 10.3866 33.7023 11.024C32.5804 7.41357 31.0048 4.46579 29.1411 2.53001C33.2287 3.51141 36.8788 5.62545 39.7347 8.53001ZM18.7833 2.54802C16.9304 4.48019 15.3619 7.41357 14.2437 11.006C12.1585 10.3703 10.1597 9.53842 8.26711 8.53001C11.1032 5.64526 14.7263 3.53481 18.7833 2.54802ZM8.2599 39.4628C10.1543 38.4526 12.1549 37.6188 14.2419 36.9832C15.3601 40.5792 16.9286 43.518 18.7833 45.4502C14.7227 44.4616 11.0978 42.3529 8.2599 39.4628ZM29.1411 45.4682C31.0066 43.5324 32.5822 40.5846 33.7059 36.967C35.8127 37.6062 37.8295 38.4436 39.7401 39.4646C36.8842 42.371 33.2323 44.4904 29.1411 45.4682Z" fill="#FF650C"/>
</svg>
