<svg width="70" height="64" viewBox="0 0 70 64" fill="none" xmlns="http://www.w3.org/2000/svg">
<path d="M62.9304 28.8203H60.9323V30.8182H62.9304V28.8203Z" fill="#FF5C00"/>
<path d="M8.92292 28.8203H6.92505V30.8182H8.92292V28.8203Z" fill="#FF5C00"/>
<path d="M70 44.2067C70 41.9222 69.3154 39.6937 67.9679 37.5774C68.0337 37.1503 68.0675 36.7158 68.0675 36.2743C68.0675 23.9192 61.5927 12.4825 51.1697 6.4271C47.1737 4.1056 42.8467 2.69666 38.2947 2.23296C37.7894 1.04129 36.6079 0.203125 35.2342 0.203125H34.6208C32.7891 0.203125 31.2987 1.69345 31.2987 3.52522V27.0588H30.4434V31.9764H27.7464C26.0558 31.9764 24.6804 33.3518 24.6804 35.0424V37.7393H19.7628V38.8482C17.0618 38.2861 14.6493 37.5782 12.5735 36.75C21.9327 33.1686 28.2578 24.1442 28.2578 13.9196C28.2578 10.9515 27.7347 8.06606 26.7034 5.32503C27.5445 5.08384 28.4009 4.87687 29.272 4.70798L28.8731 2.65055C15.1167 5.31787 4.68597 16.6159 2.40132 30.5229L2.3084 30.616L2.36447 30.7512C2.08048 32.5536 1.93168 34.3987 1.93168 36.2745C1.93168 36.7163 1.96783 37.1503 2.0321 37.5774C0.684644 39.6938 0 41.9226 0 44.2067C0 49.5518 3.72572 54.5263 10.4908 58.2143C17.0548 61.7927 25.7594 63.7635 35.001 63.7635C44.2417 63.7635 52.9457 61.7927 59.5096 58.2143C66.2745 54.5263 70 49.5518 70 44.2067ZM45.175 46.7079H50.0922V45.864C57.143 44.4739 62.3061 42.2017 65.2482 39.2579C62.705 44.2741 53.8461 47.1736 45.1748 48.3177V46.7079H45.175ZM42.1088 31.9766H39.4118V27.059H38.5567V4.37317C40.1637 4.56232 41.7399 4.87792 43.28 5.31927C42.2464 8.06309 41.7223 10.9505 41.7223 13.9198C41.7223 24.1552 48.0582 33.1848 57.4315 36.7588C57.3007 36.8108 57.1685 36.8625 57.0349 36.9135L57.7826 38.8714C61.444 37.4729 64.1512 35.7533 65.871 33.7388C65.8782 33.8316 65.8874 33.924 65.8939 34.0169L65.8899 34.016C65.1078 38.3188 59.3737 41.8272 50.0926 43.7259V41.0167C51.9909 40.6415 53.782 40.1939 55.427 39.6832L54.8054 37.6815C53.3485 38.134 51.7668 38.5343 50.0926 38.8775V37.7395H45.1754V35.0426C45.175 33.352 43.7996 31.9766 42.1088 31.9766ZM45.175 39.8353H47.9964V44.6121H45.175V39.8353ZM65.4642 30.514C64.6585 32.3524 62.8697 34.0349 60.2185 35.4686C50.542 32.806 43.8181 24.0026 43.8181 13.9198C43.8181 11.1726 44.3091 8.50287 45.2758 5.96898C46.9387 6.57591 48.5551 7.33198 50.1172 8.23949C58.2528 12.966 63.8209 21.1962 65.4642 30.514ZM33.3946 3.5254C33.3946 2.84914 33.9447 2.29915 34.6208 2.29915H35.2342C35.9105 2.29915 36.4605 2.84931 36.4605 3.5254V27.059H33.3944L33.3946 3.5254ZM32.5393 29.1549H37.3159V31.9766H32.5393V29.1549ZM26.7764 35.0426C26.7764 34.5077 27.2116 34.0724 27.7466 34.0724H30.4436H39.4119H42.1089C42.6439 34.0724 43.0793 34.5077 43.0793 35.0426V37.7395V46.7079V49.4048C43.0793 49.9397 42.6441 50.375 42.1089 50.375H27.7466C27.2116 50.375 26.7764 49.9399 26.7764 49.4048V46.7079V37.7395V35.0426ZM21.8588 39.8353H24.6806V44.6121H21.8588V39.8353ZM19.763 43.688C10.7203 41.8105 5.062 38.378 4.16882 34.1744C4.15066 34.0941 4.13529 34.0123 4.12236 33.9308L4.11084 33.9327C4.1159 33.8593 4.12166 33.7862 4.12725 33.7128C6.92259 36.9694 12.3224 39.4989 19.763 40.9885V43.688ZM24.7073 5.97335C25.6722 8.50496 26.1623 11.1732 26.1623 13.9198C26.1623 23.9896 19.4533 32.7868 9.79496 35.4609C7.42368 34.1784 5.72115 32.6949 4.81487 31.0731L4.84473 31.0432L4.53367 30.4819C6.52403 19.1873 14.2341 9.78535 24.7073 5.97335ZM58.5064 56.3742C52.245 59.7878 43.8972 61.6678 35.001 61.6678C26.104 61.6678 17.7555 59.7878 11.4938 56.3742C5.43332 53.0704 2.09567 48.7493 2.09567 44.2067C2.09567 42.8904 2.37827 41.5876 2.93541 40.3149C3.66547 41.7046 4.78954 42.9944 6.30921 44.1713C6.40335 44.2444 6.49923 44.3176 6.59686 44.391L6.65852 44.4357C6.69781 44.464 6.73659 44.4919 6.78741 44.5295L6.97936 44.6662C7.10196 44.7518 7.22632 44.8362 7.36482 44.9296C8.26097 45.5254 9.27431 46.0904 10.3767 46.6096L11.2694 44.7134C10.2595 44.2378 9.33614 43.7235 8.52435 43.1838C8.4089 43.1057 8.29328 43.0275 8.19285 42.9576L8.02606 42.8388C7.9789 42.8039 7.93175 42.7698 7.88389 42.7353L7.84651 42.7082C7.76146 42.6444 7.6778 42.5807 7.59396 42.5154C6.27201 41.4917 5.3149 40.3846 4.72667 39.2045C7.63972 42.1498 12.7693 44.4289 19.7626 45.8273V46.7078H24.6802V48.2964C20.8855 47.7793 17.0312 46.8931 13.9461 45.8181L13.2566 47.7973C16.5942 48.9603 20.7849 49.9108 24.8624 50.4356C25.2871 51.6199 26.4177 52.4707 27.7463 52.4707H42.1086C43.4295 52.4707 44.555 51.6295 44.9852 50.4557C56.567 49.0195 64.394 45.3525 67.0581 40.3002C67.6196 41.5777 67.9042 42.8853 67.9042 44.2067C67.9042 48.7493 64.5667 53.0704 58.5064 56.3742Z" fill="#FF5C00"/>
<path d="M34.9276 49.1267C38.7339 49.1267 41.8303 46.0302 41.8303 42.224C41.8303 38.4177 38.7339 35.3213 34.9276 35.3213C31.1214 35.3213 28.0248 38.4177 28.0248 42.224C28.0248 46.0302 31.1214 49.1267 34.9276 49.1267ZM34.9276 37.417C37.5782 37.417 39.7345 39.5734 39.7345 42.2238C39.7345 44.8745 37.578 47.0306 34.9276 47.0306C32.2771 47.0306 30.1206 44.8744 30.1206 42.2238C30.1206 39.5734 32.2771 37.417 34.9276 37.417Z" fill="#FF5C00"/>
<path d="M34.9277 45.0553C36.4891 45.0553 37.7596 43.785 37.7596 42.2234C37.7596 40.6619 36.4893 39.3916 34.9277 39.3916C33.3661 39.3916 32.0959 40.6619 32.0959 42.2234C32.0959 43.785 33.3663 45.0553 34.9277 45.0553ZM34.9277 41.4875C35.3336 41.4875 35.6637 41.8177 35.6637 42.2234C35.6637 42.6292 35.3336 42.9594 34.9277 42.9594C34.5218 42.9594 34.1917 42.6292 34.1917 42.2234C34.1917 41.8177 34.5218 41.4875 34.9277 41.4875Z" fill="#FF5C00"/>
</svg>
