<svg width="41" height="57" viewBox="0 0 41 57" fill="none" xmlns="http://www.w3.org/2000/svg">
<path d="M40.6379 31.4139L38.3644 29.7331C38.6239 27.987 38.6259 26.2318 38.3702 24.5011L40.6379 22.8243C40.9678 22.5806 41.0889 22.1441 40.9318 21.7658L38.7411 16.4887C38.5841 16.1103 38.1886 15.887 37.7832 15.9475L34.9914 16.362C33.9457 14.9579 32.7006 13.7182 31.2796 12.6664L31.6962 9.8736C31.7565 9.46847 31.533 9.07433 31.1538 8.91768L25.8652 6.73201C25.4861 6.57526 25.0485 6.69616 24.8042 7.02525L24.2567 7.76256V2.79645C24.2566 1.25444 22.9994 0 21.454 0H19.5459C18.0006 0 16.7433 1.25444 16.7433 2.79645V7.76249L16.1958 7.02502C15.9515 6.69594 15.514 6.57515 15.1348 6.73179L9.84618 8.91747C9.46697 9.07426 9.24341 9.46833 9.30385 9.87338L9.71924 12.6591C8.31207 13.7026 7.06971 14.9448 6.01572 16.3628L3.21683 15.9472C2.81071 15.8867 2.41586 16.1101 2.25888 16.4883L0.0681707 21.7654C-0.0889222 22.1439 0.0322455 22.5804 0.362052 22.8241L2.63555 24.5049C2.37614 26.251 2.37424 28.0061 2.62986 29.7368L0.362052 31.4135C0.0322455 31.6574 -0.0889222 32.0939 0.0681707 32.4722L2.25888 37.7493C2.41597 38.1278 2.81138 38.351 3.21683 38.2906L6.00867 37.8761C7.05448 39.2802 8.29937 40.5199 9.72044 41.5717L9.30385 44.3645C9.24348 44.7695 9.46711 45.1637 9.84618 45.3204L15.1348 47.5063C15.514 47.6631 15.9515 47.5422 16.1958 47.213L16.7433 46.4756V46.5875C16.7433 46.6743 16.7559 46.7607 16.781 46.8439L19.6432 56.3638C19.7567 56.7414 20.105 57 20.4999 57C20.8949 57 21.2431 56.7414 21.3567 56.364L24.2189 46.8441C24.2439 46.7609 24.2566 46.6746 24.2566 46.5877V46.4758L24.8042 47.2132C24.9769 47.446 25.2461 47.5745 25.523 47.5745C25.6377 47.5745 25.7539 47.5524 25.8651 47.5066L31.1537 45.3207C31.533 45.1639 31.7565 44.7698 31.696 44.3648L31.2807 41.579C32.6879 40.5356 33.9304 39.2931 34.9844 37.8754L37.7832 38.291C38.1893 38.3514 38.5841 38.1281 38.7411 37.7498L40.9317 32.4728C41.0889 32.0942 40.9678 31.6577 40.6379 31.4139ZM18.5322 2.79645C18.5322 2.2387 18.9869 1.78492 19.5459 1.78492H21.454C22.013 1.78492 22.4678 2.2387 22.4678 2.79645V4.75994H18.5323L18.5322 2.79645ZM18.5322 6.54487H22.4676V9.20937C21.1536 9.063 19.8371 9.06124 18.5322 9.20395V6.54487ZM16.7433 33.8159C15.2471 32.9781 14.0565 31.6538 13.3934 30.0564C11.8872 26.4279 13.3881 22.2942 16.7433 20.4232V33.8159ZM20.4999 53.0016L18.8399 47.4801H22.1599L20.4999 53.0016ZM22.4678 45.6952H18.5323V19.701C19.8529 19.3514 21.2063 19.369 22.4678 19.7038V45.6952ZM16.8717 18.3789C12.0418 20.3752 9.74011 25.9202 11.7407 30.7395C12.6832 33.0103 14.4909 34.8331 16.7433 35.8049V37.9738C13.6223 36.9041 11.145 34.5911 9.86762 31.5137C7.43926 25.6637 10.2332 18.933 16.096 16.5101C21.9587 14.087 28.704 16.8748 31.1324 22.7248C32.3088 25.5586 32.3088 28.6799 31.1324 31.5137C29.956 34.3475 27.7442 36.5545 24.9041 37.7284C24.6911 37.8164 24.4747 37.8969 24.2567 37.9721V35.8027C26.5341 34.8228 28.3081 33.0309 29.2593 30.7396C30.2284 28.4049 30.2284 25.8336 29.2593 23.4989C27.2586 18.6796 21.7017 16.3829 16.8717 18.3789ZM24.2566 33.8158V20.4275C25.7142 21.2403 26.9195 22.5267 27.6065 24.182C28.3927 26.0762 28.3927 28.1624 27.6065 30.0565C26.9366 31.6702 25.7629 32.9782 24.2566 33.8158ZM37.3557 36.4229L34.708 36.0298C34.3716 35.9798 34.0363 36.1244 33.8421 36.4029C32.7353 37.9903 31.377 39.3485 29.8049 40.4397C29.5258 40.6334 29.3809 40.9682 29.4311 41.3037L29.8239 43.9383L25.8256 45.5909L24.2566 43.4776V39.8476C24.7072 39.7145 25.1535 39.5574 25.5885 39.3776C28.87 38.0213 31.4257 35.471 32.7849 32.1969C34.1441 28.9226 34.1441 25.316 32.7849 22.0418C29.979 15.2827 22.185 12.0615 15.411 14.8612C8.63711 17.6609 5.40879 25.4377 8.2146 32.1971C9.76952 35.9431 12.8625 38.7089 16.7431 39.8472V43.478L15.1739 45.5911L11.1756 43.9386L11.5697 41.2967C11.6197 40.9613 11.4748 40.6264 11.1958 40.4327C9.60485 39.3281 8.24373 37.9728 7.15004 36.4043C6.95595 36.1259 6.62047 35.9811 6.28414 36.0312L3.64382 36.4232L1.98765 32.4337L4.13239 30.848C4.40565 30.6461 4.54043 30.3071 4.48027 29.9731C4.1421 28.0923 4.144 26.1735 4.48619 24.2701C4.54621 23.9362 4.41158 23.5972 4.1383 23.3954L1.98743 21.8052L3.6436 17.8156L6.29119 18.2087C6.62738 18.2586 6.96287 18.1141 7.15702 17.8358C8.26411 16.2482 9.62241 14.89 11.1942 13.7989C11.4732 13.6053 11.6182 13.2704 11.5681 12.935L11.1752 10.3004L15.1735 8.64788L16.7628 10.7881C16.9651 11.0607 17.3046 11.195 17.6394 11.1351C19.524 10.7977 21.447 10.7996 23.3548 11.141C23.6893 11.2009 24.029 11.0664 24.2314 10.7939L25.825 8.64774L29.8233 10.3003L29.4292 12.9423C29.3793 13.2778 29.5241 13.6125 29.8031 13.8062C31.3941 14.9108 32.7552 16.2662 33.8488 17.8347C34.043 18.1131 34.3787 18.2579 34.7147 18.2077L37.3551 17.8157L39.0112 21.8052L36.8665 23.3909C36.5933 23.5929 36.4585 23.9318 36.5186 24.2656C36.8568 26.1465 36.8549 28.0653 36.5127 29.9686C36.4527 30.3025 36.5874 30.6415 36.8606 30.8433L39.0114 32.4336L37.3557 36.4229Z" fill="#FF5C00"/>
</svg>
