<svg width="65" height="66" viewBox="0 0 65 66" fill="none" xmlns="http://www.w3.org/2000/svg">
<path d="M46.0952 47.1429H36.6667V46.6589C38.7493 46.1885 40.7073 45.3776 42.5082 44.243L44.3279 46.0638L50.2543 40.1374L48.4335 38.3177C49.5681 36.5169 50.3779 34.5589 50.8493 32.4762H53.4286V26.1905H57.619V24.0952H55.5238C55.5238 13.2042 47.8825 3.83533 37.2837 1.584C36.74 0.64219 35.7343 0 34.5714 0H30.381C29.2181 0 28.2124 0.64219 27.6687 1.584C17.0699 3.83533 9.42857 13.2042 9.42857 24.0952H7.33333V26.1905H11.5238V32.4762H14.103C14.5734 34.5589 15.3843 36.5169 16.5189 38.3177L14.6981 40.1374L20.6245 46.0638L22.4442 44.243C24.245 45.3776 26.203 46.1874 28.2857 46.6589V47.1429H18.8571C18.6602 47.1429 18.4685 47.167 18.2726 47.1722L12.3818 41.2804C12.5075 40.7838 12.5714 40.2904 12.5714 39.8095C12.5714 35.6526 8.48676 32.361 4.16324 33.9125L2.61067 34.4719L5.852 37.7143L4.19048 39.3758L0.948095 36.1334L0.388667 37.686C0.130952 38.4047 0 39.1191 0 39.8095C0 43.2761 2.81914 46.0952 6.28571 46.0952C6.76657 46.0952 7.26 46.0313 7.75657 45.9056L10.8188 48.9668C4.43562 51.9923 0 58.4802 0 66H2.09524C2.09524 61.2637 4.07838 56.9884 7.24848 53.9367C10.0027 57.3446 11.5238 61.6136 11.5238 66H13.619C13.619 65.2981 13.575 64.5993 13.5059 63.9048H31.4286V66H33.5238V63.9048H51.4465C51.3773 64.5993 51.3333 65.2981 51.3333 66H53.4286C53.4286 61.6136 54.9497 57.3446 57.7039 53.9367C60.874 56.9884 62.8571 61.2637 62.8571 66H64.9524C64.9524 55.6024 56.4929 47.1429 46.0952 47.1429ZM11.5238 24.0952C11.5238 14.4949 18.0568 6.19457 27.2381 3.83324V15.7143H29.3333V3.14286C29.3333 2.56457 29.8027 2.09524 30.381 2.09524H34.5714C35.1497 2.09524 35.619 2.56457 35.619 3.14286V15.7143H37.7143V3.83324C46.8956 6.19457 53.4286 14.4949 53.4286 24.0952H51.6256L50.578 27.2381H14.3744L13.3268 24.0952H11.5238ZM41.843 29.3333C41.3202 34.0403 37.3214 37.7143 32.4762 37.7143C27.631 37.7143 23.6322 34.0403 23.1094 29.3333H41.843ZM22.9072 42.0378L22.1875 41.536L20.6234 43.1011L17.6597 40.1374L19.2249 38.5733L18.723 37.8536C17.3381 35.8652 16.4183 33.6411 15.9909 31.2431L15.8379 30.381H13.619V29.3333H21.0058C21.537 35.1979 26.4754 39.8095 32.4762 39.8095C38.477 39.8095 43.4154 35.1979 43.9466 29.3333H51.3333V30.381H49.1145L48.9615 31.2442C48.5341 33.6411 47.6143 35.8652 46.2293 37.8547L45.7275 38.5744L47.2927 40.1385L44.3289 43.1022L42.7649 41.537L42.0451 42.0389C40.0568 43.4238 37.8327 44.3436 35.4347 44.771L34.5714 44.924V47.1429H30.381V44.924L29.5177 44.77C27.1208 44.3426 24.8967 43.4228 22.9072 42.0378ZM8.32438 43.5097L7.6979 43.7339C7.20238 43.913 6.74038 44 6.28571 44C4.12971 44 2.34876 42.3636 2.11933 40.2684L4.19048 42.3385L8.81467 37.7143L6.74457 35.6431C8.83981 35.8726 10.4762 37.6535 10.4762 39.8095C10.4762 40.2642 10.3892 40.7262 10.2101 41.2228L9.9859 41.8492L15.5844 47.4477C14.675 47.608 13.7877 47.828 12.9276 48.114L8.32438 43.5097ZM31.4286 61.8095H13.1853C12.5086 58.4467 11.0314 55.2724 8.85133 52.5842C11.6474 50.4931 15.1046 49.2381 18.8571 49.2381H22.5238L31.4286 61.1118V61.8095ZM32.4762 59.0155L25.1429 49.2381H28.2857H36.6667H39.8095L32.4762 59.0155ZM51.767 61.8095H33.5238V61.1118L42.4286 49.2381H46.0952C49.8478 49.2381 53.3049 50.4931 56.101 52.5842C53.9209 55.2724 52.4449 58.4467 51.767 61.8095Z" fill="#FF5C00"/>
<path d="M49.2382 22H15.7144V24.0952H49.2382V22Z" fill="#FF5C00"/>
</svg>
