<svg width="116" height="116" viewBox="0 0 116 116" fill="none" xmlns="http://www.w3.org/2000/svg">
<path d="M79.2673 44.466H75.4012V48.3321H79.2673V44.466Z" fill="#FF650C"/>
<path d="M65.7342 85.0677H61.868V88.9339H65.7342V85.0677Z" fill="#FF650C"/>
<path d="M54.1344 85.0677H50.2682V88.9339H54.1344V85.0677Z" fill="#FF650C"/>
<path d="M59.9367 77.3333H56.0705V81.1995H59.9367V77.3333Z" fill="#FF650C"/>
<path d="M104.403 71.5322H100.537V75.3984H104.403V71.5322Z" fill="#FF650C"/>
<path d="M104.403 83.1344H100.537V87.0006H104.403V83.1344Z" fill="#FF650C"/>
<path d="M98.6003 77.3333H94.7342V81.1995H98.6003V77.3333Z" fill="#FF650C"/>
<path d="M104.403 94.7343H100.537V98.6004H104.403V94.7343Z" fill="#FF650C"/>
<path d="M104.403 104.401H100.537V108.267H104.403V104.401Z" fill="#FF650C"/>
<path d="M98.6003 88.9332H94.7342V92.7993H98.6003V88.9332Z" fill="#FF650C"/>
<path d="M8.15766 112.132L9.72525 105.864C9.94015 105.003 10.7134 104.399 11.6008 104.399H15.467V71.533H19.3341V73.753L27.0674 82.0782V73.3278L19.3341 65.0026V67.6669H15.4679L15.467 29.0003H5.80058C5.06858 29.0003 4.39897 28.5868 4.07181 27.9316L0.205647 20.1982C-0.166577 19.4538 -0.0217309 18.5549 0.567325 17.9668L13.534 4.9991V1.93407C13.534 1.42082 13.7374 0.929627 14.1001 0.56698C14.4627 0.204334 14.9549 0 15.4672 0H21.2674C22.031 0 22.7237 0.44993 23.0345 1.14835L24.2913 3.97835L108.484 13.546C109.461 13.6563 110.2 14.4833 110.2 15.4666V17.3998L114.066 17.4007C114.737 17.4007 115.359 17.7471 115.712 18.3169C116.064 18.8877 116.095 19.5986 115.796 20.1982L111.93 27.9315C111.603 28.5868 110.932 29.0003 110.2 29.0003H100.534V25.1341H109.005L110.938 21.2679L87 21.267V25.1331L96.6664 25.1341V29.0003H79.2665V36.7336H81.1996C81.9642 36.7336 82.6559 37.1835 82.9667 37.8819L86.8329 46.5824C87.0832 47.1456 87.0506 47.7922 86.7446 48.3265L82.8784 55.0929C82.534 55.6954 81.8932 56.0667 81.1996 56.0667H79.2665V59.1327L84.5006 64.3661C85.0177 64.8832 85.199 65.6507 84.9668 66.3452L83.0337 72.1455C82.7709 72.9341 82.0322 73.4665 81.1994 73.4675H73.4661C72.9538 73.4675 72.4617 73.2631 72.099 72.9005C71.7364 72.5378 71.533 72.0466 71.533 71.5334V65.7341H75.4002V69.6003H79.8064L80.9212 66.256L75.967 61.3019C75.6034 60.9392 75.4 60.4471 75.4 59.9338V56.0667H73.466C72.7723 56.0667 72.1315 55.6954 71.7881 55.093L67.9219 48.3265C67.6168 47.7922 67.5832 47.1446 67.8327 46.5815L71.6988 37.881L71.6998 37.882C72.0097 37.1835 72.7023 36.7336 73.466 36.7336H75.3991L75.4 29.0003H51.4611L44.2622 43.3983C43.9341 44.0536 43.2654 44.4671 42.5325 44.4671H30.933V104.4H34.8001C35.6866 104.4 36.4598 105.004 36.6757 105.865L38.2423 112.133H42.5326V83.1331C42.5326 82.7033 42.6765 82.285 42.9403 81.9464L46.5283 77.3329H46.3997V71.5326H50.2659V72.5265L56.4728 64.5457C56.8268 64.0909 57.3669 63.8175 57.9435 63.8002C58.5201 63.7839 59.0746 64.0257 59.4545 64.4603L72.988 79.9271C73.296 80.2802 73.4658 80.7311 73.4658 81.1992V93.9319L79.8321 87.5656C80.1948 87.2029 80.6869 86.9995 81.1992 86.9995C81.7124 86.9995 82.2036 87.2029 82.5663 87.5656L86.9995 91.9988V73.4669C86.9995 72.8702 87.2749 72.307 87.7459 71.9406L105.146 58.407C105.485 58.1432 105.903 58.0003 106.333 58.0003V50.267H110.2V58.0003C111.268 58.0003 112.133 58.8656 112.133 59.9334V83.1336H108.267V61.8665H106.996L90.8658 74.412V95.8653L94.1668 99.1663C94.5295 99.529 94.7328 100.02 94.7328 100.533V112.133H108.266V86.9986H112.133V112.133H116V115.999L0 116V112.133L8.15766 112.132ZM71.7645 47.2553L74.5898 52.1979H80.0793L82.9037 47.2553L79.944 40.5975H74.7241L71.7645 47.2553ZM19.3347 79.4333V89.2188L27.068 97.544V87.7585L19.3347 79.4333ZM19.3347 28.9978V29.2846L27.068 37.6098V28.9978H19.3347ZM27.068 43.2902L19.3347 34.965V43.8534L27.068 52.1785V43.2902ZM27.068 67.6444V57.8589L19.3347 49.5337V59.3202L27.068 67.6444ZM6.9955 25.1318H67.6674V21.2647H5.06267L6.9955 25.1318ZM6.60121 17.3985H13.5344V10.4654L6.60121 17.3985ZM20.0112 3.86499H17.4008V17.3985H26.0263L20.0112 3.86499ZM106.333 17.1915L26.1118 8.07474L30.2562 17.3988H106.332L106.333 17.1915ZM83.133 25.1321V21.2649H71.5335V25.1311L83.133 25.1321ZM41.3375 40.599L43.2706 36.7328L38.6657 36.7318V32.8657H45.2047L47.1378 28.9995L30.9324 28.9985V40.598L41.3375 40.599ZM27.0662 103.226L19.3329 94.9006V104.399H27.0662V103.226ZM63.7999 104.399V112.132H67.6671V100.533C67.6671 100.02 67.8705 99.5285 68.2331 99.1659L69.6002 97.7988V96.6658H46.4V102.466H61.8669C62.9346 102.466 63.7999 103.331 63.7999 104.399ZM58.0879 68.7681L46.4 83.7956V92.7991H69.6002V81.9259L58.0879 68.7681ZM79.2665 112.133V104.4H83.1327V112.133H90.866V101.333L81.1996 91.6669L71.5332 101.333V112.133H79.2665ZM59.9335 112.133V106.334H46.4V112.134L59.9335 112.133ZM34.2565 112.133L33.2895 108.267H13.1084L12.1413 112.133H34.2565Z" fill="#FF650C"/>
</svg>
