<svg width="72" height="72" viewBox="0 0 72 72" fill="none" xmlns="http://www.w3.org/2000/svg">
<path d="M71.9999 60.3871H69.6263C69.1221 52.3801 63.4656 45.5362 55.6839 43.5579C55.4735 42.3 54.5936 41.2783 53.4191 40.8605V15.3513L52.5386 15.1318C50.3224 14.5768 48.7739 12.594 48.7739 10.3092V0H35.648L35.3553 0.195345C35.3242 0.216091 32.1023 2.32288 26.7099 2.32288C21.3657 2.32288 18.0932 0.214965 18.0644 0.195345L17.7711 0H4.64523V10.3086C4.64523 12.594 3.09745 14.5763 0.880517 15.1312L0 15.3513V62.7098H30.1929V67.3549H33.2448C34.6244 68.4791 39.84 72 51.0963 72C62.3528 72 67.5684 68.4791 68.9477 67.3549H72L71.9999 60.3871ZM67.3034 60.3871H34.8903C35.3744 53.6576 40.0127 47.8801 46.4522 45.964V53.4189H48.7745V44.1286C48.7745 43.4889 49.2948 42.9674 49.9356 42.9674H52.2579C52.8987 42.9674 53.419 43.4889 53.419 44.1286V53.4189H55.7413V45.9634C62.1814 47.88 66.8198 53.6569 67.3038 60.3869L67.3034 60.3871ZM49.9359 40.6459C48.2101 40.6459 46.7844 41.9096 46.51 43.5582C45.8785 43.7184 45.2607 43.9069 44.6579 44.1293H27.8716V36.0002H51.0972V40.6453L49.9359 40.6459ZM51.0976 33.6779H27.8721V29.0328H51.0976V33.6779ZM25.5486 33.6779H2.32304V29.0328H25.5486V33.6779ZM25.5486 36.0008V44.1299L2.32304 44.1293V36.0002L25.5486 36.0008ZM27.8715 46.4523H40.2856C38.5124 47.7287 36.9773 49.3018 35.7523 51.0974H27.8715V46.4523ZM51.097 17.1061V26.711H27.8715V20.2125C29.5311 18.4602 36.4847 10.6376 37.1012 2.32423H46.4521V10.3105C46.4521 13.3514 48.3214 16.0287 51.0972 17.1062L51.097 17.1061ZM34.6825 3.11464C33.7697 9.56689 28.7137 15.7911 26.7077 18.0378C24.7011 15.7945 19.6446 9.57559 18.7341 3.11464C20.4276 3.82171 23.1452 4.64635 26.7093 4.64635C30.2728 4.64635 32.9904 3.82174 34.6823 3.11464H34.6825ZM6.96786 10.3102V2.32393H16.3187C16.9353 10.6374 23.8889 18.4597 25.5485 20.2123L25.5479 26.7107H2.32232V17.1058C5.09747 16.0282 6.96743 13.3509 6.96743 10.3101L6.96786 10.3102ZM2.32275 53.4201H4.64501V51.0979H2.32275V46.4527H25.5483V51.0979H6.96816V53.4201H25.5483V60.3875L2.32275 60.3881V53.4201ZM27.8703 60.3881V53.4207H34.4131C33.3655 55.5621 32.7235 57.9195 32.5679 60.3881H27.8703ZM51.0959 69.6785C44.737 69.6785 40.4899 68.4868 37.8773 67.3562H64.3616C61.7691 68.4857 57.5255 69.6785 51.0957 69.6785H51.0959ZM69.676 65.0334H32.5142V62.7111H69.6745L69.676 65.0334Z" fill="#FF650C"/>
</svg>
