<svg width="46" height="50" viewBox="0 0 46 50" fill="none" xmlns="http://www.w3.org/2000/svg">
<path fill-rule="evenodd" clip-rule="evenodd" d="M16.1586 13.3391H18.2866C18.7208 13.3391 19.0762 12.9878 19.0762 12.5495C19.0762 12.1153 18.7208 11.7599 18.2866 11.7599H16.1586C15.7244 11.7599 15.369 12.1153 15.369 12.5495C15.369 12.9878 15.7244 13.3391 16.1586 13.3391Z" fill="white"/>
<path fill-rule="evenodd" clip-rule="evenodd" d="M18.8238 4.29475C19.953 5.85811 20.6281 7.87151 20.6281 10.0625C20.6281 10.5008 20.9835 10.8521 21.4177 10.8521C21.856 10.8521 22.2073 10.5008 22.2073 10.0625C22.2073 7.5162 21.4137 5.18265 20.103 3.37077C19.8503 3.01536 19.3528 2.93656 19.0014 3.19327C18.6464 3.44591 18.5672 3.94348 18.8239 4.29485L18.8238 4.29475Z" fill="white"/>
<path fill-rule="evenodd" clip-rule="evenodd" d="M27.0808 2.48632C25.0336 4.42575 23.721 7.35871 23.721 10.6427C23.721 11.0857 24.0824 11.4408 24.5239 11.4408C24.9654 11.4408 25.3268 11.0857 25.3268 10.6427C25.3268 7.65383 26.5754 4.99225 28.5182 3.34436C30.7704 4.98825 32.2353 7.63796 32.2353 10.6267C32.2353 11.6921 32.0308 11.9557 31.6814 12.9012C31.5811 13.1685 31.5852 13.4957 31.7657 13.8549C31.9222 14.1624 32.2753 14.5455 32.6487 14.9244H18.9354C18.4939 14.9244 18.1325 15.2837 18.1325 15.7226C18.1325 16.1614 18.4939 16.5207 18.9354 16.5207H30.7138C30.8902 16.9555 30.9864 17.4305 30.9864 17.9292C30.9864 20.0321 29.2443 21.74 27.1008 21.74C26.326 21.74 25.6032 21.5167 24.9932 21.1295C23.8731 20.4111 22.4279 20.4111 21.3082 21.1295C20.7019 21.5167 19.9755 21.74 19.2006 21.74C17.3176 21.74 15.7442 20.4234 15.391 18.6794C15.3026 18.2483 14.8772 17.965 14.4436 18.0529C14.0099 18.1407 13.7291 18.5636 13.8175 18.9947C13.8336 19.0706 13.8497 19.1461 13.8695 19.2221C13.8654 19.2459 13.8654 19.2738 13.8654 19.2981C13.8654 20.8783 14.1945 22.3706 14.7769 23.7033C16.2823 27.1309 19.4774 29.4735 23.1506 29.4735C23.9936 29.4735 24.8126 29.3496 25.5911 29.1184V32.0949C24.8366 32.8413 24.07 33.2445 23.2629 33.2445C22.4319 33.2445 21.5931 32.8294 20.7097 32.067V30.7302C20.7097 30.2873 20.3525 29.9321 19.9068 29.9321C19.4653 29.9321 19.1039 30.2873 19.1039 30.7302V31.6203H15.5033C6.9408 31.6203 0 38.5197 0 47.0313V49.2019C0 49.6408 0.357255 50 0.802899 50H45.1971C45.6427 50 46 49.6408 46 49.2019V47.0313C46 38.5198 39.0593 31.6203 30.4967 31.6203H27.1967V28.4558C30.2877 26.8119 32.4395 23.3362 32.4395 19.298C32.4395 19.2738 32.4354 19.2459 32.4354 19.2221C32.5357 18.807 32.5919 18.3759 32.5919 17.9292C32.5919 17.4423 32.5279 16.9673 32.4032 16.5207H34.1415C34.4223 16.5207 34.6833 16.3729 34.8279 16.1376C34.9803 15.8901 35.0286 15.5949 34.9241 15.2636C34.8399 14.9762 34.5669 14.5972 34.1977 14.2142C33.9771 13.9867 33.7239 13.7433 33.5071 13.5159C33.427 13.428 33.3345 13.3122 33.2704 13.2285C33.6479 12.2349 33.8404 11.8559 33.8404 10.6268C33.8404 4.76088 29.0515 0 23.15 0C17.2484 0 12.4595 4.76035 12.4595 10.6268C12.4595 11.8559 12.652 12.2349 13.0295 13.2285C12.9692 13.3122 12.873 13.428 12.7924 13.5159C12.5756 13.7433 12.3228 13.9868 12.1023 14.2142C11.7368 14.5972 11.4638 14.9762 11.3754 15.2636C11.275 15.5949 11.3192 15.8901 11.472 16.1376C11.6162 16.3729 11.8772 16.5207 12.1585 16.5207H16.2089C16.6504 16.5207 17.0118 16.1614 17.0118 15.7226C17.0118 15.2837 16.6504 14.9244 16.2089 14.9244H13.6515C14.029 14.5455 14.3784 14.1625 14.5349 13.8549C14.7154 13.4957 14.7195 13.1685 14.6192 12.9012C14.2698 11.9557 14.0649 11.6921 14.0649 10.6267C14.0649 5.64261 18.1355 1.59664 23.1495 1.59664C24.5546 1.59664 25.8911 1.91564 27.0793 2.4863L27.0808 2.48632ZM15.5921 33.2169H15.5038C7.82834 33.2169 1.60651 39.4019 1.60651 47.0314V48.4039H8.13369L9.22567 46.8877C9.9121 45.9381 10.2772 44.8009 10.2772 43.6317V36.3891C10.2772 35.9462 10.6386 35.591 11.0801 35.591C11.5257 35.591 11.883 35.9462 11.883 36.3891V43.6317C11.883 45.1318 11.4093 46.5963 10.53 47.8176L10.1087 48.4039H35.4227L35.001 47.8176C34.1217 46.5963 33.6484 45.1318 33.6484 43.6317V33.5719C32.6366 33.3404 31.5809 33.2168 30.4971 33.2168H30.4248L29.5336 40.3038C29.3849 41.5005 28.3614 42.3984 27.1451 42.3984H19.0641C17.8722 42.3984 16.8603 41.5367 16.6839 40.3633L15.5921 33.2169ZM35.2538 34.0466V43.6317C35.2538 44.801 35.6235 45.9382 36.3058 46.8878L37.3977 48.404H44.3946V47.0314C44.3946 41.0616 40.5891 35.9779 35.2538 34.0462L35.2538 34.0466ZM19.5983 33.2169H17.2176L18.2696 40.124C18.3299 40.5153 18.6669 40.8023 19.0642 40.8023H27.1452C27.5504 40.8023 27.8919 40.5034 27.944 40.1043L28.8072 33.2169H26.7355C25.6195 34.3181 24.4515 34.8406 23.2633 34.8406C22.087 34.8406 20.8547 34.3221 19.5983 33.2169ZM30.3521 22.2832C29.4406 22.9454 28.3168 23.3366 27.1005 23.3366C26.0044 23.3366 24.985 23.0213 24.1297 22.4745H24.126C23.5316 22.0914 22.7688 22.0914 22.179 22.4745H22.1708C21.3158 23.0213 20.2962 23.3366 19.2004 23.3366C17.9841 23.3366 16.8598 22.9454 15.9487 22.2832C16.0371 22.5505 16.1375 22.814 16.2498 23.0653C17.4943 25.8985 20.1114 27.8778 23.1504 27.8778C26.4661 27.8778 29.268 25.5392 30.3521 22.2832Z" fill="white"/>
</svg>
