<svg width="72" height="72" viewBox="0 0 72 72" fill="none" xmlns="http://www.w3.org/2000/svg">
<path d="M4.33673e-06 49.6064C4.49918e-06 51.4646 0.960171 53.1287 2.56975 54.057L31.6213 70.8303C32.972 71.6095 34.4856 72 35.9998 72C37.514 72 39.0276 71.6101 40.3782 70.8303L69.4298 54.0554C71.0387 53.1278 71.9996 51.4639 71.9996 49.6055C71.9996 47.7478 71.0394 46.0838 69.4298 45.1555L68.1057 44.3908C67.1745 43.8518 65.9845 44.1717 65.4473 45.103C64.9102 46.0342 65.2282 47.2244 66.1594 47.7616L67.4835 48.5263C68.0472 48.851 68.1076 49.3893 68.1076 49.6054C68.1076 49.8227 68.046 50.3605 67.4841 50.6858L38.4325 67.4591C36.9322 68.324 35.0681 68.3252 33.5677 67.4591L4.51615 50.6842C3.95369 50.3595 3.89212 49.8212 3.89212 49.6045C3.89212 49.3884 3.95368 48.8507 4.51555 48.5253L10.5343 45.0508L31.6216 57.2249C32.9722 58.0041 34.4858 58.3946 36 58.3946C37.5142 58.3946 39.0278 58.0047 40.3784 57.2249L69.43 40.45C71.039 39.5211 71.9998 37.8572 71.9998 36C71.9998 34.1424 71.0396 32.4783 69.43 31.5494L68.109 30.7865C67.1796 30.2494 65.9877 30.5674 65.4505 31.4999C64.9134 32.4312 65.2327 33.6213 66.1639 34.1585L67.4843 34.9202C68.0474 35.2449 68.1078 35.7827 68.1078 36C68.1078 36.2172 68.0462 36.755 67.4843 37.0803L38.4328 53.8537C36.9325 54.7186 35.0683 54.7198 33.568 53.8537L4.51636 37.0788C3.9539 36.7541 3.89233 36.2157 3.89233 35.999C3.89233 35.7818 3.95389 35.244 4.51576 34.9187L10.5345 31.4429L31.6218 43.6195C32.9724 44.3987 34.486 44.7891 36.0002 44.7891C37.5144 44.7891 39.028 44.3993 40.3787 43.6195L69.4302 26.8446C71.0392 25.9157 72 24.2518 72 22.3946C72 20.5369 71.0398 18.8729 69.4302 17.9446L40.3786 1.1697C37.6785 -0.389904 34.3219 -0.389903 31.6218 1.1697L2.57018 17.9431C0.961248 18.8713 0.00105085 20.5352 0.00105102 22.3943C0.00105118 24.2525 0.96122 25.9166 2.5708 26.8449L6.6438 29.1969L2.5708 31.549C0.961252 32.4767 0.00105204 34.1406 0.00105221 35.9984C0.00105237 37.8562 0.961221 39.5201 2.5708 40.449L6.6438 42.801L2.5708 45.1531C0.961253 46.0808 0.00105323 47.7447 0.0010534 49.6025L4.33673e-06 49.6064ZM4.51548 23.4776C3.95302 23.1523 3.89145 22.6139 3.89145 22.3984C3.89145 22.1824 3.95301 21.6446 4.51488 21.3193L33.5665 4.54438C34.3166 4.11163 35.1573 3.89557 35.9986 3.89557C36.8392 3.89557 37.6806 4.11284 38.4306 4.54438L67.4822 21.3193C68.0465 21.644 68.1069 22.1817 68.1069 22.399C68.1069 22.6163 68.0453 23.1541 67.4834 23.4794L60.9765 27.2364L38.4308 40.2531C36.9305 41.1191 35.0663 41.1191 33.566 40.2531L4.51548 23.4776Z" fill="#FF650C"/>
</svg>
