<svg width="72" height="72" viewBox="0 0 72 72" fill="none" xmlns="http://www.w3.org/2000/svg">
<path d="M1.49951 71.9908L70.5002 71.9908C71.3287 71.9908 72 71.3189 72 70.4909C72 69.6624 71.3281 68.9911 70.5002 68.9911L68.2057 68.9911L68.2057 13.5001C68.2057 12.9831 67.939 12.5017 67.5006 12.2277C67.0609 11.9531 66.5118 11.9253 66.0473 12.1521L47.6855 21.1238L47.6855 1.50024C47.6855 0.983169 47.4188 0.501769 46.9804 0.227797C46.5401 -0.0467625 45.991 -0.074584 45.5271 0.152201L25.1418 10.1128C24.6271 10.3638 24.3 10.8875 24.3 11.4602L24.3 27.8666L5.12537 27.8726C4.29743 27.8726 3.62615 28.5445 3.62615 29.3725L3.62615 68.9896L1.49984 68.9896C0.671295 68.9896 6.09e-06 69.6615 6.16238e-06 70.4895C6.23482e-06 71.318 0.671295 71.9899 1.49984 71.9899L1.49951 71.9908ZM35.5044 46.34C35.4494 45.1661 35.528 43.5599 35.5861 42.9339C39.312 43.1383 43.1923 41.9845 46.328 39.5478C48.2233 40.7495 52.4162 43.0228 56.9701 42.9171C57.486 50.9979 54.0637 58.8218 46.2385 63.7095C40.218 60.1553 35.8824 53.7908 35.5045 46.3402L35.5044 46.34ZM65.2053 15.9006L65.2053 68.8494L47.8204 68.85L47.8204 66.2755C55.6595 61.3805 60.0024 53.3377 60.0138 44.3358C60.0162 42.3612 59.7937 41.1094 59.781 41.0398C59.6365 40.2482 58.8968 39.722 58.0938 39.8242C54.6944 40.3141 50.7845 38.8137 47.8725 36.9703C47.8543 36.9588 47.8386 36.9485 47.8211 36.937L47.8211 24.3959L65.2053 15.9006ZM27.3004 12.3953L44.6853 3.90075L44.6853 37.0185C41.5508 39.5804 38.5064 40.1984 34.5857 39.8101L34.5839 39.8101C34.5833 39.8101 34.5803 39.8095 34.5797 39.8095C33.7554 39.6359 32.9184 40.1887 32.7913 41.0596C32.5168 42.9253 32.4236 44.6972 32.5077 46.4843C32.931 54.8332 37.7928 62.1522 44.6847 66.2736L44.6847 68.8481L27.2998 68.8487L27.3004 12.3953ZM6.62563 30.8717L24.2969 30.8668L24.2969 68.8491L20.8987 68.8491L20.8987 54.3074C20.8987 53.4788 20.2269 52.8075 19.3989 52.8075L11.5236 52.8075C10.6951 52.8075 10.0238 53.4794 10.0238 54.3074L10.0238 68.8491L6.62564 68.8491L6.62563 30.8717ZM13.0235 68.4452L13.0235 55.8073L17.8985 55.8073L17.8985 68.4452L13.0235 68.4452Z" fill="#FF650C"/>
<path d="M11.3306 37.0091L19.743 37.0091C20.5715 37.0091 21.2428 36.3372 21.2428 35.5092C21.2428 34.6807 20.5709 34.0094 19.743 34.0094L11.3306 34.0088C10.5021 34.0088 9.83081 34.6807 9.83081 35.5086C9.83081 36.3372 10.5027 37.0091 11.3306 37.0091Z" fill="#FF650C"/>
<path d="M31.7376 16.5915L40.1494 16.5915C40.9779 16.5915 41.6492 15.9196 41.6492 15.0916C41.6492 14.2631 40.9773 13.5918 40.1494 13.5918L31.7376 13.5918C30.9091 13.5918 30.2378 14.2637 30.2378 15.0916C30.2378 15.9202 30.9097 16.5915 31.7376 16.5915Z" fill="#FF650C"/>
<path d="M31.7376 22.5915L40.1494 22.5915C40.9779 22.5915 41.6492 21.9196 41.6492 21.0916C41.6492 20.2631 40.9773 19.5918 40.1494 19.5918L31.7376 19.5918C30.9091 19.5918 30.2378 20.2637 30.2378 21.0916C30.2378 21.9196 30.9097 22.5915 31.7376 22.5915Z" fill="#FF650C"/>
<path d="M31.7376 28.5915L40.1494 28.5915C40.9779 28.5915 41.6492 27.9196 41.6492 27.0916C41.6492 26.2631 40.9773 25.5918 40.1494 25.5918L31.7376 25.5918C30.9091 25.5918 30.2378 26.2637 30.2378 27.0916C30.2378 27.9196 30.9097 28.5915 31.7376 28.5915Z" fill="#FF650C"/>
<path d="M41.6492 33.0916C41.6492 32.2631 40.9773 31.5918 40.1494 31.5918L31.7376 31.5918C30.9091 31.5918 30.2378 32.2637 30.2378 33.0916C30.2378 33.9202 30.9097 34.5915 31.7376 34.5915L40.1494 34.5915C40.9773 34.5915 41.6492 33.9196 41.6492 33.0916Z" fill="#FF650C"/>
<path d="M52.3055 28.5915L60.7172 28.5915C61.5458 28.5915 62.2171 27.9196 62.2171 27.0916C62.2171 26.2631 61.5452 25.5918 60.7172 25.5918L52.3055 25.5918C51.477 25.5918 50.8057 26.2637 50.8057 27.0916C50.8057 27.9196 51.477 28.5915 52.3055 28.5915Z" fill="#FF650C"/>
<path d="M52.3055 34.5915L60.7172 34.5915C61.5458 34.5915 62.2171 33.9196 62.2171 33.0916C62.2171 32.2631 61.5452 31.5918 60.7172 31.5918L52.3055 31.5918C51.477 31.5918 50.8057 32.2637 50.8057 33.0916C50.8057 33.9196 51.477 34.5915 52.3055 34.5915Z" fill="#FF650C"/>
<path d="M11.3306 43.3278L19.743 43.3278C20.5715 43.3278 21.2428 42.6559 21.2428 41.828C21.2428 40.9994 20.5709 40.3281 19.743 40.3281L11.3306 40.3281C10.5021 40.3281 9.83081 41 9.83081 41.828C9.83081 42.6565 10.5027 43.3278 11.3306 43.3278Z" fill="#FF650C"/>
<path d="M11.3306 49.6452L19.743 49.6452C20.5715 49.6452 21.2428 48.9733 21.2428 48.1453C21.2428 47.3168 20.5709 46.6455 19.743 46.6455L11.3306 46.6455C10.5021 46.6455 9.83081 47.3174 9.83081 48.1453C9.83081 48.9739 10.5027 49.6452 11.3306 49.6452Z" fill="#FF650C"/>
<path d="M43.8245 56.1324C44.4105 56.7184 45.3594 56.7184 45.9454 56.1324L52.9656 49.1122C53.5516 48.5261 53.5516 47.5773 52.9656 46.9913C52.3796 46.4052 51.4307 46.4052 50.8447 46.9913L44.8847 52.9513L42.7584 50.825C42.1724 50.2389 41.2235 50.2389 40.6375 50.825C40.0515 51.411 40.0515 52.3599 40.6375 52.9459L43.8245 56.1324Z" fill="#FF650C"/>
</svg>
