<svg width="21" height="27" viewBox="0 0 21 27" fill="none" xmlns="http://www.w3.org/2000/svg">
<path fill-rule="evenodd" clip-rule="evenodd" d="M10.4125 0C7.91828 0.000935205 5.50733 0.896839 3.61795 2.5246C1.72815 4.15255 0.485476 6.40429 0.115345 8.87083C-0.254763 11.3372 0.272459 13.8548 1.60114 15.9658C2.92958 18.0766 4.97159 19.6405 7.35572 20.3735C7.59349 20.7141 7.80812 21.0706 7.99842 21.44C8.66099 22.8997 9.24666 24.3932 9.75284 25.9143C9.84566 26.2 10.112 26.3936 10.4126 26.3936C10.713 26.3936 10.9793 26.2 11.0722 25.9143C11.5786 24.3943 12.1647 22.9023 12.8278 21.4438C13.0179 21.0744 13.2325 20.7179 13.4705 20.3772C15.8574 19.6466 17.9027 18.0829 19.2339 15.9713C20.5649 13.8594 21.0936 11.3397 20.723 8.87089C20.3524 6.40219 19.1079 4.1486 17.2155 2.52047C15.3231 0.892529 12.9089 -0.0020352 10.4126 0.000358922L10.4125 0ZM12.9915 19.0674C12.8323 19.1184 12.6862 19.2032 12.5628 19.3162C12.3252 19.5465 12.1239 19.8114 11.9654 20.102C11.3617 21.2373 10.8427 22.4157 10.4125 23.6272C9.98184 22.4154 9.46281 21.2368 8.85937 20.101C8.70109 19.8104 8.49955 19.5455 8.26201 19.3152C8.13879 19.2023 7.99243 19.1174 7.83321 19.0665C5.03927 18.2334 2.8198 16.1025 1.87388 13.3449C0.927898 10.5872 1.37191 7.54239 3.06627 5.17011C4.76065 2.79747 7.4966 1.38955 10.412 1.38955C13.3273 1.38955 16.0633 2.79747 17.7578 5.17011C19.4522 7.54251 19.8964 10.5873 18.9505 13.3449C18.0045 16.1025 15.7848 18.2334 12.9909 19.0665L12.9915 19.0674Z" fill="white"/>
<path fill-rule="evenodd" clip-rule="evenodd" d="M10.4125 5.55469C9.12331 5.55469 7.88699 6.06671 6.97536 6.97829C6.06398 7.88968 5.55176 9.126 5.55176 10.4152C5.55176 11.7041 6.06402 12.9404 6.97536 13.8521C7.88693 14.7636 9.12331 15.2757 10.4125 15.2757C11.7014 15.2757 12.9378 14.7636 13.8494 13.8521C14.7609 12.9405 15.273 11.7041 15.273 10.4152C15.2725 9.12624 14.7603 7.8901 13.8487 6.97877C12.9373 6.06739 11.7014 5.55517 10.4125 5.55469ZM10.4125 13.8868C9.49177 13.8868 8.6087 13.5212 7.95755 12.8701C7.30665 12.2192 6.94077 11.3361 6.94077 10.4154C6.94077 9.49464 7.30667 8.61157 7.95755 7.96042C8.6087 7.30952 9.49177 6.94388 10.4125 6.94388C11.3332 6.94388 12.216 7.30955 12.8672 7.96042C13.5183 8.61157 13.884 9.49464 13.884 10.4154C13.8835 11.3358 13.5176 12.2187 12.8667 12.8696C12.2156 13.5205 11.333 13.8864 10.4125 13.8868Z" fill="white"/>
</svg>
