<svg width="21" height="27" viewBox="0 0 21 27" fill="none" xmlns="http://www.w3.org/2000/svg">
<path fill-rule="evenodd" clip-rule="evenodd" d="M10.1233 0C7.6984 0.000935205 5.35441 0.896839 3.51749 2.5246C1.68016 4.15255 0.471996 6.40429 0.112142 8.87083C-0.247689 11.3372 0.264893 13.8548 1.55668 15.9658C2.84823 18.0766 4.83354 19.6405 7.15146 20.3735C7.38264 20.7141 7.59131 21.0706 7.77632 21.44C8.4205 22.8997 8.9899 24.3932 9.48202 25.9143C9.57226 26.2 9.83117 26.3936 10.1235 26.3936C10.4156 26.3936 10.6745 26.2 10.7647 25.9143C11.2571 24.3943 11.8269 22.9023 12.4716 21.4438C12.6564 21.0744 12.8651 20.7179 13.0964 20.3772C15.4171 19.6466 17.4056 18.0829 18.6998 15.9713C19.9939 13.8594 20.5078 11.3397 20.1476 8.87089C19.7873 6.40219 18.5774 4.1486 16.7375 2.52047C14.8976 0.892529 12.5504 -0.0020352 10.1235 0.000358922L10.1233 0ZM12.6308 19.0674C12.476 19.1184 12.3339 19.2032 12.2139 19.3162C11.983 19.5465 11.7873 19.8114 11.6331 20.102C11.0462 21.2373 10.5416 22.4157 10.1234 23.6272C9.70466 22.4154 9.20005 21.2368 8.61337 20.101C8.45948 19.8104 8.26354 19.5455 8.03259 19.3152C7.9128 19.2023 7.7705 19.1174 7.6157 19.0665C4.89934 18.2334 2.7415 16.1025 1.82184 13.3449C0.902132 10.5872 1.33381 7.54239 2.98113 5.17011C4.62846 2.79747 7.28843 1.38955 10.1229 1.38955C12.9572 1.38955 15.6172 2.79747 17.2647 5.17011C18.9121 7.54251 19.3439 10.5873 18.4242 13.3449C17.5045 16.1025 15.3465 18.2334 12.6301 19.0665L12.6308 19.0674Z" fill="#FF650C"/>
<path fill-rule="evenodd" clip-rule="evenodd" d="M10.1222 5.55469C8.86887 5.55469 7.66687 6.06671 6.78056 6.97829C5.89448 7.88968 5.39648 9.126 5.39648 10.4152C5.39648 11.7041 5.89452 12.9404 6.78056 13.8521C7.66681 14.7636 8.86887 15.2757 10.1222 15.2757C11.3754 15.2757 12.5774 14.7636 13.4637 13.8521C14.3499 12.9405 14.8478 11.7041 14.8478 10.4152C14.8473 9.12624 14.3493 7.8901 13.463 6.97877C12.5769 6.06739 11.3754 5.55517 10.1222 5.55469ZM10.1222 13.8868C9.22709 13.8868 8.36854 13.5212 7.73548 12.8701C7.10265 12.2192 6.74693 11.3361 6.74693 10.4154C6.74693 9.49464 7.10267 8.61157 7.73548 7.96042C8.36854 7.30952 9.22709 6.94388 10.1222 6.94388C11.0174 6.94388 11.8757 7.30955 12.5088 7.96042C13.1418 8.61157 13.4973 9.49464 13.4973 10.4154C13.4969 11.3358 13.1411 12.2187 12.5083 12.8696C11.8753 13.5205 11.0172 13.8864 10.1222 13.8868Z" fill="#FF650C"/>
</svg>
