<svg width="15" height="17" viewBox="0 0 15 17" fill="none" xmlns="http://www.w3.org/2000/svg">
<path fill-rule="evenodd" clip-rule="evenodd" d="M11.4528 0.00461252C11.4528 0.00461252 11.4638 -0.000621263 11.4644 6.14166e-05C14.0821 1.81188 15.3632 5.07912 14.9104 8.22962L14.9049 8.2683C14.7692 9.25542 14.4589 10.2258 13.9692 11.1369L13.7668 11.4734C13.4383 10.5479 12.8777 9.71005 12.1141 9.07199C12.256 8.69721 12.2572 8.6988 12.1141 9.07199C11.9238 8.90338 11.7208 8.75614 11.5057 8.62257C10.6257 8.07667 9.65886 7.83748 8.71236 7.87459C8.31035 7.05903 8.09948 6.14561 8.10159 5.22106C9.54917 5.06018 11.052 5.33711 12.4284 6.10442L12.4316 6.1265C12.4558 6.29147 12.4558 6.29216 12.4318 6.12741L12.4316 6.1265L12.4299 6.1158L12.4282 6.10442C12.1922 4.49265 11.3033 3.00333 9.88512 2.12311C9.66919 1.98885 9.44776 1.87348 9.22271 1.77586C9.80952 0.959603 10.5888 0.358887 11.4525 0.00481874L11.4528 0.00461252Z" fill="#FF650C"/>
<path fill-rule="evenodd" clip-rule="evenodd" d="M14.4519 16.0693C14.4519 16.0693 14.4506 16.0821 14.4498 16.0828C11.6812 17.6135 8.40823 17.1725 6.09631 15.1755L6.06795 15.1512C5.34055 14.5313 4.71418 13.7571 4.22448 12.8461L4.05471 12.4893C4.96435 12.6465 5.91974 12.5434 6.81562 12.1513C7.04488 12.4713 7.04679 12.471 6.81562 12.1513C7.04658 12.0583 7.26674 11.9433 7.48204 11.81C8.36204 11.2636 9.038 10.4831 9.48153 9.58358C10.3397 9.61703 11.1808 9.87759 11.9247 10.3418C11.3307 11.77 10.3563 13.0306 9.04966 13.9283L9.03018 13.9206C8.88538 13.8605 8.88475 13.86 9.02933 13.9199L9.03018 13.9206L9.03928 13.9244L9.04966 13.9285C10.4661 14.5147 12.1105 14.4321 13.5287 13.5519C13.7446 13.4179 13.9485 13.2695 14.1396 13.1089C14.5037 14.0635 14.5981 15.0893 14.4516 16.0703L14.4519 16.0693Z" fill="#FF650C"/>
<path fill-rule="evenodd" clip-rule="evenodd" d="M0.00973798 10.8288C0.00973798 10.8288 0 10.8213 0 10.8204C0.150941 7.47782 2.14299 4.65186 4.90753 3.49785L4.94141 3.48397C5.8045 3.11669 6.74124 2.92054 7.72031 2.92054L8.09247 2.94079C7.51113 3.70904 7.11655 4.64997 6.98447 5.6799C6.61147 5.73542 6.61231 5.73337 6.98447 5.6799C6.94383 5.94136 6.92626 6.20419 6.92626 6.47111C6.92626 7.56314 7.21713 8.58282 7.72009 9.4455C7.2641 10.2274 6.63367 10.8805 5.88785 11.3406C5.03408 10.0733 4.5059 8.53615 4.43583 6.87073L4.45213 6.85685C4.57301 6.75194 4.57343 6.75172 4.45298 6.85616L4.45213 6.85685L4.4443 6.86345L4.43583 6.87073C3.25521 7.89652 2.49964 9.46851 2.49964 11.2288C2.49964 11.4971 2.51721 11.7609 2.5513 12.0189C1.59992 11.8807 0.726476 11.4557 0.0094899 10.8285L0.00973798 10.8288Z" fill="#FF650C"/>
</svg>
