<svg width="26" height="27" viewBox="0 0 26 27" fill="none" xmlns="http://www.w3.org/2000/svg">
<path d="M20.3591 1.35891H19.919V0.815347C19.919 0.365076 19.5488 0 19.0922 0C18.6356 0 18.2655 0.365076 18.2655 0.815347V1.35891H7.73566V0.815347C7.73566 0.365076 7.36548 0 6.90892 0C6.45235 0 6.08217 0.365076 6.08217 0.815347V1.35891H5.64111C2.53019 1.35891 0 3.85416 0 6.92201V21.4369C0 24.5048 2.53106 27 5.64181 27H12.5782C13.0348 27 13.405 26.6349 13.405 26.1847C13.405 25.7344 13.0348 25.3693 12.5782 25.3693H5.64122C3.44184 25.3693 1.65407 23.6053 1.65407 21.4371L1.65385 10.4621H24.3462V13.7627C24.3462 14.213 24.7164 14.5781 25.1729 14.5781C25.6295 14.5781 25.9997 14.213 25.9997 13.7627L25.9999 6.92195C25.9999 3.8541 23.4699 1.35891 20.3591 1.35891ZM1.65405 8.83101V6.92178C1.65405 4.75358 3.44181 2.98961 5.6412 2.98961H6.08136V3.53137C6.08136 3.98164 6.45154 4.34672 6.9081 4.34672C7.36467 4.34672 7.73485 3.98164 7.73485 3.53137L7.73507 2.98961H18.2643V3.53137C18.2643 3.98164 18.6345 4.34672 19.091 4.34672C19.5476 4.34672 19.9178 3.98164 19.9178 3.53137L19.918 2.98961H20.3582C22.5576 2.98961 24.3453 4.75358 24.3453 6.92178V8.83078L1.65405 8.83101Z" fill="#FF650C"/>
<path d="M7.82431 14.4184H6.53074C6.07417 14.4184 5.70399 14.7835 5.70399 15.2337C5.70399 15.684 6.07417 16.0491 6.53074 16.0491H7.82431C8.28087 16.0491 8.65105 15.684 8.65105 15.2337C8.65105 14.7835 8.28087 14.4184 7.82431 14.4184Z" fill="#FF650C"/>
<path d="M13.6468 14.4184H12.3532C11.8966 14.4184 11.5264 14.7835 11.5264 15.2337C11.5264 15.684 11.8966 16.0491 12.3532 16.0491H13.6468C14.1033 16.0491 14.4735 15.684 14.4735 15.2337C14.4737 14.7835 14.1033 14.4184 13.6468 14.4184Z" fill="#FF650C"/>
<path d="M7.82431 19.7825H6.53074C6.07417 19.7825 5.70399 20.1476 5.70399 20.5978C5.70399 21.0481 6.07417 21.4132 6.53074 21.4132H7.82431C8.28087 21.4132 8.65105 21.0481 8.65105 20.5978C8.65105 20.1476 8.28087 19.7825 7.82431 19.7825Z" fill="#FF650C"/>
<path d="M20.1975 15.5538C16.9976 15.5538 14.3939 18.1206 14.3939 21.2774C14.3939 24.4332 16.9974 26.9999 20.1975 26.9999C23.3964 26.9999 26 24.4332 26 21.2774C26.0002 18.1206 23.3965 15.5538 20.1975 15.5538ZM20.1975 25.3687C17.9099 25.3687 16.0476 23.533 16.0476 21.276C16.0476 19.019 17.9089 17.1834 20.1975 17.1834C22.486 17.1834 24.3465 19.019 24.3465 21.276C24.3465 23.533 22.4852 25.3687 20.1975 25.3687Z" fill="#FF650C"/>
<path d="M21.8996 20.4621H18.4931C18.0365 20.4621 17.6663 20.8272 17.6663 21.2775C17.6663 21.7278 18.0365 22.0928 18.4931 22.0928H21.8996C22.3562 22.0928 22.7264 21.7278 22.7264 21.2775C22.7264 20.8272 22.3571 20.4621 21.8996 20.4621Z" fill="#FF650C"/>
</svg>
