<svg width="25" height="25" viewBox="0 0 25 25" fill="none" xmlns="http://www.w3.org/2000/svg">
<path d="M0.267347 0.00153026C0.109979 0.0313703 -0.00274799 0.170366 5.30538e-05 0.330284V3.61959C5.30538e-05 3.80118 0.14747 3.9486 0.329068 3.9486H1.64484V10.5274H0.329068V10.5271C0.308409 10.5253 0.28775 10.5253 0.267346 10.5271C0.109978 10.5572 -0.00274899 10.6959 5.20576e-05 10.8561V14.1454C5.20576e-05 14.327 0.14747 14.4742 0.329068 14.4742H1.64484V21.0529H0.329068C0.308409 21.0511 0.28775 21.0511 0.267346 21.0529C0.109978 21.083 -0.00274998 21.2218 5.10613e-05 21.3819V24.6712V24.671C5.10613e-05 24.8528 0.147214 25 0.329067 25H3.6187H3.61844C3.80029 25 3.94746 24.8528 3.94746 24.671V23.3552H10.5263V24.671C10.5263 24.8528 10.6737 25 10.8553 25H14.145H14.1447C14.3266 25 14.4737 24.8528 14.4737 24.671V23.3552H21.0526V24.671C21.0526 24.8528 21.2 25 21.3816 25H24.6712H24.671C24.8528 25 25 24.8528 25 24.671V21.3817V21.3819C25 21.2003 24.8528 21.0529 24.671 21.0529H23.3552V14.4742H24.671C24.8528 14.4742 25 14.327 25 14.1454V10.8561C25 10.6745 24.8528 10.5271 24.671 10.5271H23.3552V3.94835H24.671V3.9486C24.8528 3.9486 25 3.80119 25 3.61959V0.330284C25 0.148696 24.8528 0.00153026 24.671 0.00153026H21.3814H21.3816C21.3612 -0.000510088 21.3405 -0.000510088 21.3199 0.00153026C21.1625 0.0313703 21.0498 0.170366 21.0526 0.330284V1.64603H14.4737V0.330284C14.4737 0.148696 14.3266 0.00153026 14.1447 0.00153026H10.8551H10.8553C10.8347 -0.000510088 10.814 -0.000510088 10.7936 0.00153026C10.6362 0.0313703 10.5235 0.170366 10.5263 0.330284V1.64603H3.94745V0.330284C3.94745 0.148696 3.80029 0.00153026 3.61844 0.00153026H0.328811H0.329066C0.308407 -0.000510088 0.287751 -0.000510088 0.267347 0.00153026ZM0.658083 0.659274H3.2897V3.29058H0.658083V0.659274ZM11.1845 0.659274H13.8161V3.29058H11.1845V0.659274ZM21.711 0.659274H24.3426V3.29058H21.711V0.659274ZM3.94752 2.30383H10.5264V3.61958C10.5264 3.80117 10.6738 3.94859 10.8554 3.94859H14.145H14.1448C14.3266 3.94859 14.4738 3.80118 14.4738 3.61958V2.30383H21.0527V3.61958C21.0527 3.80117 21.2001 3.94859 21.3817 3.94859H22.6974V10.5273H21.3817V10.5271C21.3613 10.5253 21.3406 10.5253 21.32 10.5271C21.1626 10.5572 21.0499 10.6959 21.0527 10.8561V14.1454C21.0527 14.327 21.2001 14.4742 21.3817 14.4742H22.6974V21.0529H21.3817C21.3613 21.0511 21.3406 21.0511 21.32 21.0529C21.1628 21.083 21.0499 21.2218 21.0527 21.3819V22.6977H14.4738V21.3819C14.4738 21.2003 14.3266 21.0529 14.1448 21.0529H10.8551H10.8554C10.8347 21.0511 10.8141 21.0511 10.7937 21.0529C10.6363 21.083 10.5236 21.2218 10.5264 21.3819V22.6977H3.94751V21.3819C3.94751 21.2003 3.80035 21.0529 3.6185 21.0529H2.30273V14.4742H3.6185C3.80035 14.4742 3.94751 14.327 3.94751 14.1454V10.8561C3.94751 10.6745 3.80035 10.5271 3.6185 10.5271H2.30273V3.94834H3.6185V3.94859C3.80035 3.94859 3.94751 3.80118 3.94751 3.61958L3.94752 2.30383ZM9.84806 9.54007C9.68916 9.54899 9.55934 9.67014 9.5397 9.82801C9.53868 9.84179 9.53868 9.8553 9.5397 9.86908V15.1319C9.5397 15.3135 9.68687 15.4609 9.86872 15.4609H15.1319C15.3135 15.4609 15.4606 15.3135 15.4606 15.1319V9.86908C15.4606 9.68749 15.3135 9.54007 15.1319 9.54007H9.86872L9.84806 9.54007ZM10.1975 10.1978H14.8029V14.8029H10.1975V10.1978ZM0.6576 11.1846H3.28921V13.8159H0.6576V11.1846ZM21.7105 11.1846H24.3421V13.8159H21.7105V11.1846ZM0.6576 21.7102H3.28921V24.3415H0.6576V21.7102ZM11.184 21.7102H13.8157V24.3415H11.184V21.7102ZM21.7105 21.7102H24.3421V24.3415H21.7105V21.7102Z" fill="#FF650C"/>
</svg>
