<svg width="44" height="31" viewBox="0 0 44 31" fill="none" xmlns="http://www.w3.org/2000/svg">
<path d="M11.112 31.008C9.192 31.008 7.432 30.496 5.832 29.472C4.296 28.448 3.08 27.04 2.184 25.248C1.288 23.456 0.84 21.376 0.84 19.008C0.84 16.96 1.224 14.976 1.992 13.056C2.76 11.072 3.848 9.248 5.256 7.584C6.728 5.856 8.424 4.352 10.344 3.07199C12.264 1.728 14.344 0.767998 16.584 0.191998L21 5.568C18.312 6.72 16.136 8.16 14.472 9.888C12.872 11.552 12.072 12.96 12.072 14.112C12.072 14.816 12.296 15.52 12.744 16.224C13.256 16.864 13.992 17.472 14.952 18.048C16.424 19.136 17.448 20.192 18.024 21.216C18.6 22.24 18.888 23.36 18.888 24.576C18.888 26.56 18.152 28.128 16.68 29.28C15.272 30.432 13.416 31.008 11.112 31.008ZM33.192 31.008C31.272 31.008 29.512 30.496 27.912 29.472C26.376 28.448 25.16 27.04 24.264 25.248C23.368 23.456 22.92 21.376 22.92 19.008C22.92 16.96 23.304 14.976 24.072 13.056C24.84 11.072 25.928 9.248 27.336 7.584C28.808 5.856 30.504 4.352 32.424 3.07199C34.344 1.728 36.424 0.767998 38.664 0.191998L43.08 5.568C40.392 6.72 38.216 8.16 36.552 9.888C34.952 11.552 34.152 12.96 34.152 14.112C34.152 14.816 34.376 15.52 34.824 16.224C35.336 16.864 36.072 17.472 37.032 18.048C38.504 19.136 39.528 20.192 40.104 21.216C40.68 22.24 40.968 23.36 40.968 24.576C40.968 26.56 40.232 28.128 38.76 29.28C37.352 30.432 35.496 31.008 33.192 31.008Z" fill="white"/>
</svg>
