<svg width="42" height="42" viewBox="0 0 42 42" fill="none" xmlns="http://www.w3.org/2000/svg">
<path d="M14.7003 30.0988C15.2574 30.0988 15.7915 29.8777 16.1852 29.4837C16.5792 29.09 16.8003 28.5559 16.8003 27.9988C16.8003 27.442 16.5792 26.908 16.1852 26.5142C15.7914 26.1202 15.2574 25.8991 14.7003 25.8991C14.1434 25.8991 13.6093 26.1202 13.2154 26.5142C12.8216 26.9079 12.6005 27.442 12.6005 27.9988C12.6005 28.556 12.8216 29.09 13.2154 29.4837C13.6094 29.8777 14.1435 30.0988 14.7003 30.0988ZM14.7003 27.299C14.9836 27.299 15.2389 27.4696 15.347 27.7311C15.4554 27.9926 15.3955 28.2938 15.1952 28.4937C14.9953 28.694 14.6941 28.7539 14.4326 28.6455C14.1708 28.5374 14.0004 28.2821 14.0004 27.9988C14.0004 27.6123 14.3137 27.299 14.7003 27.299Z" fill="white"/>
<path d="M40.7402 17.6345L37.8003 16.4577C37.4101 15.0167 36.8354 13.6324 36.09 12.3391L37.3408 9.42072H37.3411C37.4801 9.10355 37.528 8.75383 37.4801 8.41062C37.4319 8.06773 37.2896 7.7447 37.0685 7.47772C36.6953 7.02964 36.286 6.58324 35.8532 6.15142C35.4208 5.71963 34.9746 5.3113 34.5233 4.93359V4.93326C34.2566 4.71281 33.9336 4.5705 33.5906 4.52296C33.2474 4.47509 32.898 4.52361 32.5808 4.66331L29.6605 5.91341C28.367 5.16836 26.9827 4.59362 25.5417 4.20315L24.3652 1.25972C24.2388 0.937012 24.0252 0.655665 23.7487 0.446934C23.4719 0.238203 23.1427 0.110226 22.7979 0.0776644C21.6008 -0.0258881 20.3972 -0.0258881 19.2005 0.0776644C18.856 0.110553 18.5271 0.238528 18.2509 0.447258C17.9747 0.655989 17.7618 0.937337 17.6361 1.25972L16.4595 4.19956L16.4592 4.19989C15.0179 4.59 13.6333 5.16472 12.3391 5.90982L9.4207 4.6633C9.10384 4.5236 8.7541 4.47509 8.41089 4.52295C8.06799 4.57082 7.74495 4.71312 7.47821 4.9339C7.02947 5.30838 6.58303 5.71802 6.14828 6.15049C5.71353 6.58296 5.30254 7.0333 4.93165 7.48037V7.48069C4.71087 7.74771 4.56855 8.07074 4.52101 8.41393C4.47314 8.75683 4.52199 9.10656 4.66136 9.4237L5.91151 12.341C5.16546 13.6348 4.59034 15.0197 4.20085 16.4613L1.2609 17.6371H1.26057C0.938184 17.7628 0.656827 17.9755 0.448089 18.2516C0.239351 18.5277 0.111368 18.8563 0.0784805 19.2008C0.0267032 19.7779 0 20.3832 0 20.9993C0 21.6153 0.0267024 22.2207 0.0784805 22.7974C0.110719 23.1423 0.238375 23.4715 0.447113 23.7482C0.655851 24.0247 0.937209 24.238 1.25992 24.364L4.19988 25.5398H4.2002C4.58968 26.9814 5.16474 28.3663 5.91086 29.6598L4.6643 32.5774C4.5246 32.8946 4.47608 33.244 4.52362 33.5872C4.57149 33.9304 4.71347 34.2535 4.93426 34.5204C5.30517 34.9649 5.71418 35.4114 6.15089 35.8503C6.5876 36.2892 7.03081 36.6944 7.48081 37.0669H7.48114C7.74784 37.2883 8.07088 37.4306 8.41408 37.4788C8.75731 37.5267 9.10705 37.4782 9.42421 37.3385L12.3417 36.0884C13.6348 36.8334 15.0188 37.4082 16.4591 37.7986L17.6357 40.7385H17.636C17.7617 41.0615 17.9747 41.3432 18.2512 41.5523C18.5276 41.761 18.8568 41.8893 19.2017 41.9222C19.78 41.9739 20.3854 42 20.9999 42C21.6144 42 22.2201 41.9739 22.7997 41.9222C23.1446 41.889 23.4735 41.7607 23.7499 41.5516C24.0261 41.3429 24.239 41.0612 24.3651 40.7385L25.5416 37.7986C26.9826 37.4085 28.3669 36.8338 29.6603 36.0884L32.5788 37.3392V37.3395C32.8963 37.4782 33.2457 37.5261 33.5889 37.4779C33.9318 37.43 34.2549 37.2877 34.5219 37.0669C34.9699 36.6937 35.4164 36.2844 35.8518 35.8517C36.2872 35.4192 36.6919 34.9731 37.0697 34.5218H37.07C37.2904 34.2548 37.4324 33.9321 37.48 33.5889C37.5278 33.246 37.4793 32.8966 37.3399 32.5795L36.0898 29.6611V29.6614C36.8352 28.3674 37.41 26.9821 37.8001 25.5405L40.7401 24.364C41.0628 24.2377 41.3445 24.0244 41.5532 23.7476C41.7623 23.4708 41.8903 23.1419 41.9231 22.7968C41.9743 22.2191 42 21.6144 42 20.9993C42 20.3843 41.9739 19.7792 41.9222 19.1995H41.9225C41.8893 18.855 41.7613 18.5261 41.5526 18.25C41.3438 17.9735 41.0625 17.7605 40.7401 17.6345L40.7402 17.6345ZM40.5302 22.6707C40.5087 22.8488 40.3902 23.0003 40.2221 23.0634L36.9511 24.3718V24.3715C36.7417 24.4552 36.5854 24.6343 36.5313 24.8531C36.1467 26.4011 35.5312 27.8825 34.7063 29.2475C34.5898 29.4406 34.5735 29.6777 34.6621 29.8845L36.0503 33.1284C36.1242 33.2912 36.1017 33.4817 35.992 33.6231C35.6419 34.0431 35.2632 34.4554 34.8594 34.8585C34.4556 35.2616 34.041 35.6426 33.6258 35.989H33.6261C33.4848 36.0994 33.294 36.1225 33.1305 36.0486L29.8868 34.6585C29.68 34.5683 29.4419 34.5849 29.2498 34.7024C27.8847 35.5276 26.4031 36.1427 24.8549 36.5273C24.6364 36.5817 24.4569 36.738 24.3733 36.9474L23.0648 40.2177H23.0652C23.0023 40.3851 22.8519 40.5039 22.6744 40.5264C21.5613 40.6221 20.4425 40.6221 19.3294 40.5264C19.1512 40.5046 19.0001 40.3857 18.9366 40.2183L17.6282 36.9474C17.5449 36.738 17.3658 36.5817 17.1472 36.5273C15.5992 36.1427 14.1174 35.5276 12.752 34.7024C12.5589 34.5858 12.3215 34.5696 12.1144 34.6585L8.86964 36.0486C8.70649 36.1219 8.51599 36.0984 8.37498 35.9884C7.96043 35.6432 7.54557 35.2625 7.14076 34.8578C6.73631 34.4534 6.35335 34.0353 6.0095 33.6236V33.624C5.89943 33.4823 5.87663 33.2918 5.94991 33.1283L7.3401 29.8847L7.34043 29.8844C7.42933 29.6773 7.41272 29.4399 7.29614 29.2468C6.47096 27.8821 5.85584 26.4007 5.47119 24.853C5.41681 24.6342 5.26051 24.4551 5.05111 24.3714L1.78094 23.0634C1.61291 23.0009 1.49438 22.8498 1.47289 22.672C1.42436 22.1366 1.39994 21.5729 1.39994 20.9992C1.39994 20.4252 1.42436 19.8618 1.46995 19.3262C1.49145 19.1484 1.61031 18.9976 1.77801 18.9348L5.0491 17.6264V17.6267C5.25848 17.543 5.41479 17.3639 5.46918 17.1451C5.85377 15.5974 6.4689 14.1161 7.29413 12.7513C7.41071 12.5582 7.42699 12.3208 7.33809 12.1137L5.94989 8.87012C5.87662 8.70666 5.89942 8.51583 6.00949 8.37451C6.35304 7.96291 6.73339 7.54707 7.14142 7.13975C7.54945 6.73238 7.95911 6.3566 8.37497 6.00919C8.51597 5.8988 8.70648 5.876 8.86963 5.9496L12.1134 7.33975L12.1137 7.34007C12.3208 7.42897 12.5582 7.41236 12.7513 7.29579C14.1177 6.47031 15.6007 5.8552 17.1501 5.4709C17.3687 5.41652 17.5478 5.26022 17.6311 5.05083L18.9395 1.77987H18.9392C19.0027 1.61282 19.1532 1.49429 19.3306 1.47215C20.4434 1.37609 21.5623 1.37609 22.6753 1.47215C22.8531 1.49364 23.0046 1.61217 23.0677 1.77987L24.3761 5.05083C24.4598 5.26021 24.6389 5.41652 24.8578 5.4709C26.4059 5.85548 27.8873 6.47058 29.2524 7.29579C29.4451 7.41203 29.6822 7.42865 29.8893 7.34007L33.1298 5.94959C33.2926 5.87502 33.4835 5.89749 33.6245 6.00788C34.0445 6.35793 34.4568 6.73665 34.8599 7.14044C35.2631 7.54423 35.6441 7.95875 35.9905 8.37395C36.1006 8.51527 36.1237 8.70577 36.0501 8.86924L34.6599 12.1129V12.1132C34.571 12.32 34.5876 12.557 34.7039 12.7501C35.5291 14.1152 36.1442 15.5965 36.5288 17.1446C36.5832 17.3634 36.7395 17.5425 36.9489 17.6262L40.2193 18.9345V18.9342C40.3867 18.9971 40.5056 19.1475 40.528 19.325C40.5762 19.8626 40.5981 20.4253 40.5981 20.9987C40.5981 21.5718 40.5756 22.1352 40.53 22.6709L40.5302 22.6707Z" fill="white"/>
<path d="M21.0002 6.29889C17.2162 6.29303 13.5765 7.74897 10.8397 10.3625C8.1033 12.9757 6.48219 16.5449 6.31454 20.3251C6.14689 24.1052 7.44547 27.8039 9.93959 30.6495C9.97443 30.7019 10.0168 30.7491 10.065 30.7895C10.6768 31.4733 11.3513 32.0985 12.0794 32.657C12.1481 32.739 12.2347 32.8042 12.3331 32.8468C14.8431 34.6987 17.8804 35.6981 20.9997 35.6984C21.4709 35.6984 21.935 35.671 22.3948 35.6284H22.4075H22.4071C26.1618 35.2607 29.6312 33.4639 32.0975 30.6097C34.5636 27.7552 35.8385 24.0619 35.6574 20.2937C35.4767 16.5258 33.8543 12.9718 31.1258 10.3669C28.3972 7.76199 24.7718 6.30557 20.9994 6.29907L21.0002 6.29889ZM11.1998 29.9579V27.9979C11.2011 27.0702 11.5701 26.1805 12.2262 25.5244C12.8824 24.8682 13.7721 24.4993 14.6998 24.4983C15.6276 24.4999 16.5169 24.8692 17.1731 25.525C17.829 26.1811 18.1982 27.0704 18.1998 27.9978V31.4977H12.8667C12.2685 31.0327 11.711 30.5175 11.1997 29.9577L11.1998 29.9579ZM17.4004 13.9982H23.8993C23.7668 14.4554 23.7668 14.941 23.8993 15.3981H17.4004C17.533 14.9409 17.533 14.4554 17.4004 13.9982ZM26.5998 23.098C26.2285 23.098 25.8726 22.9505 25.6098 22.6881C25.3474 22.4256 25.1998 22.0694 25.1998 21.6981V20.2982H27.9997V21.6981C27.9997 22.0694 27.8525 22.4256 27.5897 22.6881C27.3273 22.9505 26.9713 23.098 26.5998 23.098ZM25.8996 17.3988H25.9C26.3572 17.5313 26.8427 17.5313 27.2999 17.3988V18.8983H25.9L25.8996 17.3988ZM26.5998 16.0985C26.2285 16.0985 25.8726 15.951 25.6098 15.6882C25.3474 15.4258 25.1998 15.0698 25.1998 14.6983C25.1998 14.3271 25.3473 13.9712 25.6098 13.7084C25.8726 13.4459 26.2285 13.2984 26.5998 13.2984C26.9713 13.2984 27.3273 13.4459 27.5897 13.7084C27.8525 13.9712 27.9997 14.3271 27.9997 14.6983C27.9997 15.0698 27.8525 15.4258 27.5897 15.6882C27.3273 15.951 26.9713 16.0985 26.5998 16.0985ZM14.6994 16.0985C14.3282 16.0985 13.9722 15.951 13.7094 15.6882C13.447 15.4258 13.2995 15.0698 13.2995 14.6983C13.2995 14.3271 13.447 13.9712 13.7094 13.7084C13.9722 13.4459 14.3282 13.2984 14.6994 13.2984C15.071 13.2984 15.4269 13.4459 15.6894 13.7084C15.9522 13.9712 16.0997 14.3271 16.0997 14.6983C16.0997 15.0698 15.9522 15.4258 15.6894 15.6882C15.4269 15.951 15.071 16.0985 14.6994 16.0985ZM13.9993 17.3991L13.9996 17.3988C14.4568 17.5313 14.9424 17.5313 15.3995 17.3988V23.1534C14.9358 23.0791 14.4634 23.0791 13.9996 23.1534L13.9993 17.3991ZM15.0957 32.8978H20.9996C21.1852 32.8978 21.363 32.9714 21.4946 33.1027C21.6258 33.2339 21.6994 33.412 21.6994 33.5976V34.2619C21.4663 34.2746 21.236 34.2977 20.9993 34.2977H20.9996C18.9497 34.2958 16.9281 33.8165 15.0957 32.8978ZM23.0994 34.1151V33.5977C23.0994 33.0408 22.8783 32.5068 22.4846 32.1128C22.0906 31.7191 21.5565 31.4977 20.9997 31.4977H19.5994V27.9978C19.5991 27.0711 19.3356 26.1635 18.84 25.3804C18.3444 24.5973 17.637 23.9708 16.7995 23.5735V16.7984H24.4997V19.0927C24.0679 19.3409 23.8012 19.8003 23.7995 20.2982V21.6981C23.8018 22.3172 24.0092 22.918 24.3893 23.4064C24.769 23.8952 25.3001 24.2439 25.8996 24.3986V25.8981C25.8996 26.2846 26.2129 26.5979 26.5994 26.5979C26.9863 26.5979 27.2995 26.2846 27.2995 25.8981V24.3986C27.8987 24.2439 28.4299 23.8951 28.8099 23.4064C29.1899 22.9179 29.3973 22.3172 29.3996 21.6981V20.2982C29.398 19.8003 29.1313 19.3409 28.6995 19.0927V16.531C29.1482 16.026 29.3973 15.374 29.3996 14.6984C29.3996 13.9559 29.1046 13.2438 28.5793 12.7185C28.0544 12.1936 27.3422 11.8986 26.5994 11.8986C25.9237 11.9009 25.272 12.1497 24.767 12.5987H16.5321C15.817 11.966 14.8277 11.7439 13.9107 12.0096C12.9937 12.2757 12.2766 12.9927 12.0106 13.9097C11.7448 14.8267 11.9669 15.8159 12.5997 16.531V23.5777C11.7628 23.9747 11.0555 24.6006 10.5601 25.3827C10.0645 26.1652 9.80073 27.0721 9.79943 27.9978V28.1421C7.73155 24.9043 7.16559 20.9299 8.24742 17.2433C9.32891 13.5568 11.9526 10.5183 15.4426 8.91102C18.9322 7.30371 22.9468 7.28445 26.4509 8.85859C29.9559 10.4327 32.6086 13.4458 33.7252 17.1219C34.8422 20.798 34.314 24.7775 32.2771 28.0348C30.2398 31.2924 26.8932 33.5097 23.0994 34.1151Z" fill="white"/>
</svg>
