<svg width="43" height="40" viewBox="0 0 43 40" fill="none" xmlns="http://www.w3.org/2000/svg">
<path d="M42.4704 34.7828H39.9079C39.617 34.7828 39.3815 35.0183 39.3815 35.3092V36.385H38.0432C37.7523 36.385 37.5168 36.6204 37.5168 36.9114L37.5173 39.4737C37.5173 39.7647 37.7527 40.0001 38.0436 40.0001H41.1896C41.3296 40.0001 41.463 39.9446 41.5617 39.8459L42.843 38.5645C42.9414 38.4661 42.9969 38.3322 42.9969 38.1923V35.3087C42.9969 35.0182 42.7614 34.7827 42.4705 34.7827L42.4704 34.7828ZM41.944 37.9744L40.9713 38.9477H38.5695V37.4378H39.9079C40.1988 37.4378 40.4342 37.2024 40.4342 36.9114V35.8357L41.944 35.8353L41.944 37.9744Z" fill="white"/>
<path d="M42.8448 25.6463L41.5635 24.3649C41.4648 24.2666 41.3313 24.2111 41.1914 24.2111H38.0454C37.7545 24.2111 37.519 24.4465 37.519 24.7375V27.3002C37.519 27.5912 37.7545 27.8266 38.0454 27.8266H39.3837V28.9024C39.3837 29.1933 39.6192 29.4288 39.9101 29.4288L42.4726 29.4284C42.7635 29.4284 42.999 29.1929 42.999 28.9019V26.0184C42.999 25.8788 42.9435 25.745 42.8447 25.6462L42.8448 25.6463ZM41.9463 28.376H40.4366V27.3003C40.4366 27.0093 40.2011 26.7738 39.9102 26.7738H38.5719V25.2635H40.9736L41.9463 26.2364L41.9463 28.376Z" fill="white"/>
<path d="M38.5113 29.3443L37.0497 27.8821C37.0134 27.8454 36.9681 27.8217 36.9236 27.7977V21.2121L39.8391 21.2117C40.0643 21.2117 40.2642 21.0688 40.3369 20.8558C40.4099 20.6432 40.3393 20.4077 40.1618 20.2694L26.9812 10.0152L26.8421 9.90947C26.6507 9.76501 26.3871 9.76705 26.199 9.91355L22.1451 13.0684V3.44464C22.1451 3.15367 21.9097 2.91821 21.6187 2.91821H20.6639V0.526401C20.6639 0.235435 20.4285 -2.80204e-05 20.1375 -2.80204e-05H17.6746C17.3837 -2.80204e-05 17.1482 0.235435 17.1482 0.526401V2.91853H14.7526L14.7534 0.526401C14.7534 0.235435 14.518 -2.80204e-05 14.227 -2.80204e-05C13.9361 -2.80204e-05 13.7006 0.235435 13.7006 0.526401V2.91853H10.8129V1.40739C10.8129 0.631215 10.1816 -0.00012207 9.40551 -0.00012207H4.27231C3.49622 -0.00012207 2.86453 0.631183 2.86453 1.40739V2.91853H1.42091C1.12997 2.91853 0.894531 3.15399 0.894531 3.44495V36.9366C0.894531 37.2275 1.12997 37.463 1.42091 37.463H6.63569L21.6171 37.4626C21.6179 37.4626 21.6188 37.463 21.6196 37.463H22.1986V38.1951C22.1986 38.3351 22.2541 38.4685 22.3528 38.5673L23.6316 39.8462C23.7304 39.9445 23.8638 40 24.0037 40H27.1506C27.4415 40 27.6769 39.7646 27.6769 39.4736V37.463H36.3976C36.6885 37.463 36.9239 37.2275 36.9239 36.9366V31.6756L38.5116 30.0878C38.7164 29.8821 38.7164 29.5491 38.5112 29.3439L38.5113 29.3443ZM18.2014 1.0531H19.6116V2.91881H18.2014V1.0531ZM3.91775 1.40772C3.91775 1.21225 4.07688 1.0531 4.27274 1.0531H9.40594C9.60139 1.0531 9.76052 1.21225 9.76052 1.40772V2.91886H3.91774L3.91775 1.40772ZM6.11012 36.41H4.31803V32.3618H6.11012V36.41ZM21.0926 14.0317C21.08 14.0774 21.0604 14.1215 21.0604 14.1705V18.3639C21.0604 18.4211 21.0734 18.4745 21.0926 18.5256V23.3666C21.0922 23.3748 21.0881 23.3813 21.0881 23.3895V31.2745C21.0881 31.2826 21.0922 31.2892 21.0926 31.2969V36.4105H7.16202V31.836C7.16202 31.545 6.92658 31.3095 6.63564 31.3095H3.79124C3.5003 31.3095 3.26486 31.545 3.26486 31.836V36.4105H1.94733V3.97092H3.38854C3.38936 3.97092 3.39017 3.97133 3.39099 3.97133H10.2865C10.2873 3.97133 10.2881 3.97092 10.289 3.97092H14.2241C14.2249 3.97092 14.2257 3.97133 14.2266 3.97133C14.2274 3.97133 14.2282 3.97092 14.229 3.97092H17.6721C17.6729 3.97092 17.6737 3.97133 17.6745 3.97133H20.1374C20.1383 3.97133 20.1391 3.97092 20.1399 3.97092H21.0923L21.0926 14.0317ZM22.1449 14.4043L26.5253 10.9952L38.303 20.1595H36.402C36.4003 20.1595 36.3987 20.1583 36.3966 20.1583H34.8901L29.4269 16.255L26.8383 14.4052C26.8375 14.4044 26.8362 14.4044 26.8354 14.4039C26.8334 14.4027 26.8309 14.4023 26.8289 14.4007C26.7391 14.3386 26.6302 14.3072 26.5204 14.3089C26.4641 14.3097 26.4082 14.3187 26.3547 14.3358C26.325 14.3452 26.2997 14.3635 26.2723 14.3778C26.2511 14.3893 26.227 14.3962 26.2074 14.4109L26.2062 14.4117C26.2058 14.4121 26.205 14.4121 26.2046 14.4125L25.9345 14.6059L22.1442 17.3148L22.1449 14.4043ZM22.7248 29.4269H24.3113C23.7812 30.11 23.0079 30.5707 22.1454 30.7062V27.8582H22.1985V28.9004C22.1985 29.1914 22.4338 29.4269 22.7248 29.4269ZM23.2511 28.3745V26.2341L24.2215 25.2637H26.624V26.7744H25.2872C24.9963 26.7744 24.7609 27.0099 24.7609 27.3009V28.3745H23.2511ZM22.3526 25.644C22.2539 25.7427 22.1984 25.8762 22.1984 26.0162V26.8058H22.1453V23.9573C22.6338 24.0345 23.0981 24.2169 23.5057 24.4907L22.3526 25.644ZM26.624 38.9481H24.2215L23.2512 37.9777V35.8377H24.7609V36.9113C24.7609 37.2023 24.9963 37.4378 25.2873 37.4378H26.624V38.9481ZM28.2452 36.4111H27.3149C27.2631 36.3939 27.208 36.3849 27.1505 36.3849H25.8137V35.3113C25.8137 35.0203 25.5783 34.7849 25.2873 34.7849H22.7249C22.4339 34.7849 22.1985 35.0203 22.1985 35.3113V36.4111H22.1454V31.7618C23.6344 31.5843 24.9373 30.6665 25.6093 29.3068C25.7309 29.2105 25.8133 29.068 25.8133 28.9007V28.8346C25.9328 28.5094 26.0128 28.1727 26.0516 27.8271H27.1501C27.441 27.8271 27.6765 27.5916 27.6765 27.3006L27.6769 24.7371C27.6769 24.4461 27.4414 24.2107 27.1505 24.2107H24.794C24.0856 23.4814 23.1533 23.0178 22.1455 22.8971V18.6098L26.0231 15.8548L26.5347 15.4827L34.4165 21.1137C34.5054 21.1774 34.6123 21.2113 34.7217 21.2113H35.8703V28.3135L34.3858 29.7981V27.5843C34.3858 27.2933 34.1504 27.0578 33.8595 27.0578H28.7703C28.4794 27.0578 28.244 27.2933 28.244 27.5843V31.8132C28.0897 31.8099 27.9355 31.8666 27.8298 31.9944L26.5033 33.5843C26.4139 33.6916 26.3707 33.8299 26.3829 33.9687C26.3956 34.1078 26.4629 34.2364 26.5698 34.3258L28.2435 35.7214L28.2452 36.4111ZM33.3339 28.1111V30.8513L30.5812 33.6043L29.2975 32.5335V28.1115L33.3339 28.1111ZM33.3339 36.3898H32.2106L33.3339 35.2664V36.3898ZM35.8707 36.4111H34.3862V34.2136L35.8707 32.729V36.4111ZM36.0254 31.0856C36.0254 31.0856 36.0249 31.0856 36.0249 31.086L33.4894 33.6222C33.489 33.6226 33.4886 33.6226 33.4882 33.623L31.1807 35.9315L30.1941 35.9764L29.1086 35.0709C29.1082 35.0705 29.1074 35.0701 29.107 35.0697L27.6503 33.8544L28.302 33.0733L30.2764 34.7208C30.327 34.7628 30.3838 34.7934 30.4429 34.8138C30.4642 34.8212 30.4862 34.8208 30.5078 34.8252C30.5429 34.8326 30.5776 34.8436 30.6135 34.8436C30.6172 34.8436 30.6208 34.8416 30.6245 34.8416C30.669 34.8407 30.7114 34.8285 30.7543 34.8163C30.7751 34.8105 30.7967 34.8101 30.8167 34.802C30.8783 34.7763 30.9358 34.7395 30.9856 34.6898L36.6762 28.9986L37.3952 29.7173L36.0254 31.0856Z" fill="white"/>
<path d="M6.84037 7.35242H4.37745C4.08651 7.35242 3.85107 7.58788 3.85107 7.87884V10.342C3.85107 10.633 4.08651 10.8684 4.37745 10.8684H6.84037C7.13131 10.8684 7.36675 10.633 7.36675 10.342V7.87884C7.36675 7.58788 7.13131 7.35242 6.84037 7.35242ZM6.314 9.81558H4.90381V8.40525H6.314V9.81558Z" fill="white"/>
<path d="M12.751 7.35242H10.2881C9.99716 7.35242 9.76172 7.58788 9.76172 7.87884V10.342C9.76172 10.633 9.99716 10.8684 10.2881 10.8684H12.751C13.042 10.8684 13.2774 10.633 13.2774 10.342L13.277 7.87884C13.277 7.58788 13.042 7.35242 12.751 7.35242ZM12.2246 9.81558H10.8145V8.40525H12.2246V9.81558Z" fill="white"/>
<path d="M18.6578 7.35242H16.1948C15.9039 7.35242 15.6685 7.58788 15.6685 7.87884V10.342C15.6685 10.633 15.9039 10.8684 16.1948 10.8684H18.6578C18.9487 10.8684 19.1841 10.633 19.1841 10.342V7.87884C19.1841 7.58788 18.9487 7.35242 18.6578 7.35242ZM18.1318 9.81558H16.7216V8.40525H18.1318V9.81558Z" fill="white"/>
<path d="M6.84037 13.2638H4.37745C4.08651 13.2638 3.85107 13.4993 3.85107 13.7902V16.2525C3.85107 16.5435 4.08651 16.779 4.37745 16.779H6.84037C7.13131 16.779 7.36675 16.5435 7.36675 16.2525V13.7902C7.36675 13.4993 7.13131 13.2638 6.84037 13.2638ZM6.314 15.7261H4.90381V14.3162H6.314V15.7261Z" fill="white"/>
<path d="M12.751 13.2638H10.2881C9.99716 13.2638 9.76172 13.4993 9.76172 13.7902V16.2525C9.76172 16.5435 9.99716 16.779 10.2881 16.779H12.751C13.042 16.779 13.2774 16.5435 13.2774 16.2525V13.7902C13.277 13.4993 13.042 13.2638 12.751 13.2638ZM12.2246 15.7261H10.8145V14.3162H12.2246V15.7261Z" fill="white"/>
<path d="M18.6578 13.2638H16.1948C15.9039 13.2638 15.6685 13.4993 15.6685 13.7902V16.2525C15.6685 16.5435 15.9039 16.779 16.1948 16.779H18.6578C18.9487 16.779 19.1841 16.5435 19.1841 16.2525V13.7902C19.1841 13.4993 18.9487 13.2638 18.6578 13.2638ZM18.1318 15.7261H16.7216V14.3162H18.1318V15.7261Z" fill="white"/>
<path d="M6.84037 19.1741H4.37745C4.08651 19.1741 3.85107 19.4095 3.85107 19.7005V22.1637C3.85107 22.4546 4.08651 22.6901 4.37745 22.6901H6.84037C7.13131 22.6901 7.36675 22.4546 7.36675 22.1637V19.7005C7.36675 19.4091 7.13131 19.1741 6.84037 19.1741ZM6.314 21.6368H4.90381V20.2265H6.314V21.6368Z" fill="white"/>
<path d="M12.751 19.1741H10.2881C9.99716 19.1741 9.76172 19.4095 9.76172 19.7005V22.1637C9.76172 22.4546 9.99716 22.6901 10.2881 22.6901H12.751C13.042 22.6901 13.2774 22.4546 13.2774 22.1637V19.7005C13.277 19.4091 13.042 19.1741 12.751 19.1741ZM12.2246 21.6368H10.8145V20.2265H12.2246V21.6368Z" fill="white"/>
<path d="M18.6578 19.1741H16.1948C15.9039 19.1741 15.6685 19.4095 15.6685 19.7005V22.1637C15.6685 22.4546 15.9039 22.6901 16.1948 22.6901H18.6578C18.9487 22.6901 19.1841 22.4546 19.1841 22.1637V19.7005C19.1841 19.4091 18.9487 19.1741 18.6578 19.1741ZM18.1318 21.6368H16.7216V20.2265H18.1318V21.6368Z" fill="white"/>
<path d="M6.84037 24.1011H4.37745C4.08651 24.1011 3.85107 24.3365 3.85107 24.6275V29.0605C3.85107 29.3515 4.08651 29.587 4.37745 29.587H6.84037C7.13131 29.587 7.36675 29.3515 7.36675 29.0605V24.6275C7.36675 24.3365 7.13131 24.1011 6.84037 24.1011ZM6.314 28.5341H4.90381V25.1536H6.314V28.5341Z" fill="white"/>
<path d="M12.751 24.1011H10.2881C9.99716 24.1011 9.76172 24.3365 9.76172 24.6275V29.0605C9.76172 29.3515 9.99716 29.587 10.2881 29.587H12.751C13.042 29.587 13.2774 29.3515 13.2774 29.0605V24.6275C13.277 24.3365 13.042 24.1011 12.751 24.1011ZM12.2246 28.5341H10.8145V25.1536H12.2246V28.5341Z" fill="white"/>
<path d="M18.6578 24.1011H16.1948C15.9039 24.1011 15.6685 24.3365 15.6685 24.6275V29.0605C15.6685 29.3515 15.9039 29.587 16.1948 29.587H18.6578C18.9487 29.587 19.1841 29.3515 19.1841 29.0605V24.6275C19.1841 24.3365 18.9487 24.1011 18.6578 24.1011ZM18.1318 28.5341H16.7216V25.1536H18.1318V28.5341Z" fill="white"/>
</svg>
