<svg width="42" height="37" viewBox="0 0 42 37" fill="none" xmlns="http://www.w3.org/2000/svg">
<path d="M41.828 3.49974C41.7172 3.38811 41.5565 3.27201 41.4143 3.32783L9.85581 3.48114L9.85544 3.09712C9.85544 1.3608 7.69074 0 4.92772 0C2.1647 0 0 1.3608 0 3.09712V32.0517C0 32.1335 0.0169925 32.2113 0.0472828 32.282C0.169556 34.9009 2.30542 37 4.93917 37L34.4588 36.8151C35.3479 36.8151 36.1329 36.3938 36.6522 35.7493C36.6626 35.74 36.6759 35.7363 36.6855 35.7262L41.3628 30.8482C41.3827 30.8273 41.3912 30.8006 41.4075 30.7775C41.7758 30.3957 42 29.8937 42 29.3467V3.91582C42 3.75953 41.9376 3.61069 41.8282 3.50016L41.828 3.49974ZM1.1657 3.09711C1.1657 2.1873 2.71015 1.17437 4.92724 1.17437C7.14433 1.17437 8.68878 2.18728 8.68878 3.09711L8.69764 28.8738C7.79003 27.8025 6.44396 27.1208 4.93422 27.0906H4.93126C3.41045 27.1002 2.0662 27.8214 1.16528 28.9214V3.09711H1.1657ZM8.69436 31.7449C8.71837 32.1632 8.64597 32.7307 8.15689 33.063C7.90939 33.2319 7.44727 33.3595 7.08309 33.3595C6.21981 33.3595 5.51718 32.6261 5.51718 31.7249V28.3122C7.08451 28.5671 8.36559 29.8077 8.65742 31.4082L8.69288 31.643C8.69436 31.6836 8.69436 31.7379 8.69436 31.7449ZM37.2901 33.4042V31.7006C37.9144 31.7665 38.4407 31.749 38.9217 31.7029L37.2901 33.4042ZM40.8341 29.3466C40.8341 29.689 40.638 30.0001 40.3251 30.1575C39.7134 30.4626 38.6029 30.7592 36.8051 30.4485C36.6344 30.4168 36.4608 30.4656 36.3315 30.5787C36.2007 30.6903 36.1239 30.8537 36.1239 31.0271V33.9768C36.1239 34.8937 35.3773 35.6402 34.4542 35.6402L4.93463 35.8251C2.86969 35.8251 1.19002 34.1331 1.19002 32.0516C1.19002 30.1772 2.56415 28.6229 4.35135 28.3278V31.7248C4.35135 33.2736 5.57739 34.5343 7.08344 34.5343C7.67928 34.5343 8.37483 34.3322 8.81002 34.0341C9.52628 33.5474 9.90311 32.702 9.85762 31.7453C9.85873 31.7323 9.86501 31.7211 9.86501 31.7077L9.85577 4.65553L40.8336 4.50483L40.8341 29.3466Z" fill="white"/>
<path d="M12.7383 29.1517H36.994C37.3152 29.1517 37.5767 28.8867 37.5767 28.5612L37.5771 8.43949C37.5771 8.11395 37.3156 7.84901 36.9944 7.84901L12.7387 7.84863C12.4175 7.84863 12.156 8.11356 12.156 8.43912V28.5608C12.156 28.8864 12.4174 29.1517 12.7387 29.1517H12.7383ZM21.557 9.02999H36.4116V14.3646H34.4272C33.9638 12.9801 32.6714 12.018 31.1914 12.018C30.8702 12.018 30.6087 12.2829 30.6087 12.6085V14.3646H27.9973C27.676 14.3646 27.4146 14.6295 27.4146 14.9551V16.0227H21.5574L21.557 9.02999ZM13.3214 25.4358H13.6187C13.9399 25.4358 14.2014 25.1709 14.2014 24.8453C14.2014 24.5198 13.9399 24.2548 13.6187 24.2548H13.3214V14.6313H16.8841C17.2053 14.6313 17.4668 14.3663 17.4668 14.0408C17.4668 13.7152 17.2053 13.4503 16.8841 13.4503H13.3214V9.03023H20.3913V16.6137C20.3913 16.9393 20.6527 17.2042 20.974 17.2042H27.9969C28.3182 17.2042 28.5796 16.9393 28.5796 16.6137V15.5461H31.191C31.5123 15.5461 31.7737 15.2812 31.7737 14.9556V13.2758C32.5954 13.4992 33.2452 14.1821 33.4059 15.0638C33.4572 15.3433 33.6987 15.5465 33.9786 15.5465H36.4109V22.8838H30.5526C30.2313 22.8838 29.9699 23.1487 29.9699 23.4743C29.9699 23.7998 30.2313 24.0648 30.5526 24.0648H36.4109V27.9703H27.3098V22.7308C27.3098 22.4053 27.0483 22.1403 26.7271 22.1403H20.0057C19.6845 22.1403 19.4231 22.4053 19.4231 22.7308V24.2549H18.1521C17.8308 24.2549 17.5694 24.5198 17.5694 24.8454C17.5694 25.1709 17.8308 25.4359 18.1521 25.4359H20.0057C20.327 25.4359 20.5884 25.171 20.5884 24.8454V23.3213H26.1443V27.9703L13.3212 27.9699L13.3214 25.4358Z" fill="white"/>
<path d="M15.9477 24.667H14.9958C14.6488 24.667 14.3665 24.9185 14.3665 25.2276C14.3665 25.5367 14.6488 25.7882 14.9958 25.7882H15.9477C16.2946 25.7882 16.577 25.5367 16.577 25.2276C16.577 24.9189 16.2946 24.667 15.9477 24.667Z" fill="white"/>
</svg>
