<svg width="176" height="39" viewBox="0 0 176 39" fill="none" xmlns="http://www.w3.org/2000/svg">
<path d="M55.864 20.448C55.864 19.0613 56.12 17.7067 56.632 16.384C57.144 15.04 57.8907 13.824 58.872 12.736C59.8533 11.648 61.048 10.784 62.456 10.144C63.864 9.48267 65.464 9.152 67.256 9.152C69.3893 9.152 71.2347 9.61067 72.792 10.528C74.3707 11.4453 75.544 12.64 76.312 14.112L72.28 16.928C71.9387 16.1173 71.48 15.488 70.904 15.04C70.3493 14.592 69.7307 14.2827 69.048 14.112C68.3867 13.92 67.7467 13.824 67.128 13.824C66.1253 13.824 65.2507 14.0267 64.504 14.432C63.7573 14.816 63.1387 15.3387 62.648 16C62.1573 16.6613 61.7947 17.3973 61.56 18.208C61.3253 19.0187 61.208 19.8293 61.208 20.64C61.208 21.536 61.3467 22.4 61.624 23.232C61.9013 24.064 62.296 24.8 62.808 25.44C63.3413 26.08 63.9813 26.592 64.728 26.976C65.4747 27.3387 66.296 27.52 67.192 27.52C67.832 27.52 68.4827 27.4133 69.144 27.2C69.8053 26.9867 70.4133 26.656 70.968 26.208C71.544 25.7387 71.9813 25.1307 72.28 24.384L76.568 26.912C76.12 28.0213 75.384 28.9707 74.36 29.76C73.336 30.5493 72.1733 31.1573 70.872 31.584C69.592 31.9893 68.3227 32.192 67.064 32.192C65.4213 32.192 63.9067 31.8613 62.52 31.2C61.1547 30.5173 59.9707 29.6213 58.968 28.512C57.9867 27.3813 57.2187 26.1227 56.664 24.736C56.1307 23.328 55.864 21.8987 55.864 20.448ZM86.6663 32.32C85.2369 32.32 83.9569 32.0853 82.8263 31.616C81.7169 31.1467 80.7783 30.5067 80.0103 29.696C79.2423 28.8853 78.6556 27.9573 78.2503 26.912C77.8663 25.8667 77.6743 24.768 77.6743 23.616C77.6743 22.4427 77.8663 21.3333 78.2503 20.288C78.6556 19.2427 79.2423 18.3147 80.0103 17.504C80.7783 16.6933 81.7169 16.0533 82.8263 15.584C83.9569 15.1147 85.2369 14.88 86.6663 14.88C88.0956 14.88 89.3649 15.1147 90.4743 15.584C91.5836 16.0533 92.5223 16.6933 93.2903 17.504C94.0583 18.3147 94.6449 19.2427 95.0503 20.288C95.4556 21.3333 95.6583 22.4427 95.6583 23.616C95.6583 24.768 95.4556 25.8667 95.0503 26.912C94.6449 27.9573 94.0583 28.8853 93.2903 29.696C92.5223 30.5067 91.5836 31.1467 90.4743 31.616C89.3649 32.0853 88.0956 32.32 86.6663 32.32ZM82.9223 23.616C82.9223 24.4907 83.0823 25.2587 83.4023 25.92C83.7436 26.5813 84.1916 27.0933 84.7463 27.456C85.3009 27.8187 85.9409 28 86.6663 28C87.3703 28 87.9996 27.8187 88.5543 27.456C89.1303 27.072 89.5783 26.5493 89.8983 25.888C90.2183 25.2267 90.3783 24.4693 90.3783 23.616C90.3783 22.7413 90.2183 21.9733 89.8983 21.312C89.5783 20.6507 89.1303 20.1387 88.5543 19.776C87.9996 19.4133 87.3703 19.232 86.6663 19.232C85.9409 19.232 85.3009 19.4133 84.7463 19.776C84.1916 20.1387 83.7436 20.6507 83.4023 21.312C83.0823 21.9733 82.9223 22.7413 82.9223 23.616ZM114.39 32H109.27V22.56C109.27 21.4507 109.056 20.6507 108.63 20.16C108.224 19.648 107.68 19.392 106.998 19.392C106.528 19.392 106.048 19.52 105.558 19.776C105.067 20.032 104.619 20.384 104.214 20.832C103.83 21.28 103.531 21.792 103.318 22.368V32H98.1975V15.2H102.806V18.016C103.232 17.3547 103.766 16.7893 104.406 16.32C105.046 15.8507 105.782 15.4987 106.614 15.264C107.446 15.008 108.352 14.88 109.334 14.88C110.422 14.88 111.296 15.0827 111.958 15.488C112.64 15.872 113.152 16.384 113.494 17.024C113.856 17.664 114.091 18.3573 114.198 19.104C114.326 19.8293 114.39 20.544 114.39 21.248V32ZM124.223 32.32C122.794 32.32 121.397 32.0853 120.031 31.616C118.666 31.1467 117.514 30.4533 116.575 29.536L118.335 26.304C119.359 27.0507 120.351 27.616 121.311 28C122.293 28.384 123.21 28.576 124.063 28.576C124.725 28.576 125.237 28.4693 125.599 28.256C125.962 28.0427 126.143 27.712 126.143 27.264C126.143 26.944 126.037 26.6987 125.823 26.528C125.61 26.336 125.279 26.1653 124.831 26.016C124.405 25.8667 123.871 25.7067 123.231 25.536C121.951 25.1093 120.885 24.6933 120.031 24.288C119.178 23.8827 118.538 23.392 118.111 22.816C117.685 22.2187 117.471 21.4507 117.471 20.512C117.471 19.3813 117.749 18.4 118.303 17.568C118.879 16.7147 119.69 16.0533 120.735 15.584C121.781 15.1147 123.029 14.88 124.479 14.88C125.631 14.88 126.751 15.0613 127.839 15.424C128.949 15.7867 129.983 16.3947 130.943 17.248L128.959 20.448C127.999 19.7867 127.146 19.3067 126.399 19.008C125.653 18.7093 124.927 18.56 124.223 18.56C123.861 18.56 123.53 18.6027 123.231 18.688C122.933 18.7733 122.687 18.9227 122.495 19.136C122.325 19.328 122.239 19.584 122.239 19.904C122.239 20.224 122.325 20.48 122.495 20.672C122.687 20.864 122.975 21.0347 123.359 21.184C123.765 21.312 124.266 21.472 124.863 21.664C126.25 22.0693 127.402 22.4853 128.319 22.912C129.237 23.3173 129.919 23.8293 130.367 24.448C130.837 25.0453 131.071 25.8453 131.071 26.848C131.071 28.5547 130.453 29.8987 129.215 30.88C127.999 31.84 126.335 32.32 124.223 32.32ZM144.453 31.104C143.983 31.296 143.461 31.488 142.885 31.68C142.33 31.872 141.743 32.0213 141.125 32.128C140.506 32.256 139.898 32.32 139.301 32.32C138.447 32.32 137.658 32.1813 136.933 31.904C136.229 31.6053 135.663 31.1253 135.237 30.464C134.831 29.8027 134.629 28.928 134.629 27.84V19.072H132.485V15.2H134.629V9.856H139.749V15.2H143.173V19.072H139.749V26.08C139.749 26.6347 139.887 27.04 140.165 27.296C140.442 27.5307 140.794 27.648 141.22 27.648C141.583 27.648 141.967 27.584 142.373 27.456C142.799 27.328 143.162 27.1893 143.461 27.04L144.453 31.104ZM157.104 19.584C155.866 19.584 154.746 19.7867 153.744 20.192C152.741 20.576 152.016 21.152 151.568 21.92V32H146.448V15.2H151.152V18.592C151.728 17.4613 152.474 16.576 153.392 15.936C154.309 15.296 155.269 14.9653 156.272 14.944C156.506 14.944 156.677 14.944 156.784 14.944C156.912 14.944 157.018 14.9547 157.104 14.976V19.584ZM167.167 32.32C165.738 32.32 164.468 32.0853 163.359 31.616C162.25 31.1467 161.3 30.5067 160.511 29.696C159.743 28.8853 159.156 27.9573 158.751 26.912C158.346 25.8667 158.143 24.7573 158.143 23.584C158.143 22.048 158.495 20.6187 159.199 19.296C159.924 17.9733 160.959 16.9067 162.303 16.096C163.647 15.2853 165.268 14.88 167.167 14.88C169.087 14.88 170.708 15.296 172.031 16.128C173.375 16.9387 174.378 18.0053 175.039 19.328L170.047 20.832C169.727 20.32 169.311 19.9253 168.799 19.648C168.308 19.3707 167.754 19.232 167.135 19.232C166.431 19.232 165.791 19.4133 165.215 19.776C164.66 20.1387 164.212 20.64 163.871 21.28C163.551 21.92 163.391 22.688 163.391 23.584C163.391 24.4587 163.562 25.2267 163.903 25.888C164.244 26.5493 164.692 27.072 165.247 27.456C165.802 27.8187 166.431 28 167.135 28C167.562 28 167.956 27.936 168.319 27.808C168.703 27.6587 169.044 27.456 169.343 27.2C169.663 26.944 169.908 26.656 170.079 26.336L175.071 27.872C174.666 28.7253 174.079 29.4933 173.311 30.176C172.564 30.8373 171.679 31.36 170.655 31.744C169.631 32.128 168.468 32.32 167.167 32.32Z" fill="white"/>
<path d="M26.8272 1.30859L22.1163 4.44922V26.5244L19.7599 27.9766V6.01953L15.0489 9.16113V30.4004L12.6935 31.8525V21.0938L7.71982 24.3418V34.6689L5.36435 36.1211V23.0332L12.6935 18.3574V7.85254L24.8643 0L26.8272 1.30859ZM31.8009 4.53027V20.8086L26.8272 23.9492V1.30859L31.8009 4.53027ZM39.0636 8.98047V16.752L34.0909 19.8926V5.75879L39.0636 8.98047Z" fill="#FF650C"/>
<path d="M31.9312 39.0002H27.0894V32.718L31.9312 28.6613V39.0002ZM38.9986 39.0002H34.1568V25.258L38.9986 21.2014V39.0002ZM46.1968 24.342V39.0002H41.3541V21.2014L46.1968 24.342Z" fill="#FF650C"/>
<path d="M5.36621 39.0001H0L48.8154 10.9933L5.36621 39.0001ZM22.7715 39.0001H17.4062L39 21.2013L22.7715 39.0001Z" fill="white"/>
</svg>
