<svg width="52" height="57" viewBox="0 0 52 57" fill="none" xmlns="http://www.w3.org/2000/svg">
<path d="M17 28.5663L23 34.5149L35 22.6177M50 28.5663C50 41.8349 33.62 51.4496 27.9242 54.3921C27.3083 54.7103 27.0002 54.8694 26.573 54.9518C26.24 55.0161 25.76 55.0161 25.427 54.9518C24.9998 54.8694 24.6917 54.7103 24.0758 54.3921C18.3799 51.4496 2 41.8349 2 28.5663V17.3164C2 14.9384 2 13.7494 2.39228 12.7274C2.73881 11.8245 3.30194 11.0189 4.03298 10.3801C4.8605 9.6571 5.9834 9.23963 8.2292 8.40466L24.3146 2.42436C24.9383 2.19248 25.25 2.07654 25.571 2.03056C25.8554 1.98981 26.1446 1.98981 26.429 2.03056C26.75 2.07654 27.0617 2.19248 27.6854 2.42436L43.7708 8.40466C46.0166 9.23963 47.1395 9.6571 47.9669 10.3801C48.698 11.0189 49.2611 11.8245 49.6076 12.7274C50 13.7494 50 14.9384 50 17.3164V28.5663Z" stroke="#FF650C" stroke-width="3" stroke-linecap="round" stroke-linejoin="round"/>
</svg>
