<svg width="54" height="44" viewBox="0 0 54 44" fill="none" xmlns="http://www.w3.org/2000/svg">
<path d="M53.1818 27C52.7302 27 52.3636 27.3046 52.3636 27.68V41.96C52.3636 42.334 51.9955 42.64 51.5455 42.64H31.0909V31.76C31.0909 31.3846 30.7244 31.08 30.2727 31.08C29.8211 31.08 29.4545 31.3846 29.4545 31.76V42.64H24.5455V31.76C24.5455 31.3846 24.1789 31.08 23.7273 31.08C23.2756 31.08 22.9091 31.3846 22.9091 31.76V42.64H2.45455C2.00455 42.64 1.63636 42.334 1.63636 41.96V27.68C1.63636 27.3046 1.26982 27 0.818182 27C0.366545 27 0 27.3046 0 27.68V41.96C0 43.0847 1.10127 44 2.45455 44H51.5455C52.8987 44 54 43.0847 54 41.96V27.68C54 27.3046 53.6335 27 53.1818 27Z" fill="#FF650C"/>
<path d="M51.5455 6.82803H37.6364V2.04841C37.6364 0.919053 36.5351 0 35.1818 0H18.8182C17.4649 0 16.3636 0.919053 16.3636 2.04841V6.82803H2.45455C1.10127 6.82803 0 7.74708 0 8.87644V22.5325C0 23.6618 1.10127 24.5809 2.45455 24.5809H22.9091V25.586C22.9091 27.4692 24.7435 29 27 29C29.2565 29 31.0909 27.4692 31.0909 25.586V24.5809H51.5455C52.8987 24.5809 54 23.6618 54 22.5325V8.87644C54 7.74708 52.8987 6.82803 51.5455 6.82803ZM18 2.04841C18 1.67287 18.3682 1.36561 18.8182 1.36561H35.1818C35.6318 1.36561 36 1.67287 36 2.04841V6.82803H18V2.04841ZM29.4545 25.586C29.4545 26.7153 28.3533 27.6344 27 27.6344C25.6467 27.6344 24.5455 26.7153 24.5455 25.586V24.5809H29.4545V25.586ZM52.3636 22.5325C52.3636 22.908 51.9955 23.2153 51.5455 23.2153H2.45455C2.00455 23.2153 1.63636 22.908 1.63636 22.5325V8.87644C1.63636 8.50089 2.00455 8.19363 2.45455 8.19363H22.9091V20.4841C22.9091 20.861 23.2756 21.1669 23.7273 21.1669C24.1789 21.1669 24.5455 20.861 24.5455 20.4841V8.19363H29.4545V20.4841C29.4545 20.861 29.8211 21.1669 30.2727 21.1669C30.7244 21.1669 31.0909 20.861 31.0909 20.4841V8.19363H51.5455C51.9955 8.19363 52.3636 8.50089 52.3636 8.87644V22.5325Z" fill="#FF650C"/>
</svg>
