<svg width="64" height="65" viewBox="0 0 64 65" fill="none" xmlns="http://www.w3.org/2000/svg">
<path d="M58.817 60.6985C57.3657 63.3299 54.5992 65 51.6129 65C48.4015 65 45.5701 63.1108 44.2126 60.32C40.8248 63.3425 36.5502 65 32 65C22.8015 65 15.0039 58.0429 13.6568 48.9293C12.9177 49.1505 12.1455 49.2742 11.3548 49.2742C7.43019 49.2742 4.06916 46.4551 3.27845 42.6127C1.31716 41.8359 0 39.9236 0 37.7419C0 34.8515 2.31535 32.5 5.16129 32.5H17.5484C18.049 32.5 18.5342 32.5671 19.0018 32.6824C19.2052 32.479 19.4044 32.2694 19.6129 32.0785V31.4516H17.5484V29.3548H19.6129V27.2581H17.5484V25.1613H19.6129V20.9677H21.6774V14.6774H17.5484V12.5806H19.1855L17.6733 11.0448C16.927 10.2868 16.5161 9.27927 16.5161 8.20678C16.5161 6.25782 17.8932 4.63178 19.7099 4.27113C20.16 1.84412 22.2555 0 24.7742 0H39.2258C41.7445 0 43.84 1.84412 44.2901 4.27113C46.1068 4.63178 47.4839 6.25782 47.4839 8.20678C47.4839 9.27823 47.073 10.2868 46.3267 11.0448L44.8145 12.5806H46.4516V14.6774H42.3226V20.9677H44.3871V25.1613H46.4516V27.2581H44.3871V29.3548H46.4516V31.4516H44.3871V32.0785C48.3293 35.664 50.5806 40.7561 50.5806 46.129C50.5806 46.8115 50.5239 47.5108 50.4413 48.2258H57.8064C61.2222 48.2258 64 51.047 64 54.5161C64 57.5963 61.7683 60.2047 58.817 60.6985ZM17.5484 34.5968H5.16129C3.45394 34.5968 2.06452 36.0079 2.06452 37.7419C2.06452 39.1929 3.03897 40.4447 4.43458 40.7875L5.12723 40.9573L5.216 41.6765C5.6031 44.8123 8.24155 47.1774 11.3548 47.1774C13.7414 47.1774 15.9401 45.7548 16.959 43.5521L17.2181 42.9933L17.824 42.9514C19.9845 42.8035 21.6774 40.9762 21.6774 38.7903C21.6774 36.4776 19.8255 34.5968 17.5484 34.5968ZM20.8227 6.29033H20.4676C19.4271 6.29033 18.5806 7.15 18.5806 8.20678C18.5806 8.71105 18.7819 9.20589 19.1329 9.56234L20.6452 11.0982L22.1574 9.56234C22.5084 9.20589 22.7097 8.7121 22.7097 8.20678C22.7097 7.15 21.8632 6.29033 20.8227 6.29033ZM39.2258 2.09678H24.7742C23.3775 2.09678 22.207 3.04662 21.823 4.34032C23.5159 4.79323 24.7742 6.34798 24.7742 8.20678C24.7742 9.27823 24.3634 10.2868 23.617 11.0448L22.1048 12.5806H41.8952L40.383 11.0448C39.6366 10.2868 39.2258 9.27927 39.2258 8.20678C39.2258 6.34694 40.4841 4.79323 42.177 4.34032C41.793 3.04662 40.6225 2.09678 39.2258 2.09678ZM23.7419 14.6774V20.9677H40.2581V14.6774H23.7419ZM43.3548 11.0982L44.8671 9.56234C45.2181 9.20589 45.4194 8.7121 45.4194 8.20678C45.4194 7.15 44.5729 6.29033 43.5324 6.29033H43.1773C42.1368 6.29033 41.2903 7.15 41.2903 8.20678C41.2903 8.71105 41.4916 9.20589 41.8426 9.56234L43.3548 11.0982ZM42.3226 23.0645H21.6774V25.1613H42.3226V23.0645ZM42.3226 27.2581H21.6774V29.3548H42.3226V27.2581ZM42.687 33.3523L42.3226 33.0389V31.4516H33.0323V40.993C35.3848 41.4805 37.1613 43.5972 37.1613 46.129C37.1613 49.0194 34.8459 51.371 32 51.371C29.1541 51.371 26.8387 49.0194 26.8387 46.129C26.8387 43.5982 28.6152 41.4805 30.9677 40.993V31.4516H21.6774V33.0399L21.313 33.3544C21.2232 33.432 21.1396 33.5274 21.0498 33.6081C22.6746 34.7425 23.7419 36.6411 23.7419 38.7903C23.7419 41.8705 21.5102 44.4789 18.559 44.9727C17.8519 46.2538 16.8299 47.3011 15.6263 48.0444C16.5719 56.4252 23.6315 62.9032 32 62.9032C36.2777 62.9032 40.2787 61.2478 43.3652 58.2547C41.503 57.4359 40.2581 55.5834 40.2581 53.4677C40.2581 50.5773 42.5734 48.2258 45.4194 48.2258H48.3603C48.4532 47.5045 48.5161 46.8042 48.5161 46.129C48.5161 41.21 46.3907 36.552 42.687 33.3523ZM32 42.9839C30.2926 42.9839 28.9032 44.395 28.9032 46.129C28.9032 47.8631 30.2926 49.2742 32 49.2742C33.7074 49.2742 35.0968 47.8631 35.0968 46.129C35.0968 44.395 33.7074 42.9839 32 42.9839ZM57.8064 50.3226H45.4194C43.712 50.3226 42.3226 51.7337 42.3226 53.4677C42.3226 54.9187 43.297 56.1705 44.6926 56.5133L45.3853 56.6831L45.4741 57.4023C45.8612 60.5381 48.4996 62.9032 51.6129 62.9032C53.9995 62.9032 56.1982 61.4806 57.217 59.2779L57.4761 58.7191L58.0821 58.6772C60.2426 58.5294 61.9355 56.702 61.9355 54.5161C61.9355 52.2034 60.0836 50.3226 57.8064 50.3226Z" fill="#FF5C00"/>
</svg>
