<svg width="116" height="116" viewBox="0 0 116 116" fill="none" xmlns="http://www.w3.org/2000/svg">
<path d="M5.21503 76.7703C4.32015 73.8294 3.86775 70.7678 3.86775 67.6667C3.86775 67.3995 3.87944 67.1738 3.88483 66.9283C7.17383 67.5776 10.7596 68.1146 14.5749 68.5328C14.6064 70.8389 14.7836 73.1305 15.0678 75.3996H9.66793V79.2661H75.8898C78.3415 79.2661 80.7617 79.5062 83.1344 79.9352V92.7992C83.1344 93.8623 83.9924 94.7266 85.0582 94.7329L108.027 94.8453C109.201 96.3284 110.286 97.8933 111.255 99.5492C111.264 99.5663 111.274 99.5852 111.286 99.6031C111.868 100.603 111.874 101.797 111.298 102.799C110.722 103.801 109.687 104.4 108.534 104.4H15.4705V108.266H108.534C111.091 108.266 113.379 106.941 114.651 104.722C115.914 102.522 115.914 99.9025 114.658 97.7046C114.645 97.6848 114.634 97.6641 114.621 97.6443C106.616 83.9241 91.7774 75.3997 75.892 75.3997H68.7474C69.3158 72.8707 69.6036 70.2805 69.6036 67.6668C69.6036 66.4004 69.5514 65.3526 69.4408 64.4164C67.7958 46.4313 52.9049 32.8661 34.8033 32.8661C16.7025 32.8661 1.8121 46.4307 0.172789 64.3681C0.0567679 65.3529 0.00460482 66.4007 0.00460482 67.6661C0.00460482 71.1476 0.515462 74.5895 1.51915 77.8958L5.21503 76.7703ZM86.9989 80.8283C93.5834 82.6955 99.6226 86.1815 104.526 90.96L86.9989 90.8755V80.8283ZM32.867 44.4083V51.3893C28.7622 51.3507 24.7572 51.1906 20.9152 50.9117C21.81 48.0795 22.9478 45.4255 24.2852 42.9773C26.8178 43.7661 29.7345 44.2635 32.867 44.4083ZM44.5183 43.2229C45.808 45.6207 46.9061 48.2109 47.7742 50.972C44.2116 51.2113 40.517 51.3525 36.7334 51.3876V44.4084C39.5368 44.278 42.1791 43.8741 44.5183 43.2229ZM54.0445 64.7508C53.8799 61.2243 53.4159 57.7723 52.6793 54.4554C56.0088 54.1379 59.1863 53.7305 62.1829 53.2376C63.7487 56.2361 64.8254 59.5415 65.3451 63.0589C61.9023 63.7523 58.1033 64.3208 54.0435 64.7507L54.0445 64.7508ZM36.7332 69.5778C41.3631 69.5338 45.8889 69.3341 50.214 68.9887C50.1655 71.1473 49.9946 73.2906 49.7131 75.3996H36.7332L36.7332 69.5778ZM50.1887 65.1122C45.8853 65.463 41.3649 65.6663 36.7332 65.7104V55.2559C40.8729 55.2172 44.9148 55.0589 48.7992 54.7783C49.5663 58.0881 50.0358 61.5577 50.1887 65.1122ZM32.8667 55.2557V65.7102C27.9023 65.6616 23.0617 65.4368 18.4829 65.0365C18.6412 61.4894 19.1152 58.0221 19.8868 54.7161C24.0473 55.0354 28.4049 55.2134 32.8667 55.2557ZM14.63 64.6517C10.9165 64.2344 7.43501 63.7011 4.25308 63.0589C4.76843 59.5415 5.84137 56.2352 7.40991 53.2376C10.136 53.6882 13.005 54.0732 16.0106 54.3745C15.2704 57.6861 14.7982 61.1315 14.63 64.6517ZM18.4541 68.9113C23.0552 69.3061 27.902 69.5292 32.8667 69.5759V75.3995H18.9588C18.6728 73.2571 18.5001 71.0923 18.4534 68.9112L18.4541 68.9113ZM53.605 75.3995C53.8838 73.1691 54.0592 70.9107 54.0943 68.6324C58.2547 68.2007 62.1598 67.6287 65.7161 66.9272C65.7215 67.1727 65.7332 67.3967 65.7332 67.6656C65.7332 70.2892 65.3888 72.882 64.7475 75.3986L53.605 75.3995ZM59.9905 49.6767C57.3598 50.0751 54.5817 50.3998 51.7009 50.6633C50.779 47.5532 49.6053 44.6104 48.1916 41.8952C48.9075 41.5588 49.5487 41.1864 50.154 40.7916C54.0439 43.0032 57.4003 46.0305 59.9905 49.6767ZM45.749 38.7166C42.8412 39.8903 38.9145 40.5999 34.8008 40.5999C30.687 40.5999 26.7594 39.8903 23.8507 38.7166C27.2576 37.4431 30.9442 36.7334 34.8008 36.7334C38.6582 36.7334 42.3421 37.443 45.749 38.7166ZM19.4462 40.7897C19.8339 41.0424 20.2521 41.279 20.6874 41.5092C19.1953 44.3081 17.9578 47.3535 16.9945 50.5822C14.4322 50.3349 11.9626 50.0327 9.60333 49.6747C12.1945 46.0313 15.5501 43.0014 19.4462 40.7897Z" fill="#FF650C"/>
<path d="M32.8669 94.734C33.9363 94.734 34.8006 93.867 34.8006 92.8003V85.0674C34.8006 84.0007 33.9372 83.1337 32.8669 83.1337H21.2667C20.1974 83.1337 19.333 84.0007 19.333 85.0674V92.8003C19.333 93.867 20.1965 94.734 21.2667 94.734H32.8669ZM23.2005 87.001H30.9334V90.8675H23.2005V87.001Z" fill="#FF650C"/>
<path d="M54.132 94.734C55.2013 94.734 56.0656 93.867 56.0656 92.8003V85.0674C56.0656 84.0007 55.2022 83.1337 54.132 83.1337H42.5318C41.4624 83.1337 40.5981 84.0007 40.5981 85.0674V92.8003C40.5981 93.867 41.4615 94.734 42.5318 94.734H54.132ZM44.4656 87.001H52.1984V90.8675H44.4656V87.001Z" fill="#FF650C"/>
<path d="M75.3994 94.734C76.4687 94.734 77.333 93.867 77.333 92.8003V85.0674C77.333 84.0007 76.4696 83.1337 75.3994 83.1337H63.7991C62.7298 83.1337 61.8655 84.0007 61.8655 85.0674V92.8003C61.8655 93.867 62.7289 94.734 63.7991 94.734H75.3994ZM65.7329 87.001H73.4658V90.8675H65.7329V87.001Z" fill="#FF650C"/>
<path d="M1.93402 83.1342H11.6005V87.0007H1.93402V83.1342Z" fill="#FF650C"/>
<path d="M0 112.133H46.3982V116H0V112.133Z" fill="#FF650C"/>
<path d="M50.2662 112.133H54.1327V116H50.2662V112.133Z" fill="#FF650C"/>
<path d="M58 112.133H116V116H58V112.133Z" fill="#FF650C"/>
<path d="M1.93402 102.466H11.6005V106.332H1.93402V102.466Z" fill="#FF650C"/>
<path d="M0 92.7999H11.6002V96.6664H0V92.7999Z" fill="#FF650C"/>
<path d="M63.9127 33.6985L75.7323 40.2657L82.2979 52.0855C82.6334 52.689 83.2647 53.0686 83.9545 53.0812H83.9878C84.6668 53.0812 85.2973 52.725 85.6445 52.144L89.7474 45.3078C90.1143 44.6953 90.1143 43.9317 89.7474 43.3175L86.4844 37.8789L95.4916 30.1289L109.724 44.5343C110.158 44.975 110.776 45.1765 111.387 45.0865C111.998 44.9939 112.528 44.6152 112.812 44.0675L115.775 38.3708C116.072 37.8042 116.066 37.1261 115.764 36.5612L106.745 19.8147L112.694 14.2365C114.155 12.7768 114.959 10.8342 114.959 8.77007C114.959 6.70416 114.155 4.76152 112.694 3.30086C109.678 0.28696 104.773 0.285118 101.713 3.34493L96.1797 9.24954L79.4368 0.232256C78.8819 -0.0681431 78.2173 -0.0771451 77.656 0.205275L72.1887 2.93942C71.6365 3.21823 71.248 3.74348 71.1464 4.35236C71.0447 4.96304 71.2435 5.58633 71.6788 6.02702L85.9222 20.4461L78.1182 29.5128L72.6815 26.2498C72.0699 25.8829 71.3027 25.8829 70.6912 26.2498L63.8551 30.3502C63.2642 30.7055 62.9062 31.3486 62.9179 32.0393C62.9269 32.7318 63.3065 33.3641 63.9118 33.6987L63.9127 33.6985ZM71.6861 30.1621L77.5266 33.6653C78.3369 34.1501 79.3748 33.981 79.9856 33.2687L90.0153 21.6153C90.6728 20.8517 90.6314 19.7122 89.9245 18.9954L76.2998 5.20421L78.487 4.11235L95.1229 13.0721L95.1436 13.091C95.5123 13.4615 96.0124 13.6594 96.5439 13.6576C97.0682 13.6504 97.5629 13.4273 97.9217 13.0469L104.491 6.03526C105.995 4.53057 108.453 4.52698 109.96 6.03526C110.69 6.76558 111.093 7.73601 111.093 8.77125C111.093 9.80466 110.691 10.7733 110.007 11.4623L102.952 18.0766C102.571 18.4345 102.348 18.9292 102.341 19.4509C102.334 19.9725 102.535 20.4753 102.901 20.8467L111.876 37.4945L110.609 39.93L96.9744 26.1306C96.263 25.4075 95.1127 25.3616 94.3393 26.0236L82.7283 36.0132C82.0141 36.6257 81.8469 37.6662 82.3316 38.4722L85.8366 44.3128L84.0522 47.2843L78.8439 37.9055C78.6677 37.5881 78.4068 37.3299 78.0912 37.1528L68.7125 31.9426L71.6861 30.1621Z" fill="#FF650C"/>
<path d="M3.86805 5.1544e-10H7.73449V3.86649H3.86805V5.1544e-10Z" fill="#FF650C"/>
<path d="M0 3.8681H3.86644V7.73459H0V3.8681Z" fill="#FF650C"/>
<path d="M3.86805 7.7339H7.73449V11.6004H3.86805V7.7339Z" fill="#FF650C"/>
<path d="M7.73379 3.8681H11.6002V7.73459H7.73379V3.8681Z" fill="#FF650C"/>
<path d="M48.3345 9.66795H52.2009V13.5344H48.3345V9.66795Z" fill="#FF650C"/>
<path d="M44.4664 13.5337H48.3329V17.4002H44.4664V13.5337Z" fill="#FF650C"/>
<path d="M48.3345 17.3995H52.2009V21.266H48.3345V17.3995Z" fill="#FF650C"/>
<path d="M52.2002 13.5337H56.0667V17.4002H52.2002V13.5337Z" fill="#FF650C"/>
<path d="M108.266 61.8666H112.133V65.7331H108.266V61.8666Z" fill="#FF650C"/>
<path d="M104.398 65.7347H108.265V69.6012H104.398V65.7347Z" fill="#FF650C"/>
<path d="M108.266 69.6005H112.133V73.467H108.266V69.6005Z" fill="#FF650C"/>
<path d="M112.132 65.7347H115.998V69.6012H112.132V65.7347Z" fill="#FF650C"/>
</svg>
