<svg width="116" height="116" viewBox="0 0 116 116" fill="none" xmlns="http://www.w3.org/2000/svg">
<path d="M114.187 25.3747H85.1873V10.8745H88.8127C89.293 10.8745 89.7544 10.6839 90.0944 10.3439C90.4344 10.0039 90.625 9.54343 90.625 9.06226V1.81229C90.625 1.33202 90.4344 0.870629 90.0944 0.530648C89.7544 0.190667 89.293 0 88.8127 0H27.1873C26.1862 0 25.3741 0.811246 25.3741 1.81229V9.06226C25.3741 9.54343 25.5657 10.0039 25.9056 10.3439C26.2456 10.6839 26.7061 10.8745 27.1873 10.8745H30.8118V25.3747H1.81229C0.811252 25.3747 0 26.1869 0 27.1879V38.0624C0 38.5427 0.190672 39.0041 0.530649 39.3441C0.870631 39.684 1.33202 39.8747 1.81229 39.8747H5.43775V92.4375C5.43506 92.9196 5.62393 93.3828 5.96299 93.7245L9.58753 97.349H9.58843C9.93021 97.689 10.3934 97.8779 10.8746 97.8752H34.438V94.2497H11.6724L9.06229 91.6397V39.8759H106.938V63.4392H110.562L110.563 39.8759H114.188C114.668 39.8759 115.129 39.6852 115.469 39.3452C115.809 39.0052 116 38.5438 116 38.0636V27.1891C116 26.7079 115.809 26.2474 115.469 25.9074C115.129 25.5674 114.668 25.3759 114.188 25.3759L114.187 25.3747ZM29.0002 7.25002V3.62457H86.9993V7.25002H29.0002ZM81.5632 10.8745V25.3747H34.4387V10.8745H81.5632ZM112.375 36.2499H3.62479V28.9999H112.375V36.2499Z" fill="#FF650C"/>
<path d="M63.4358 63.4367V48.9365C63.4358 47.9751 63.0544 47.0532 62.3745 46.3732C61.6945 45.6942 60.7726 45.3119 59.8111 45.3119H56.1857C55.2242 45.3119 54.3023 45.6942 53.6223 46.3732C52.9433 47.0531 52.561 47.975 52.561 48.9365V63.4367H56.1856V48.9365H59.8101V63.4367H63.4358Z" fill="#FF650C"/>
<path d="M92.4376 63.4367V48.9365C92.4376 47.9751 92.0563 47.0532 91.3763 46.3732C90.6963 45.6942 89.7745 45.3119 88.813 45.3119H85.1875C84.226 45.3119 83.3042 45.6942 82.6242 46.3732C81.9442 47.0531 81.5629 47.975 81.5629 48.9365V63.4367H85.1874V48.9365H88.812V63.4367H92.4376Z" fill="#FF650C"/>
<path d="M27.1881 45.3118C26.2266 45.3118 25.3038 45.694 24.6247 46.3731C23.9448 47.053 23.5625 47.9749 23.5625 48.9364V85.1863C23.5625 86.1477 23.9448 87.0696 24.6247 87.7496C25.3038 88.4295 26.2266 88.8118 27.1881 88.8118H30.8126C31.7741 88.8118 32.696 88.4295 33.3759 87.7496C34.0559 87.0696 34.4381 86.1478 34.4381 85.1863V48.9364C34.4381 47.9749 34.0559 47.053 33.3759 46.3731C32.696 45.694 31.7741 45.3118 30.8126 45.3118H27.1881ZM30.8126 85.1857H27.1881V48.9358H30.8126V85.1857Z" fill="#FF650C"/>
<path d="M14.4992 45.3118H18.1237V48.9363H14.4992V45.3118Z" fill="#FF650C"/>
<path d="M14.4992 85.188H18.1237V88.8125H14.4992V85.188Z" fill="#FF650C"/>
<path d="M14.4992 52.5622H18.1237V81.5616H14.4992V52.5622Z" fill="#FF650C"/>
<path d="M41.6867 45.3118H45.3112V48.9363H41.6867V45.3118Z" fill="#FF650C"/>
<path d="M41.6867 52.5622H45.3112V63.4367H41.6867V52.5622Z" fill="#FF650C"/>
<path d="M70.6862 45.3118H74.3108V48.9363H70.6862V45.3118Z" fill="#FF650C"/>
<path d="M70.6862 52.5622H74.3108V63.4367H70.6862V52.5622Z" fill="#FF650C"/>
<path d="M97.8737 45.3118H101.498V48.9363H97.8737V45.3118Z" fill="#FF650C"/>
<path d="M97.8737 52.5622H101.498V63.4367H97.8737V52.5622Z" fill="#FF650C"/>
<path d="M114.187 68.8751H41.6866C40.6856 68.8751 39.8744 69.6864 39.8744 70.6874V114.188C39.8744 114.668 40.0659 115.129 40.405 115.469C40.745 115.809 41.2064 116 41.6866 116H114.187C114.667 116 115.128 115.809 115.468 115.469C115.808 115.129 115.999 114.668 115.999 114.188V70.6874C115.999 70.2071 115.808 69.7457 115.468 69.4057C115.128 69.0658 114.667 68.8751 114.187 68.8751ZM112.374 112.375H43.4984V72.5015H112.374V112.375Z" fill="#FF650C"/>
<path d="M48.9371 96.0625H106.939V99.687H48.9371V96.0625Z" fill="#FF650C"/>
<path d="M101.5 103.313H105.125V106.937H101.5V103.313Z" fill="#FF650C"/>
<path d="M48.9371 103.313H97.8737V106.937H48.9371V103.313Z" fill="#FF650C"/>
<path d="M50.7492 88.8121H72.4994C72.9797 88.8121 73.4411 88.6205 73.7811 88.2805C74.1201 87.9406 74.3117 87.4801 74.3117 86.9989V79.7489C74.3117 79.2687 74.1201 78.8073 73.7811 78.4673C73.4411 78.1282 72.9797 77.9366 72.4994 77.9366H50.7492C49.7481 77.9366 48.936 78.7479 48.936 79.7489V86.9989C48.936 87.4801 49.1276 87.9406 49.4675 88.2805C49.8075 88.6205 50.268 88.8121 50.7492 88.8121ZM52.5615 81.5621H70.6862V85.1866H52.5615V81.5621Z" fill="#FF650C"/>
<path d="M94.2496 88.8121C95.5915 88.804 96.8823 88.3003 97.8751 87.3982C98.9202 88.348 100.294 88.8543 101.705 88.8094C103.117 88.7644 104.455 88.1717 105.438 87.1572C106.42 86.1436 106.97 84.7864 106.97 83.3743C106.97 81.9622 106.42 80.6051 105.438 79.5904C104.455 78.5768 103.117 77.9841 101.705 77.9391C100.294 77.8941 98.9202 78.4005 97.8751 79.3503C96.5458 78.1424 94.7064 77.6684 92.9589 78.0848C91.2122 78.5003 89.7822 79.7514 89.14 81.4287C88.4978 83.106 88.7245 84.9922 89.7462 86.469C90.7688 87.9458 92.4544 88.822 94.2496 88.8121ZM101.5 81.5621C102.233 81.5621 102.894 82.0037 103.174 82.681C103.455 83.3582 103.3 84.138 102.781 84.656C102.263 85.1741 101.483 85.3297 100.806 85.0491C100.129 84.7684 99.6873 84.1074 99.6873 83.3744C99.6873 82.3733 100.499 81.5621 101.5 81.5621ZM94.2496 81.5621C94.9826 81.5621 95.6437 82.0037 95.9243 82.681C96.2049 83.3582 96.0502 84.138 95.5313 84.656C95.0132 85.1741 94.2334 85.3297 93.5562 85.0491C92.8789 84.7684 92.4373 84.1074 92.4373 83.3744C92.4373 82.3733 93.2486 81.5621 94.2496 81.5621Z" fill="#FF650C"/>
</svg>
