<svg width="58" height="58" viewBox="0 0 58 58" fill="none" xmlns="http://www.w3.org/2000/svg">
<mask id="mask0_111_916" style="mask-type:luminance" maskUnits="userSpaceOnUse" x="0" y="0" width="55" height="58">
<path d="M0 0H54.7878V57.9997H0V0Z" fill="white"/>
</mask>
<g mask="url(#mask0_111_916)">
<path d="M54.3938 56.9843V10.7789C54.3938 10.4884 54.1573 10.2519 53.8659 10.2519H50.4392V0.526346C50.4392 0.235847 50.2035 -0.000244141 49.9126 -0.000244141H28.4653C28.4536 -0.000244141 28.4451 0.00560018 28.4334 0.00604985C28.3853 0.00874808 28.3394 0.0181932 28.2935 0.0339327C28.2774 0.0393291 28.2603 0.0442743 28.2441 0.0514691C28.1897 0.076202 28.1375 0.10948 28.0925 0.15355L22.7016 5.54403C22.6022 5.64341 22.5469 5.77697 22.5469 5.91638V13.3363L20.8191 15.0641C20.7198 15.1635 20.6644 15.297 20.6644 15.4369V22.0982H5.72619C5.71494 22.0982 5.7064 22.1036 5.69426 22.1045C5.64614 22.1068 5.59892 22.1167 5.5535 22.1328C5.53776 22.1387 5.52112 22.1432 5.50583 22.1504C5.45052 22.1765 5.3979 22.2088 5.35384 22.2525L1.62273 25.984C1.52334 26.0834 1.46803 26.217 1.46803 26.3564V56.9443H0.58482C0.293871 56.9443 0.0582275 57.1809 0.0582275 57.4723C0.0582275 57.7623 0.293871 57.9989 0.58482 57.9989H54.2018C54.4928 57.9989 54.7284 57.7623 54.7284 57.4723C54.7275 57.2506 54.589 57.0644 54.3938 56.9848L54.3938 56.9843ZM49.3846 7.15947H39.7144V4.142H49.3851L49.3855 7.15947H49.3846ZM49.3846 8.21355V10.2475H28.9919V8.21355H49.3846ZM38.6599 7.15947H28.9914V4.142H38.6599V7.15947ZM49.3846 3.08794H28.9919V1.05396H49.3846V3.08794ZM23.6007 6.13638L27.9381 1.79996V10.2525H25.8488C25.8371 10.2525 25.8286 10.2583 25.8174 10.2587C25.7697 10.2614 25.7234 10.2713 25.6775 10.2871C25.6672 10.2907 25.6573 10.2889 25.6478 10.2934C25.6402 10.2956 25.6343 10.3015 25.6276 10.3051C25.5723 10.3307 25.5201 10.3631 25.4756 10.4076L23.6004 12.2833L23.6007 6.13638ZM21.7187 15.6578L25.3217 12.0548V22.1015H21.7187V15.6578ZM2.52325 26.5773L5.19984 23.9008V56.9477L2.52325 56.9473V26.5773ZM6.25344 23.1548H26.1039V30.943H17.0169C17.0048 30.943 16.9944 30.9489 16.9814 30.9507C16.9368 30.9529 16.8928 30.9623 16.8492 30.9767C16.8375 30.9808 16.8249 30.979 16.8145 30.9848C16.8069 30.9875 16.8024 30.9934 16.7952 30.997C16.7399 31.0226 16.6877 31.0536 16.6437 31.0991L12.9602 34.7803C12.8617 34.8788 12.806 35.0133 12.806 35.154V56.9501L6.25437 56.9496L6.25344 23.1548ZM13.8605 35.3692L16.4889 32.7426V56.947H13.8605V35.3692ZM17.5435 31.997H32.0938V56.9474H17.5435V31.997ZM35.4242 56.8323V48.2368H41.8751V56.8323H35.4242ZM42.9296 56.9483V47.7097C42.9296 47.4192 42.694 47.1831 42.403 47.1831H34.8981C34.6076 47.1831 34.3715 47.4192 34.3715 47.7097V56.9483H33.1488L33.1484 31.4706C33.1484 31.1796 32.9123 30.9436 32.6213 30.9436H27.1589V22.6286C27.1589 22.3377 26.9228 22.1016 26.6323 22.1016H26.3773L26.3769 11.307H53.3408V56.9484L42.9296 56.9483Z" fill="white"/>
</g>
<mask id="mask1_111_916" style="mask-type:luminance" maskUnits="userSpaceOnUse" x="55" y="56" width="4" height="3">
<path d="M55.8242 56.8601H58.0003V58.0001H55.8242V56.8601Z" fill="white"/>
</mask>
<g mask="url(#mask1_111_916)">
<path d="M57.4164 56.9476H56.4635C56.1725 56.9476 55.9355 57.1833 55.9355 57.4742C55.9355 57.7652 56.1721 58.0008 56.4635 58.0008H57.4168C57.7073 58.0008 57.9434 57.7652 57.9434 57.4742C57.9439 57.1833 57.7073 56.9476 57.4164 56.9476Z" fill="white"/>
</g>
<path d="M51.4253 13.3907H45.5747C45.2576 13.3907 45 13.6116 45 13.8833V18.8978C45 19.1695 45.2576 19.3907 45.5747 19.3907H51.4253C51.7428 19.3907 52 19.1699 52 18.8978V13.8833C52.0005 13.6116 51.7428 13.3907 51.4253 13.3907ZM50.8502 18.4048H46.1493V14.3762H50.8502V18.4048Z" fill="white"/>
<path d="M51.4253 21.3907H45.5747C45.2576 21.3907 45 21.6115 45 21.8836V26.8979C45 27.17 45.2576 27.3907 45.5747 27.3907H51.4253C51.7428 27.3907 52 27.17 52 26.8979V21.8836C52.0005 21.6115 51.7428 21.3907 51.4253 21.3907ZM50.8502 26.4055H46.1493V22.376H50.8502V26.4055Z" fill="white"/>
<path d="M51.4253 30.3907H45.5747C45.2576 30.3907 45 30.6484 45 30.9659V36.8161C45 37.1336 45.2576 37.3907 45.5747 37.3907H51.4253C51.7428 37.3907 52 37.1336 52 36.8161V30.9659C52.0005 30.6484 51.7428 30.3907 51.4253 30.3907ZM50.8502 36.2415H46.1493V31.541H50.8502V36.2415Z" fill="white"/>
<path d="M51.4253 38.3907H45.5747C45.2576 38.3907 45 38.6479 45 38.9655V44.8156C45 45.1331 45.2576 45.3907 45.5747 45.3907H51.4253C51.7428 45.3907 52 45.1331 52 44.8156V38.9655C52.0005 38.6474 51.7428 38.3907 51.4253 38.3907ZM50.8502 44.2408H46.1493V39.5401H50.8502V44.2408Z" fill="white"/>
<path d="M35.4247 13.3907H29.5753C29.2577 13.3907 29 13.6116 29 13.8833V18.8978C29 19.1695 29.2577 19.3907 29.5753 19.3907H35.4247C35.7423 19.3907 36 19.1699 36 18.8978V13.8833C36 13.6116 35.7423 13.3907 35.4247 13.3907ZM34.8499 18.4048H30.1501V14.3762H34.8499V18.4048Z" fill="white"/>
<path d="M35.4247 21.3907H29.5753C29.2577 21.3907 29 21.6115 29 21.8836V26.8979C29 27.17 29.2577 27.3907 29.5753 27.3907H35.4247C35.7423 27.3907 36 27.17 36 26.8979V21.8836C36 21.6115 35.7423 21.3907 35.4247 21.3907ZM34.8499 26.4055H30.1501V22.376H34.8499V26.4055Z" fill="white"/>
<path d="M42.5002 13.3907C42.2241 13.3907 42 13.6257 42 13.9149V44.8662C42 45.1558 42.2241 45.3907 42.5002 45.3907C42.7763 45.3907 43 45.1558 43 44.8662V13.9149C43.0009 13.6257 42.7768 13.3907 42.5002 13.3907Z" fill="white"/>
<path d="M37.5002 13.3907C37.2241 13.3907 37 13.6257 37 13.9149V44.8662C37 45.1558 37.2241 45.3907 37.5002 45.3907C37.7759 45.3907 38 45.1558 38 44.8662V13.9149C38 13.6257 37.7763 13.3907 37.5002 13.3907Z" fill="white"/>
<path d="M30.3834 33.3908H26.6166C26.2759 33.3908 26 33.6115 26 33.8841V36.8974C26 37.17 26.2759 37.3907 26.6166 37.3907C26.9572 37.3907 27.2337 37.17 27.2337 36.8974V34.3774H30.3834C30.7241 34.3774 31 34.1562 31 33.8841C31.0005 33.6115 30.7246 33.3908 30.3834 33.3908Z" fill="white"/>
<path d="M30.3834 40.3908H26.6166C26.2759 40.3908 26 40.6114 26 40.8838V43.8973C26 44.1697 26.2759 44.3907 26.6166 44.3907C26.9572 44.3907 27.2337 44.1697 27.2337 43.8973V41.3772H30.3834C30.7241 41.3772 31 41.1561 31 40.8837C31 40.6114 30.7246 40.3908 30.3834 40.3908Z" fill="white"/>
<path d="M30.3834 47.3908H26.6166C26.2759 47.3908 26 47.6672 26 48.0073V51.7737C26 52.1138 26.2759 52.3907 26.6166 52.3907C26.9572 52.3907 27.2337 52.1138 27.2337 51.7737V48.6243H30.3834C30.7241 48.6243 31 48.3479 31 48.0073C31.0005 47.6672 30.7246 47.3908 30.3834 47.3908Z" fill="white"/>
<path d="M23.3834 33.3908H19.6171C19.277 33.3908 19 33.6115 19 33.8841V36.8974C19 37.17 19.277 37.3907 19.6171 37.3907C19.9578 37.3907 20.2337 37.17 20.2337 36.8974V34.3774H23.3834C23.7241 34.3774 24 34.1562 24 33.8841C24 33.6115 23.7246 33.3908 23.3834 33.3908Z" fill="white"/>
<path d="M23.3834 40.3908H19.6171C19.277 40.3908 19 40.6114 19 40.8838V43.8973C19 44.1697 19.277 44.3907 19.6171 44.3907C19.9578 44.3907 20.2337 44.1697 20.2337 43.8973V41.3772H23.3834C23.7241 41.3772 24 41.1561 24 40.8837C24 40.6114 23.7246 40.3908 23.3834 40.3908Z" fill="white"/>
<path d="M23.3834 47.3908H19.6171C19.277 47.3908 19 47.6672 19 48.0073V51.7737C19 52.1138 19.277 52.3907 19.6171 52.3907C19.9578 52.3907 20.2337 52.1138 20.2337 51.7737V48.6243H23.3834C23.7241 48.6243 24 48.3479 24 48.0073C24 47.6672 23.7246 47.3908 23.3834 47.3908Z" fill="white"/>
<path d="M21.4162 28.3907C21.6455 28.3907 21.8319 28.2044 21.8319 27.9747V26.2227H23.5839C23.8136 26.2227 24 26.0364 24 25.8067C24 25.5771 23.8136 25.3907 23.5839 25.3907H21.4161C21.1864 25.3907 21 25.5771 21 25.8067V27.9747C21 28.204 21.1865 28.3907 21.4162 28.3907Z" fill="white"/>
<path d="M11.4456 25.3907H8.55439C8.24856 25.3907 8 25.5771 8 25.8067V27.9747C8 28.204 8.24856 28.3907 8.55439 28.3907C8.8607 28.3907 9.10925 28.2044 9.10925 27.9747V26.2231H11.4456C11.7519 26.2231 12 26.0367 12 25.8071C12 25.5771 11.7519 25.3907 11.4456 25.3907Z" fill="white"/>
<path d="M11.4456 30.3908H8.55439C8.24856 30.3908 8 30.5771 8 30.8067V32.9741C8 33.2037 8.24856 33.3907 8.55439 33.3907C8.8607 33.3907 9.10925 33.2041 9.10925 32.9741V31.2222H11.4456C11.7519 31.2222 12 31.0362 12 30.8066C12 30.5771 11.7519 30.3908 11.4456 30.3908Z" fill="white"/>
</svg>
