<svg width="72" height="62" viewBox="0 0 72 62" fill="none" xmlns="http://www.w3.org/2000/svg">
<path d="M56.0926 0C57.2163 0 58.3211 0.398214 59.1013 1.17841C59.8815 1.95796 60.2788 3.06231 60.2788 4.18885V10.0537H64.4649C65.3419 10.0537 66.139 10.8521 66.1396 11.7297V25.1354H70.483C71.3054 25.2133 72.0032 25.9838 72 26.8114V43.5682C72 44.4458 71.2022 45.2435 70.3253 45.2442H49.3954C43.859 45.2435 39.3488 40.7305 39.3488 35.1893C39.3488 29.648 43.859 25.135 49.3954 25.135H62.7907V13.4048H7.53373C6.31921 13.4048 5.1702 13.0871 4.18494 12.5148L4.18559 27.6484C4.19793 28.5339 3.39561 29.3479 2.51087 29.3479C1.62611 29.3479 0.823853 28.5339 0.836143 27.6484V6.70244C0.836143 6.64917 0.834846 6.59785 0.836143 6.54523V6.49261C0.949097 2.90543 3.92337 0.000261373 7.53455 0.000261373L56.0926 0ZM56.0926 3.35136H7.53426C5.64983 3.35136 4.18548 4.81691 4.18548 6.70272C4.18548 8.58852 5.64991 10.0541 7.53426 10.0541H56.9302V4.1892C56.9302 3.79617 56.8179 3.63182 56.7211 3.53438C56.6244 3.43693 56.4849 3.35118 56.0934 3.35118L56.0926 3.35136ZM68.6506 28.4866H49.3941C45.6544 28.4866 42.6963 31.4469 42.6963 35.1894C42.6963 38.932 45.6544 41.8923 49.3941 41.8923H68.6506V28.4866ZM48.5582 32.6759C49.9253 32.6759 51.0696 33.8212 51.0696 35.1893C51.0696 36.5574 49.9252 37.7026 48.5582 37.7026C47.1911 37.7026 46.0468 36.5574 46.0468 35.1893C46.0468 33.8212 47.1912 32.6759 48.5582 32.6759ZM2.53735 32.6759C3.41431 32.6889 4.19977 33.4996 4.18613 34.3772V35.1886C4.19846 36.074 3.39614 36.8881 2.5114 36.8881C1.62664 36.8881 0.824379 36.0741 0.836678 35.1886V34.3772C0.823044 33.482 1.64355 32.661 2.53799 32.6753L2.53735 32.6759ZM12.5579 36.8648C19.4737 36.8648 25.1159 42.5113 25.1159 49.4324C25.1159 56.3535 19.4737 62 12.5579 62C5.64219 62 0 56.3535 0 49.4324C0 42.5113 5.64219 36.8648 12.5579 36.8648ZM12.5579 40.2162C7.45184 40.2162 3.34879 44.3224 3.34879 49.4324C3.34879 54.5424 7.45184 58.6486 12.5579 58.6486C17.664 58.6486 21.7671 54.5424 21.7671 49.4324C21.7671 44.3224 17.664 40.2162 12.5579 40.2162ZM16.9272 44.3789C17.5614 44.4406 18.1398 44.8973 18.3475 45.4995C18.5552 46.1024 18.3819 46.8189 17.921 47.2587L12.0607 53.1236C11.3843 53.7907 10.1217 53.6991 9.54923 52.9404L7.03782 49.589C6.44905 48.8959 6.57953 47.7143 7.30525 47.1666C8.03098 46.6183 9.20132 46.8165 9.70633 47.5733L11.0669 49.3798L15.5666 44.8767C15.9152 44.5194 16.43 44.3309 16.9272 44.3789ZM64.6481 48.5683C65.4711 48.6586 66.1573 49.442 66.1391 50.2702V58.6491C66.1391 59.5268 65.3413 60.3245 64.4644 60.3252H27.6264C26.7417 60.3375 25.9283 59.5346 25.9283 58.6491C25.9283 57.7637 26.7416 56.9608 27.6264 56.9731H62.7893V50.2702C62.7685 49.3198 63.7026 48.4643 64.6472 48.5683H64.6481Z" fill="#FF650C"/>
</svg>
