<svg width="21" height="27" viewBox="0 0 21 27" fill="none" xmlns="http://www.w3.org/2000/svg">
<path fill-rule="evenodd" clip-rule="evenodd" d="M10.4125 0.000179405C10.4125 7.22255e-05 10.4124 2.8308e-08 10.4123 7.2756e-08C7.91815 0.000980572 5.50729 0.89688 3.61795 2.5246C1.72815 4.15255 0.485476 6.40429 0.115345 8.87083C-0.254763 11.3372 0.272459 13.8548 1.60114 15.9658C2.70725 17.7233 4.30808 19.1017 6.1892 19.937C6.92725 20.2647 7.62862 20.7222 7.99842 21.44C8.66099 22.8997 9.24666 24.3932 9.75284 25.9143C9.84566 26.2 10.112 26.3936 10.4126 26.3936C10.713 26.3936 10.9793 26.2 11.0722 25.9143C11.5786 24.3943 12.1647 22.9023 12.8278 21.4438C13.1972 20.7258 13.8991 20.269 14.6375 19.9421C16.5215 19.1083 18.1253 17.7298 19.2339 15.9713C20.5649 13.8594 21.0936 11.3397 20.723 8.87089C20.3524 6.40219 19.1079 4.1486 17.2155 2.52047C15.3232 0.892571 12.909 -0.00198988 10.4128 0.000358741C10.4127 0.000358848 10.4126 0.000286639 10.4125 0.000179405ZM12.9912 19.0669C12.9914 19.0672 12.9913 19.0675 12.991 19.0676C12.832 19.1186 12.6861 19.2034 12.5628 19.3162C12.3252 19.5465 12.1239 19.8114 11.9654 20.102C11.3601 21.2403 9.46427 21.2395 8.85937 20.101C8.70109 19.8104 8.49955 19.5455 8.26201 19.3152C8.13879 19.2023 7.99243 19.1174 7.83321 19.0665C5.03927 18.2334 2.8198 16.1025 1.87388 13.3449C0.927898 10.5872 1.37191 7.54239 3.06627 5.17011C4.76065 2.79747 7.4966 1.38955 10.412 1.38955C13.3273 1.38955 16.0633 2.79747 17.7578 5.17011C19.4522 7.54251 19.8964 10.5873 18.9505 13.3449C18.0045 16.1023 15.7851 18.2331 12.9914 19.0663C12.9912 19.0664 12.991 19.0667 12.9912 19.0669Z" fill="#666666"/>
<path fill-rule="evenodd" clip-rule="evenodd" d="M10.4126 5.55469C9.12337 5.55469 7.88705 6.06671 6.97543 6.97829C6.06404 7.88968 5.55182 9.126 5.55182 10.4152C5.55182 11.7041 6.06408 12.9404 6.97543 13.8521C7.88699 14.7636 9.12337 15.2757 10.4126 15.2757C11.7015 15.2757 12.9378 14.7636 13.8494 13.8521C14.761 12.9405 15.273 11.7041 15.273 10.4152C15.2726 9.12624 14.7603 7.8901 13.8487 6.97877C12.9373 6.06739 11.7015 5.55517 10.4126 5.55469ZM10.4126 13.8868C9.49183 13.8868 8.60876 13.5212 7.95762 12.8701C7.30671 12.2192 6.94083 11.3361 6.94083 10.4154C6.94083 9.49464 7.30673 8.61157 7.95762 7.96042C8.60876 7.30952 9.49183 6.94388 10.4126 6.94388C11.3333 6.94388 12.2161 7.30955 12.8672 7.96042C13.5184 8.61157 13.884 9.49464 13.884 10.4154C13.8836 11.3358 13.5177 12.2187 12.8668 12.8696C12.2156 13.5205 11.333 13.8864 10.4126 13.8868Z" fill="#666666"/>
</svg>
