<svg width="32" height="32" viewBox="0 0 32 32" fill="none" xmlns="http://www.w3.org/2000/svg">
<path d="M16.0003 0.000195181C20.4186 0.000195181 24.4184 1.79119 27.3137 4.68653C30.2093 7.58212 32 11.582 32 16.0001C32 20.4181 30.209 24.4183 27.3137 27.3136C24.4182 30.2092 20.4183 32 16.0003 32C11.5823 32 7.58213 30.209 4.68682 27.3136C1.79126 24.4181 0.000534261 20.4181 0.000534261 16.0001C0.000534261 11.582 1.79151 7.58186 4.68682 4.68653C7.58238 1.79094 11.5823 0.000195181 16.0003 0.000195181ZM26.6066 5.39351C23.8922 2.67915 20.1422 0.999944 16.0003 0.999944C11.8584 0.999944 8.10812 2.67881 5.39396 5.39351C2.67963 8.10786 1.00044 11.858 1.00044 15.9999C1.00044 20.1419 2.6793 23.8921 5.39396 26.6063C8.10829 29.3207 11.8584 30.9999 16.0003 30.9999C20.1422 30.9999 23.8924 29.321 26.6066 26.6063C29.3209 23.892 31.0001 20.1419 31.0001 15.9999C31.0001 11.858 29.3212 8.10769 26.6066 5.39351Z" fill="#FF650C"/>
<path d="M16.0003 5.29324C18.9567 5.29324 21.6334 6.49175 23.5709 8.42934C25.5085 10.3669 26.707 13.0435 26.707 16.0001C26.707 18.9566 25.5085 21.6332 23.5709 23.5708C21.6334 25.5084 18.9568 26.7069 16.0003 26.7069C13.0437 26.7069 10.3672 25.5084 8.4296 23.5708C6.49203 21.6332 5.29352 18.9566 5.29352 16.0001C5.29352 13.0435 6.49203 10.3669 8.4296 8.42934C10.3672 6.49175 13.0437 5.29324 16.0003 5.29324ZM22.864 9.13632C21.1074 7.37971 18.6808 6.29332 16.0003 6.29332C13.3197 6.29332 10.8932 7.37971 9.13657 9.13632C7.37998 10.8929 6.2936 13.3195 6.2936 16.0001C6.2936 18.6807 7.37998 21.1072 9.13657 22.8638C10.8932 24.6205 13.3197 25.7068 16.0003 25.7068C18.6808 25.7068 21.1074 24.6205 22.864 22.8638C24.6206 21.1072 25.7069 18.6807 25.7069 16.0001C25.7069 13.3195 24.6206 10.8929 22.864 9.13632Z" fill="#FF650C"/>
<path d="M31.4998 16.5001C31.7761 16.5001 31.9997 16.2761 31.9997 16.0002C31.9997 15.724 31.7757 15.5004 31.4998 15.5004H26.2065C25.9303 15.5004 25.7067 15.7243 25.7067 16.0002C25.7067 16.2765 25.9306 16.5001 26.2065 16.5001H31.4998Z" fill="#FF650C"/>
<path d="M16.4999 0.499858C16.4999 0.223629 16.276 0 16.0001 0C15.7238 0 15.5002 0.223959 15.5002 0.499858V5.79324C15.5002 6.06947 15.7242 6.2931 16.0001 6.2931C16.2763 6.2931 16.4999 6.06914 16.4999 5.79324V0.499858Z" fill="#FF650C"/>
<path d="M0.499853 15.4999C0.223627 15.4999 0 15.7239 0 15.9998C0 16.276 0.223957 16.4996 0.499853 16.4996H5.79318C6.06941 16.4996 6.29303 16.2757 6.29303 15.9998C6.29303 15.7235 6.06908 15.4999 5.79318 15.4999H0.499853Z" fill="#FF650C"/>
<path d="M15.4998 31.5001C15.4998 31.7764 15.7237 32 15.9996 32C16.2758 32 16.4995 31.776 16.4995 31.5001V26.2068C16.4995 25.9305 16.2755 25.7069 15.9996 25.7069C15.7234 25.7069 15.4998 25.9309 15.4998 26.2068V31.5001Z" fill="#FF650C"/>
<path d="M15.9249 21.8516V20.6897C15.3427 20.6169 14.871 20.4869 14.5074 20.2994C14.1435 20.1121 13.8282 19.8078 13.5635 19.3909C13.2989 18.9721 13.1447 18.4626 13.1027 17.8609L14.2712 17.6406C14.3615 18.2645 14.5203 18.723 14.7495 19.0164C15.0757 19.431 15.4684 19.6602 15.9246 19.7065V16.0066C15.4462 15.9163 14.9589 15.7311 14.4584 15.4512C14.0879 15.2438 13.8038 14.9573 13.6029 14.5914C13.4021 14.2256 13.3032 13.8111 13.3032 13.3456C13.3032 12.5189 13.5963 11.8486 14.1808 11.3369C14.5732 10.9908 15.1554 10.7811 15.9249 10.704V10.1482H16.6107V10.704C17.2852 10.7679 17.8234 10.9663 18.218 11.2972C18.7275 11.7183 19.0315 12.2982 19.135 13.0346L17.9335 13.2153C17.865 12.7587 17.7218 12.4084 17.5034 12.1659C17.2874 11.9234 16.9897 11.7623 16.6106 11.6852V15.0363C17.1948 15.1842 17.5828 15.2987 17.7724 15.3804C18.134 15.5392 18.4294 15.733 18.6566 15.9603C18.8859 16.1896 19.0622 16.4608 19.1836 16.7738C19.307 17.089 19.3689 17.4285 19.3689 17.7947C19.3689 18.6016 19.1108 19.2718 18.5994 19.81C18.088 20.3503 17.4244 20.6367 16.6106 20.6764V21.8515L15.9249 21.8516ZM15.9249 11.672C15.473 11.7405 15.1157 11.9211 14.8557 12.2145C14.5957 12.5076 14.4654 12.854 14.4654 13.2553C14.4654 13.6499 14.5755 13.9827 14.7981 14.2497C15.0208 14.5163 15.3956 14.7303 15.9249 14.8891L15.9249 11.672ZM16.6107 19.7061C17.0626 19.6509 17.4354 19.4547 17.7308 19.1196C18.0263 18.7845 18.1741 18.3677 18.1741 17.8718C18.1741 17.4507 18.0683 17.1113 17.8612 16.8555C17.6518 16.5998 17.235 16.3706 16.611 16.1678V19.7065L16.6107 19.7061Z" fill="#FF650C"/>
</svg>
