<svg width="28" height="26" viewBox="0 0 28 26" fill="none" xmlns="http://www.w3.org/2000/svg">
<path d="M27.5625 0.125C27.804 0.125065 27.9999 0.320967 28 0.5625V18.5C28 18.7416 27.8041 18.9374 27.5625 18.9375H24.9375V21.5635C24.9373 21.8049 24.7414 22.0009 24.5 22.001H22.3125V24.625C22.3124 24.8665 22.1165 25.0624 21.875 25.0625H0.4375C0.195913 25.0625 5.85697e-05 24.8666 0 24.625V6.67676C0.00278348 6.56467 0.0484493 6.45741 0.12793 6.37793C0.209976 6.2959 0.321479 6.25 0.4375 6.25H3.0625V4.05176C3.06852 3.81538 3.26217 3.62598 3.5 3.62598H6.125V0.551758C6.13098 0.315348 6.32465 0.125 6.5625 0.125H27.5625ZM0.875 24.1875H21.4375V22.001H3.5C3.4834 22.001 3.4673 21.9969 3.45117 21.9951C3.40998 21.9905 3.36993 21.9816 3.33203 21.9658C3.25279 21.9327 3.18523 21.8779 3.1377 21.8076C3.12786 21.7931 3.12029 21.7773 3.1123 21.7617C3.08164 21.702 3.06257 21.6352 3.0625 21.5635V7.125H0.875V24.1875ZM22.6865 21.126H24.0625V18.9375H20.498L22.6865 21.126ZM19.5918 21.125H21.4482L19.2607 18.9375H17.4043L19.5918 21.125ZM3.9375 21.125H5.87402L3.9375 19.4277V21.125ZM3.9375 18.2646L7.20117 21.125H9.33594L6.83594 18.9375L6.5625 18.9385C6.55924 18.9385 6.55599 18.9376 6.55273 18.9375H6.55078C6.54749 18.9374 6.54429 18.9357 6.54102 18.9355C6.51652 18.9343 6.49244 18.932 6.46875 18.9268C6.45125 18.9229 6.43461 18.917 6.41797 18.9111C6.40989 18.9083 6.40145 18.9066 6.39355 18.9033C6.37213 18.8943 6.35254 18.8823 6.33301 18.8701C6.32831 18.8672 6.32295 18.8654 6.31836 18.8623C6.301 18.8506 6.285 18.8373 6.26953 18.8232C6.26435 18.8185 6.2579 18.8145 6.25293 18.8096C6.25211 18.8088 6.25178 18.8075 6.25098 18.8066C6.23199 18.7874 6.21439 18.7667 6.19922 18.7441C6.18309 18.7201 6.16923 18.6946 6.1582 18.668C6.1367 18.6163 6.125 18.5595 6.125 18.5V18.2627L3.9375 16.3887V18.2646ZM10.6641 21.125H12.168L9.98047 18.9375H8.16406L10.6641 21.125ZM13.4053 21.125H15.2607L13.0742 18.9375H11.2178L13.4053 21.125ZM16.498 21.125H18.3545L16.167 18.9375H14.3105L16.498 21.125ZM7 18.0625H27.125V1H7V18.0625ZM3.9375 15.2354L6.125 17.1104V15.1016L3.9375 13.2275V15.2354ZM3.9375 12.0742L6.125 13.9492V12.0078L3.9375 10.1338V12.0742ZM3.9375 8.98047L6.125 10.8555V8.91406L3.9375 7.04004V8.98047ZM3.9375 5.88672L6.125 7.76172V4.50098H3.9375V5.88672Z" fill="#FF650C"/>
</svg>
