<svg width="27" height="23" viewBox="0 0 27 23" fill="none" xmlns="http://www.w3.org/2000/svg">
<path d="M23.6904 22.0361L27 22.0352V23H0V22.0352H3.30957V0H23.6904V22.0361ZM4.27344 22.0361H11.9463V18.1787H15.0527V22.0361H22.7256V0.964844H4.27344V22.0361ZM12.9102 22.0361H14.0889V19.1436H12.9102V22.0361ZM10.2305 16.9209H7.12305V13.8037H10.2305V16.9209ZM15.0537 16.8887H11.9463V13.7715H15.0537V16.8887ZM19.875 13.7715V16.8887H16.7686V13.7715H19.875ZM8.08789 15.9561H9.26562V14.7676H8.08789V15.9561ZM12.9102 15.9248H14.0879V14.7363H12.9102V15.9248ZM17.7334 14.7363V15.9248H18.9121V14.7363H17.7334ZM10.2305 12.1689H7.12305V9.05273H10.2305V12.1689ZM15.0537 12.1377H11.9463V9.02051H15.0537V12.1377ZM19.875 12.1377H16.7686V9.02051H19.875V12.1377ZM8.08789 11.2051H9.26562V10.0166H8.08789V11.2051ZM12.9102 11.1729H14.0879V9.98438H12.9102V11.1729ZM17.7334 11.1729H18.9121V9.98438H17.7334V11.1729ZM10.2305 7.41797H7.12305V4.30176H10.2305V7.41797ZM15.0537 7.38672H11.9463V4.27051H15.0537V7.38672ZM19.875 7.38672H16.7686V4.27051H19.875V7.38672ZM8.08789 6.4541H9.26562V5.26562H8.08789V6.4541ZM12.9102 6.42285H14.0879V5.23438H12.9102V6.42285ZM17.7334 6.42285H18.9121V5.23438H17.7334V6.42285Z" fill="#FF650C"/>
</svg>
