<svg width="46" height="34" viewBox="0 0 46 34" fill="none" xmlns="http://www.w3.org/2000/svg">
<path d="M11.4491 33.12C9.40113 33.12 7.57713 32.608 5.97713 31.584C4.37713 30.496 3.09713 28.992 2.13713 27.072C1.24113 25.152 0.793125 22.976 0.793125 20.544C0.793125 18.304 1.17713 16.128 1.94513 14.016C2.77713 11.904 3.96113 9.952 5.49713 8.16C7.03313 6.304 8.79313 4.704 10.7771 3.36C12.8251 1.952 15.0651 0.927996 17.4971 0.287996L22.2011 6.144C19.4491 7.232 17.2411 8.672 15.5771 10.464C13.9771 12.256 13.1771 13.792 13.1771 15.072C13.1771 15.648 13.3371 16.288 13.6571 16.992C14.0411 17.632 14.7771 18.304 15.8651 19.008C17.4651 20.032 18.5531 21.12 19.1291 22.272C19.7691 23.36 20.0891 24.608 20.0891 26.016C20.0891 28.192 19.2571 29.92 17.5931 31.2C15.9931 32.48 13.9451 33.12 11.4491 33.12ZM34.4891 33.12C32.4411 33.12 30.6171 32.608 29.0171 31.584C27.4171 30.496 26.1371 28.992 25.1771 27.072C24.2811 25.152 23.8331 22.976 23.8331 20.544C23.8331 18.304 24.2171 16.128 24.9851 14.016C25.8171 11.904 27.0011 9.952 28.5371 8.16C30.0731 6.304 31.8331 4.704 33.8171 3.36C35.8651 1.952 38.1051 0.927996 40.5371 0.287996L45.2411 6.144C42.4891 7.232 40.2811 8.672 38.6171 10.464C37.0171 12.256 36.2171 13.792 36.2171 15.072C36.2171 15.648 36.3771 16.288 36.6971 16.992C37.0811 17.632 37.8171 18.304 38.9051 19.008C40.5051 20.032 41.5931 21.12 42.1691 22.272C42.8091 23.36 43.1291 24.608 43.1291 26.016C43.1291 28.192 42.2971 29.92 40.6331 31.2C39.0331 32.48 36.9851 33.12 34.4891 33.12Z" fill="white"/>
</svg>
