<svg width="42" height="42" viewBox="0 0 42 42" fill="none" xmlns="http://www.w3.org/2000/svg">
<path d="M27.9668 16.5671H26.7002V17.8337H27.9668V16.5671Z" fill="white"/>
<path d="M23.533 29.8682H22.2664V31.1347H23.533V29.8682Z" fill="white"/>
<path d="M19.7332 29.8682H18.4666V31.1347H19.7332V29.8682Z" fill="white"/>
<path d="M21.634 27.3346H20.3675V28.6012H21.634V27.3346Z" fill="white"/>
<path d="M36.2002 25.434H34.9336V26.7005H36.2002V25.434Z" fill="white"/>
<path d="M36.2002 29.2354H34.9336V30.5019H36.2002V29.2354Z" fill="white"/>
<path d="M34.2996 27.3346H33.033V28.6012H34.2996V27.3346Z" fill="white"/>
<path d="M36.2002 33.035H34.9336V34.3016H36.2002V33.035Z" fill="white"/>
<path d="M36.2002 36.2018H34.9336V37.4684H36.2002V36.2018Z" fill="white"/>
<path d="M34.2996 31.1348H33.033V32.4013H34.2996V31.1348Z" fill="white"/>
<path d="M2.95363 40.5995L3.52121 38.3299C3.59901 38.0183 3.87898 37.7995 4.20028 37.7995H5.6001V25.8999H7.00027V26.7037L9.80026 29.718V26.5497L7.00027 23.5354V24.5001H5.60045L5.60011 10.5001H2.1002C1.83517 10.5001 1.59273 10.3504 1.47427 10.1131L0.0744591 7.31316H0.0741081C-0.0606613 7.04362 -0.00786972 6.71814 0.20541 6.50522L4.90025 1.81002V0.700265C4.90025 0.514435 4.97389 0.336589 5.10519 0.205286C5.2365 0.073983 5.41469 0 5.60017 0H7.70025C7.97675 0 8.22754 0.162906 8.34007 0.415784L8.79511 1.44044L39.2786 4.90459C39.6326 4.94454 39.9 5.24396 39.9 5.59999V6.29991L41.2999 6.30026C41.5427 6.30026 41.7677 6.42566 41.8956 6.63199C42.023 6.83866 42.0345 7.09605 41.9261 7.31315L40.5263 10.1131H40.526C40.4075 10.3504 40.1651 10.5001 39.9 10.5001H36.4001V9.10028H39.4673L40.1672 7.70046L31.5 7.70011V9.09993L34.9999 9.10028V10.5001H28.6999V13.3001H29.3998C29.6767 13.3001 29.9271 13.463 30.0396 13.7159L31.4395 16.866V16.8657C31.5301 17.0696 31.5183 17.3041 31.4075 17.4975L30.0077 19.9474C29.883 20.1656 29.651 20.3 29.3998 20.3H28.6999V21.4101L30.595 23.305V23.3053C30.7822 23.4925 30.8479 23.7701 30.7638 24.0215L30.0639 26.1216C29.9687 26.4072 29.7013 26.5999 29.3998 26.6003H26.5998C26.4143 26.6003 26.2361 26.5263 26.1048 26.395C25.9735 26.2637 25.8999 26.0859 25.8999 25.9V23.8003H27.3V25.2001H28.8954L29.299 23.9893L27.5053 22.1955C27.3736 22.0642 27.3 21.886 27.3 21.7002V20.3H26.5997C26.3486 20.3 26.1166 20.1656 25.9922 19.9475L24.5924 17.4975H24.592C24.4816 17.3041 24.4698 17.0696 24.5601 16.8657L25.9599 13.7155L25.9603 13.7159C26.0724 13.463 26.3232 13.3001 26.5997 13.3001H27.2996L27.3 10.5001H18.6325L16.026 15.7132C15.9072 15.9504 15.6651 16.1001 15.3997 16.1001H11.1999V37.7999H12.6C12.921 37.7999 13.201 38.0187 13.2791 38.3303L13.8463 40.5999H15.3997V30.0999C15.3997 29.9443 15.4518 29.7929 15.5474 29.6702L16.8464 27.9998H16.7999V25.8997H18.1997V26.2596L20.447 23.37H20.4474C20.5756 23.2053 20.7708 23.1063 20.9795 23.1001C21.1883 23.0942 21.3891 23.1817 21.5266 23.3391L26.4267 28.9391V28.9388C26.5382 29.0666 26.5997 29.2302 26.5997 29.3997V34.0098L28.9047 31.7048C29.036 31.5735 29.2142 31.4998 29.3997 31.4998C29.5855 31.4998 29.7634 31.5735 29.8947 31.7048L31.4998 33.3099V26.6001C31.4998 26.384 31.5995 26.1801 31.7701 26.0475L38.07 21.1474C38.193 21.0519 38.3441 21.0001 38.4997 21.0001V18.2001H39.8999V21.0001C40.2865 21.0001 40.5998 21.3134 40.5998 21.7V30.1001H39.2V22.3999H38.7401L32.8997 26.9423V34.7098L34.0949 35.905C34.2262 36.0363 34.2998 36.2142 34.2998 36.4V40.5998H39.1999V31.4995H40.5997V40.5998H41.9999V41.9997L0 42V40.5998L2.95363 40.5995ZM25.9837 17.1097L27.0066 18.8993H28.9942L30.0168 17.1097L28.9452 14.6991H27.0553L25.9837 17.1097ZM7.0005 28.7603V32.3034L9.80048 35.3176V31.7746L7.0005 28.7603ZM7.0005 10.4992V10.6031L9.80048 13.6173V10.4992H7.0005ZM9.80048 15.674L7.0005 12.6597V15.8779L9.80048 18.8922V15.674ZM9.80048 24.492V20.9489L7.0005 17.9346V21.478L9.80048 24.492ZM2.53285 9.09946H24.5003V7.69929H1.83303L2.53285 9.09946ZM2.39009 6.29947H4.90037V3.78918L2.39009 6.29947ZM7.24543 1.39939H6.30027V6.29947H9.42332L7.24543 1.39939ZM38.4999 6.22451L9.45427 2.92361L10.9548 6.29956H38.4995L38.4999 6.22451ZM30.0998 9.09955V7.69937H25.9V9.09919L30.0998 9.09955ZM14.967 14.6996L15.6669 13.2998L13.9996 13.2995V11.8996H16.3672L17.0671 10.4998L11.1997 10.4995V14.6993L14.967 14.6996ZM9.79982 37.3749L6.99983 34.3606V37.7997H9.79982V37.3749ZM23.1 37.7997V40.5997H24.5001V36.3999C24.5001 36.214 24.5738 36.0362 24.7051 35.9049L25.2 35.4099V34.9997H16.8V37.0998H22.4001C22.7867 37.0998 23.1 37.4131 23.1 37.7997ZM21.0318 24.8988L16.8 30.3398V33.5997H25.2V29.6628L21.0318 24.8988ZM28.6999 40.5998V37.7999H30.0998V40.5998H32.8997V36.6897L29.3998 33.1898L25.8999 36.6897V40.5998H28.6999ZM21.7 40.5998V38.5001H16.8V40.6002L21.7 40.5998ZM12.4032 40.5998L12.0531 39.2H4.74613L4.396 40.5998H12.4032Z" fill="white"/>
</svg>
