<svg width="42" height="42" viewBox="0 0 42 42" fill="none" xmlns="http://www.w3.org/2000/svg">
<path d="M30.7678 11.6431C30.6337 11.509 30.4572 11.4254 30.2684 11.4068C30.0796 11.3881 29.8902 11.4355 29.7324 11.5408C29.5747 11.6462 29.4583 11.803 29.4032 11.9845C29.348 12.166 29.3575 12.361 29.4301 12.5363C29.5026 12.7116 29.6337 12.8563 29.801 12.9458C29.9682 13.0353 30.1614 13.064 30.3474 13.0271C30.5335 12.9902 30.701 12.8898 30.8214 12.7432C30.9418 12.5967 31.0077 12.4128 31.0078 12.2231C31.0072 12.0058 30.921 11.7974 30.7678 11.6431Z" fill="white"/>
<path d="M12.3 23.1331H5.74197C5.52449 23.1331 5.31592 23.2195 5.16214 23.3733C5.00836 23.5271 4.92197 23.7356 4.92197 23.9531V30.5151C4.92197 30.7325 5.00836 30.9411 5.16214 31.0949C5.31592 31.2487 5.52449 31.3351 5.74197 31.3351H12.3C12.5174 31.3351 12.726 31.2487 12.8798 31.0949C13.0336 30.9411 13.12 30.7325 13.12 30.5151V23.9531C13.12 23.7356 13.0336 23.5271 12.8798 23.3733C12.726 23.2195 12.5174 23.1331 12.3 23.1331ZM11.48 29.6951H6.56197V24.7731H11.484L11.48 29.6951Z" fill="white"/>
<path d="M41.494 17.2072C41.3441 17.1451 41.1791 17.1289 41.02 17.1605C40.8609 17.1922 40.7147 17.2704 40.6 17.3852L17.39 40.598C17.2753 40.7127 17.1971 40.8588 17.1655 41.018C17.1338 41.1771 17.15 41.342 17.2121 41.4919C17.2742 41.6417 17.3794 41.7698 17.5143 41.8599C17.6492 41.95 17.8078 41.9981 17.97 41.998H41.18C41.3975 41.998 41.606 41.9116 41.7598 41.7578C41.9136 41.6041 42 41.3955 42 41.178V17.9652C42.0001 17.803 41.9521 17.6444 41.862 17.5094C41.7719 17.3745 41.6439 17.2693 41.494 17.2072ZM40.359 40.359H19.945L23.075 37.2291L23.858 38.012C24.0119 38.1659 24.2205 38.2523 24.438 38.2523C24.6556 38.2523 24.8642 38.1659 25.018 38.012C25.1719 37.8582 25.2583 37.6496 25.2583 37.432C25.2583 37.2145 25.1719 37.0059 25.018 36.8521L24.235 36.0691L26.323 33.9811L27.106 34.7641C27.2599 34.9179 27.4685 35.0043 27.686 35.0043C27.9036 35.0043 28.1122 34.9179 28.266 34.7641C28.4198 34.6102 28.5063 34.4016 28.5063 34.1841C28.5063 33.9665 28.4198 33.7579 28.266 33.6041L27.483 32.8211L29.571 30.7331L30.354 31.5161C30.4302 31.5923 30.5206 31.6527 30.6201 31.6939C30.7196 31.7351 30.8263 31.7563 30.934 31.7563C31.0417 31.7563 31.1484 31.7351 31.2479 31.6939C31.3474 31.6527 31.4379 31.5923 31.514 31.5161C31.5902 31.4399 31.6506 31.3495 31.6918 31.25C31.733 31.1505 31.7543 31.0438 31.7543 30.9361C31.7543 30.8284 31.733 30.7217 31.6918 30.6222C31.6506 30.5227 31.5902 30.4323 31.514 30.3561L30.731 29.5731L32.819 27.4851L33.602 28.2681C33.7558 28.4219 33.9645 28.5084 34.182 28.5084C34.3996 28.5084 34.6082 28.4219 34.762 28.2681C34.9158 28.1143 35.0023 27.9057 35.0023 27.6881C35.0023 27.4706 34.9158 27.262 34.762 27.1081L33.979 26.3251L36.067 24.2372L36.85 25.0202C37.0038 25.174 37.2125 25.2604 37.43 25.2604C37.6475 25.2604 37.8562 25.174 38.01 25.0202C38.1638 24.8663 38.2503 24.6577 38.2503 24.4402C38.2503 24.2226 38.1638 24.014 38.01 23.8602L37.227 23.0772L40.358 19.9472L40.359 40.359Z" fill="white"/>
<path d="M37.392 27.109C37.2421 27.0469 37.0772 27.0306 36.918 27.0623C36.7589 27.094 36.6127 27.1722 36.4981 27.287L27.2871 36.4999C27.1723 36.6146 27.0942 36.7607 27.0625 36.9199C27.0308 37.079 27.0471 37.2439 27.1092 37.3938C27.1713 37.5436 27.2764 37.6717 27.4113 37.7618C27.5462 37.8519 27.7048 37.9 27.8671 37.8999H37.078C37.2955 37.8999 37.5041 37.8135 37.6579 37.6597C37.8117 37.506 37.898 37.2974 37.898 37.0799V27.867C37.8981 27.7048 37.8501 27.5462 37.7601 27.4112C37.67 27.2763 37.5419 27.1711 37.392 27.109ZM36.258 36.2579H29.8481L36.258 29.848V36.2579Z" fill="white"/>
<path d="M37.9853 12.2442C37.8747 12.1337 37.7348 12.057 37.582 12.0234C37.4293 11.9897 37.2701 12.0004 37.1233 12.0542L31.5233 14.1052C31.4106 14.1459 31.3082 14.2108 31.2233 14.2952L29.6493 15.8702L19.3653 5.5863C19.2892 5.5101 19.1987 5.44966 19.0992 5.40842C18.9997 5.36718 18.893 5.34596 18.7853 5.34596C18.6776 5.34596 18.5709 5.36718 18.4714 5.40842C18.3719 5.44966 18.2815 5.5101 18.2053 5.5863L5.82633 17.9652H2.80034L18.7853 1.98033L27.5573 10.7523C27.7111 10.9061 27.9198 10.9925 28.1373 10.9925C28.3548 10.9925 28.5635 10.9061 28.7173 10.7523C28.8711 10.5984 28.9575 10.3898 28.9575 10.1723C28.9575 9.95472 28.8711 9.74609 28.7173 9.59227L19.3653 0.240343C19.2892 0.164148 19.1987 0.103704 19.0992 0.0624649C18.9997 0.0212259 18.893 0 18.7853 0C18.6776 0 18.5709 0.0212259 18.4714 0.0624649C18.3719 0.103704 18.2815 0.164148 18.2053 0.240343L0.240345 18.2052C0.125596 18.3199 0.0474437 18.466 0.0157753 18.6251C-0.0158931 18.7842 0.000346193 18.9492 0.0624384 19.099C0.124531 19.2489 0.229685 19.377 0.364597 19.4671C0.499508 19.5572 0.658113 19.6053 0.820344 19.6052H1.64034V41.18C1.64034 41.3975 1.72674 41.606 1.88051 41.7598C2.03429 41.9136 2.24286 42 2.46034 42H15.5003C15.7179 42 15.9266 41.9136 16.0805 41.7597C16.2344 41.6058 16.3208 41.3971 16.3208 41.1795C16.3208 40.9619 16.2344 40.7532 16.0805 40.5993C15.9266 40.4455 15.7179 40.359 15.5003 40.359H3.28134V19.6062H6.16633C6.38382 19.6062 6.59242 19.5198 6.74633 19.3662L18.7853 7.32628L28.4853 17.0262L16.3243 29.1951V21.8202H22.0663C22.2839 21.8202 22.4926 21.7337 22.6465 21.5799C22.8004 21.426 22.8868 21.2173 22.8868 20.9997C22.8868 20.7821 22.8004 20.5734 22.6465 20.4195C22.4926 20.2656 22.2839 20.1792 22.0663 20.1792H15.5003C15.2828 20.1792 15.0743 20.2656 14.9205 20.4193C14.7667 20.5731 14.6803 20.7817 14.6803 20.9992V30.5151C14.6803 30.6081 14.6962 30.7004 14.7273 30.7881L14.0003 31.5231C13.394 32.1514 13.0586 32.9927 13.0664 33.8658C13.0741 34.7389 13.4244 35.5741 14.0418 36.1915C14.6593 36.8089 15.4945 37.1592 16.3676 37.167C17.2407 37.1748 18.082 36.8394 18.7103 36.233L25.6283 29.3151C25.7821 29.1613 25.8685 28.9527 25.8685 28.7351C25.8685 28.5176 25.7821 28.3089 25.6283 28.1551C25.4745 28.0013 25.2658 27.9149 25.0483 27.9149C24.8308 27.9149 24.6221 28.0013 24.4683 28.1551L19.2233 33.4001L16.8333 31.0101L31.8203 16.0192L34.2103 18.4092L28.4833 24.1361C28.4071 24.2123 28.3467 24.3027 28.3055 24.4023C28.2643 24.5018 28.2431 24.6084 28.2431 24.7161C28.2431 24.8239 28.2643 24.9305 28.3055 25.03C28.3467 25.1296 28.4071 25.22 28.4833 25.2961C28.5595 25.3723 28.6499 25.4327 28.7494 25.4739C28.8489 25.5152 28.9556 25.5364 29.0633 25.5364C29.171 25.5364 29.2777 25.5152 29.3772 25.4739C29.4767 25.4327 29.5671 25.3723 29.6433 25.2961L35.9343 19.0052C36.0187 18.9202 36.0836 18.8179 36.1243 18.7052L38.1753 13.1052C38.2289 12.9585 38.2395 12.7996 38.2059 12.647C38.1722 12.4945 38.0957 12.3548 37.9853 12.2442ZM18.0633 34.5561L17.5463 35.0731C17.2289 35.3878 16.7998 35.564 16.3528 35.563C15.9058 35.5621 15.4774 35.3841 15.1613 35.0681C14.8452 34.752 14.6673 34.3236 14.6663 33.8766C14.6654 33.4296 14.8416 33.0005 15.1563 32.6831L15.6733 32.1661L18.0633 34.5561ZM35.0343 16.9122L33.3163 15.1942L36.0263 14.2022L35.0343 16.9122Z" fill="white"/>
<path d="M27.6187 26.1601C27.4845 26.0257 27.3078 25.942 27.1188 25.9232C26.9297 25.9045 26.74 25.9519 26.582 26.0573C26.424 26.1628 26.3074 26.3197 26.2522 26.5015C26.197 26.6833 26.2065 26.8786 26.2791 27.0541C26.3518 27.2296 26.483 27.3746 26.6505 27.4642C26.8181 27.5537 27.0115 27.5825 27.1978 27.5454C27.3841 27.5084 27.5518 27.4079 27.6724 27.261C27.7929 27.1142 27.8588 26.9301 27.8587 26.7401C27.8582 26.5227 27.7719 26.3144 27.6187 26.1601Z" fill="white"/>
<path d="M18.7849 12.3872C18.1681 12.3868 17.5651 12.5694 17.0522 12.9118C16.5393 13.2542 16.1394 13.7411 15.9033 14.3109C15.6672 14.8806 15.6054 15.5076 15.7258 16.1125C15.8462 16.7174 16.1433 17.2729 16.5795 17.7089C17.0158 18.1449 17.5715 18.4416 18.1765 18.5616C18.7814 18.6816 19.4084 18.6194 19.978 18.3829C20.5476 18.1464 21.0342 17.7463 21.3764 17.2332C21.7185 16.72 21.9006 16.1169 21.8999 15.5002C21.8977 14.6749 21.5688 13.884 20.985 13.3006C20.4013 12.7172 19.6102 12.3888 18.7849 12.3872ZM18.7849 16.9811C18.4929 16.9811 18.2075 16.8946 17.9647 16.7325C17.7219 16.5704 17.5326 16.34 17.4207 16.0703C17.3088 15.8006 17.2793 15.5039 17.336 15.2175C17.3926 14.9311 17.5329 14.6679 17.7391 14.4612C17.9452 14.2545 18.208 14.1135 18.4943 14.056C18.7805 13.9986 19.0774 14.0273 19.3473 14.1385C19.6173 14.2496 19.8482 14.4383 20.011 14.6807C20.1738 14.923 20.2611 15.2082 20.2619 15.5002C20.2623 15.6944 20.2243 15.8869 20.1503 16.0665C20.0763 16.246 19.9676 16.4093 19.8304 16.5468C19.6932 16.6844 19.5303 16.7935 19.3509 16.8681C19.1715 16.9426 18.9791 16.981 18.7849 16.9811Z" fill="white"/>
</svg>
