<svg id="outline" enable-background="new 0 0 32 32" viewBox="0 0 32 32" xmlns="http://www.w3.org/2000/svg"><g><path d="m24.3 28h-16.6c-1.4 0-2.7-1-2.9-2.4l-2.3-11.4c-.1-.5.3-1.1.8-1.2s1.1.3 1.2.8l2.2 11.4c.1.5.5.8 1 .8h16.7c.5 0 .9-.3 1-.8l2.2-11.4c.1-.5.6-.9 1.2-.8.5.1.9.6.8 1.2l-2.2 11.4c-.4 1.4-1.6 2.4-3.1 2.4z"/></g><g><path d="m31 15h-30c-.6 0-1-.4-1-1s.4-1 1-1h30c.6 0 1 .4 1 1s-.4 1-1 1z"/></g><g><path d="m7 15c-.1 0-.3 0-.4-.1-.5-.2-.7-.8-.5-1.3l4-9c.2-.5.8-.7 1.3-.5s.7.8.5 1.3l-4 9c-.2.4-.5.6-.9.6z"/></g><g><path d="m25 15c-.4 0-.7-.2-.9-.6l-4-9c-.2-.5 0-1.1.5-1.3s1.1 0 1.3.5l4 9c.2.5 0 1.1-.5 1.3-.1.1-.3.1-.4.1z"/></g><g><path d="m16 24c-.6 0-1-.4-1-1v-5c0-.6.4-1 1-1s1 .4 1 1v5c0 .6-.4 1-1 1z"/></g><g><path d="m11 24c-.5 0-.9-.3-1-.8l-1-5c-.1-.5.2-1.1.8-1.2.5-.1 1.1.2 1.2.8l1 5c.1.5-.2 1.1-.8 1.2-.1 0-.1 0-.2 0z"/></g><g><path d="m21 24c-.1 0-.1 0-.2 0-.5-.1-.9-.6-.8-1.2l1-5c.1-.5.6-.9 1.2-.8.5.1.9.6.8 1.2l-1 5c-.1.5-.5.8-1 .8z"/></g></svg>