<svg width="847" height="188" viewBox="0 0 847 188" fill="none" xmlns="http://www.w3.org/2000/svg">
<path d="M72.3613 44.0488V146.175L61.0342 153.159V101.429L37.124 117.043L37.126 117.044V166.696L25.7998 173.681V110.757L25.7939 110.754L61.0342 88.2715V37.7568L72.3613 44.0488ZM129 6.29297L106.352 21.3916V127.535L95.0244 134.52V28.9434L72.3652 44.0498L61.0381 37.7568L119.561 0L129 6.29297ZM152.913 21.7832V100.055L129 115.157V6.29199L152.913 21.7832ZM187.84 43.1826V80.5508L163.927 95.6533V27.6914L187.84 43.1826Z" fill="#FF650C"/>
<path d="M153.54 187.53H130.257V157.324L153.54 137.816V187.53ZM187.526 187.527H164.243V121.453L187.526 101.945V187.527ZM222.135 117.048V187.527H198.851V101.945L222.135 117.048Z" fill="#FF650C"/>
<path d="M25.8008 187.524H0L234.723 52.8574L25.8008 187.524ZM109.497 187.524H83.6963L187.528 101.941L109.497 187.524Z" fill="black"/>
<path d="M262.212 116.684C262.212 109.924 263.46 103.32 265.956 96.872C268.452 90.32 272.092 84.392 276.876 79.088C281.66 73.784 287.484 69.572 294.348 66.452C301.212 63.228 309.012 61.616 317.748 61.616C328.148 61.616 337.144 63.852 344.736 68.324C352.432 72.796 358.152 78.62 361.896 85.796L342.24 99.524C340.576 95.572 338.34 92.504 335.532 90.32C332.828 88.136 329.812 86.628 326.484 85.796C323.26 84.86 320.14 84.392 317.124 84.392C312.236 84.392 307.972 85.38 304.332 87.356C300.692 89.228 297.676 91.776 295.284 95C292.892 98.224 291.124 101.812 289.98 105.764C288.836 109.716 288.264 113.668 288.264 117.62C288.264 121.988 288.94 126.2 290.292 130.256C291.644 134.312 293.568 137.9 296.064 141.02C298.664 144.14 301.784 146.636 305.424 148.508C309.064 150.276 313.068 151.16 317.436 151.16C320.556 151.16 323.728 150.64 326.952 149.6C330.176 148.56 333.14 146.948 335.844 144.764C338.652 142.476 340.784 139.512 342.24 135.872L363.144 148.196C360.96 153.604 357.372 158.232 352.38 162.08C347.388 165.928 341.72 168.892 335.376 170.972C329.136 172.948 322.948 173.936 316.812 173.936C308.804 173.936 301.42 172.324 294.66 169.1C288.004 165.772 282.232 161.404 277.344 155.996C272.56 150.484 268.816 144.348 266.112 137.588C263.512 130.724 262.212 123.756 262.212 116.684ZM412.373 174.56C405.405 174.56 399.165 173.416 393.653 171.128C388.245 168.84 383.669 165.72 379.925 161.768C376.181 157.816 373.321 153.292 371.345 148.196C369.473 143.1 368.537 137.744 368.537 132.128C368.537 126.408 369.473 121 371.345 115.904C373.321 110.808 376.181 106.284 379.925 102.332C383.669 98.38 388.245 95.26 393.653 92.972C399.165 90.684 405.405 89.54 412.373 89.54C419.341 89.54 425.529 90.684 430.937 92.972C436.345 95.26 440.921 98.38 444.665 102.332C448.409 106.284 451.269 110.808 453.245 115.904C455.221 121 456.209 126.408 456.209 132.128C456.209 137.744 455.221 143.1 453.245 148.196C451.269 153.292 448.409 157.816 444.665 161.768C440.921 165.72 436.345 168.84 430.937 171.128C425.529 173.416 419.341 174.56 412.373 174.56ZM394.121 132.128C394.121 136.392 394.901 140.136 396.461 143.36C398.125 146.584 400.309 149.08 403.013 150.848C405.717 152.616 408.837 153.5 412.373 153.5C415.805 153.5 418.873 152.616 421.577 150.848C424.385 148.976 426.569 146.428 428.129 143.204C429.689 139.98 430.469 136.288 430.469 132.128C430.469 127.864 429.689 124.12 428.129 120.896C426.569 117.672 424.385 115.176 421.577 113.408C418.873 111.64 415.805 110.756 412.373 110.756C408.837 110.756 405.717 111.64 403.013 113.408C400.309 115.176 398.125 117.672 396.461 120.896C394.901 124.12 394.121 127.864 394.121 132.128ZM547.524 173H522.564V126.98C522.564 121.572 521.524 117.672 519.444 115.28C517.468 112.784 514.816 111.536 511.488 111.536C509.2 111.536 506.86 112.16 504.468 113.408C502.076 114.656 499.892 116.372 497.916 118.556C496.044 120.74 494.588 123.236 493.548 126.044V173H468.588V91.1H491.052V104.828C493.132 101.604 495.732 98.848 498.852 96.56C501.972 94.272 505.56 92.556 509.616 91.412C513.672 90.164 518.092 89.54 522.876 89.54C528.18 89.54 532.444 90.528 535.668 92.504C538.996 94.376 541.492 96.872 543.156 99.992C544.924 103.112 546.068 106.492 546.588 110.132C547.212 113.668 547.524 117.152 547.524 120.584V173ZM595.463 174.56C588.495 174.56 581.683 173.416 575.027 171.128C568.371 168.84 562.755 165.46 558.179 160.988L566.759 145.232C571.751 148.872 576.587 151.628 581.267 153.5C586.051 155.372 590.523 156.308 594.683 156.308C597.907 156.308 600.403 155.788 602.171 154.748C603.939 153.708 604.823 152.096 604.823 149.912C604.823 148.352 604.303 147.156 603.263 146.324C602.223 145.388 600.611 144.556 598.427 143.828C596.347 143.1 593.747 142.32 590.627 141.488C584.387 139.408 579.187 137.38 575.027 135.404C570.867 133.428 567.747 131.036 565.667 128.228C563.587 125.316 562.547 121.572 562.547 116.996C562.547 111.484 563.899 106.7 566.603 102.644C569.411 98.484 573.363 95.26 578.459 92.972C583.555 90.684 589.639 89.54 596.711 89.54C602.327 89.54 607.787 90.424 613.091 92.192C618.499 93.96 623.543 96.924 628.223 101.084L618.551 116.684C613.871 113.46 609.711 111.12 606.071 109.664C602.431 108.208 598.895 107.48 595.463 107.48C593.695 107.48 592.083 107.688 590.627 108.104C589.171 108.52 587.975 109.248 587.039 110.288C586.207 111.224 585.791 112.472 585.791 114.032C585.791 115.592 586.207 116.84 587.039 117.776C587.975 118.712 589.379 119.544 591.251 120.272C593.227 120.896 595.671 121.676 598.583 122.612C605.343 124.588 610.959 126.616 615.431 128.696C619.903 130.672 623.231 133.168 625.415 136.184C627.703 139.096 628.847 142.996 628.847 147.884C628.847 156.204 625.831 162.756 619.799 167.54C613.871 172.22 605.759 174.56 595.463 174.56ZM694.081 168.632C691.793 169.568 689.245 170.504 686.437 171.44C683.733 172.376 680.873 173.104 677.857 173.624C674.841 174.248 671.877 174.56 668.965 174.56C664.805 174.56 660.957 173.884 657.421 172.532C653.989 171.076 651.233 168.736 649.153 165.512C647.177 162.288 646.189 158.024 646.189 152.72V109.976H635.737V91.1H646.189V65.048H671.149V91.1H687.841V109.976L671.149 109.976V144.14C671.149 146.844 671.825 148.82 673.177 150.068C674.529 151.212 676.245 151.784 678.325 151.784C680.093 151.784 681.965 151.472 683.941 150.848C686.021 150.224 687.789 149.548 689.245 148.82L694.081 168.632ZM755.755 112.472C749.723 112.472 744.263 113.46 739.375 115.436C734.487 117.308 730.951 120.116 728.767 123.86V173H703.807V91.1H726.739V107.636C729.547 102.124 733.187 97.808 737.659 94.688C742.131 91.568 746.811 89.956 751.699 89.852C752.843 89.852 753.675 89.852 754.195 89.852C754.819 89.852 755.339 89.904 755.755 90.008V112.472ZM804.814 174.56C797.846 174.56 791.658 173.416 786.25 171.128C780.842 168.84 776.214 165.72 772.366 161.768C768.622 157.816 765.762 153.292 763.786 148.196C761.81 143.1 760.822 137.692 760.822 131.972C760.822 124.484 762.538 117.516 765.97 111.068C769.506 104.62 774.55 99.42 781.102 95.468C787.654 91.516 795.558 89.54 804.814 89.54C814.174 89.54 822.078 91.568 828.526 95.624C835.078 99.576 839.966 104.776 843.19 111.224L818.854 118.556C817.294 116.06 815.266 114.136 812.77 112.784C810.378 111.432 807.674 110.756 804.658 110.756C801.226 110.756 798.106 111.64 795.298 113.408C792.594 115.176 790.41 117.62 788.746 120.74C787.186 123.86 786.406 127.604 786.406 131.972C786.406 136.236 787.238 139.98 788.902 143.204C790.566 146.428 792.75 148.976 795.454 150.848C798.158 152.616 801.226 153.5 804.658 153.5C806.738 153.5 808.662 153.188 810.43 152.564C812.302 151.836 813.966 150.848 815.422 149.6C816.982 148.352 818.178 146.948 819.01 145.388L843.346 152.876C841.37 157.036 838.51 160.78 834.766 164.108C831.126 167.332 826.81 169.88 821.818 171.752C816.826 173.624 811.158 174.56 804.814 174.56Z" fill="black"/>
</svg>
