<svg width="176" height="39" viewBox="0 0 176 39" fill="none" xmlns="http://www.w3.org/2000/svg">
<path d="M55.864 19.448C55.864 18.0613 56.12 16.7067 56.632 15.384C57.144 14.04 57.8907 12.824 58.872 11.736C59.8533 10.648 61.048 9.784 62.456 9.144C63.864 8.48267 65.464 8.152 67.256 8.152C69.3893 8.152 71.2347 8.61067 72.792 9.528C74.3707 10.4453 75.544 11.64 76.312 13.112L72.28 15.928C71.9387 15.1173 71.48 14.488 70.904 14.04C70.3493 13.592 69.7307 13.2827 69.048 13.112C68.3867 12.92 67.7467 12.824 67.128 12.824C66.1253 12.824 65.2507 13.0267 64.504 13.432C63.7573 13.816 63.1387 14.3387 62.648 15C62.1573 15.6613 61.7947 16.3973 61.56 17.208C61.3253 18.0187 61.208 18.8293 61.208 19.64C61.208 20.536 61.3467 21.4 61.624 22.232C61.9013 23.064 62.296 23.8 62.808 24.44C63.3413 25.08 63.9813 25.592 64.728 25.976C65.4747 26.3387 66.296 26.52 67.192 26.52C67.832 26.52 68.4827 26.4133 69.144 26.2C69.8053 25.9867 70.4133 25.656 70.968 25.208C71.544 24.7387 71.9813 24.1307 72.28 23.384L76.568 25.912C76.12 27.0213 75.384 27.9707 74.36 28.76C73.336 29.5493 72.1733 30.1573 70.872 30.584C69.592 30.9893 68.3227 31.192 67.064 31.192C65.4213 31.192 63.9067 30.8613 62.52 30.2C61.1547 29.5173 59.9707 28.6213 58.968 27.512C57.9867 26.3813 57.2187 25.1227 56.664 23.736C56.1307 22.328 55.864 20.8987 55.864 19.448ZM86.6663 31.32C85.2369 31.32 83.9569 31.0853 82.8263 30.616C81.7169 30.1467 80.7783 29.5067 80.0103 28.696C79.2423 27.8853 78.6556 26.9573 78.2503 25.912C77.8663 24.8667 77.6743 23.768 77.6743 22.616C77.6743 21.4427 77.8663 20.3333 78.2503 19.288C78.6556 18.2427 79.2423 17.3147 80.0103 16.504C80.7783 15.6933 81.7169 15.0533 82.8263 14.584C83.9569 14.1147 85.2369 13.88 86.6663 13.88C88.0956 13.88 89.3649 14.1147 90.4743 14.584C91.5836 15.0533 92.5223 15.6933 93.2903 16.504C94.0583 17.3147 94.6449 18.2427 95.0503 19.288C95.4556 20.3333 95.6583 21.4427 95.6583 22.616C95.6583 23.768 95.4556 24.8667 95.0503 25.912C94.6449 26.9573 94.0583 27.8853 93.2903 28.696C92.5223 29.5067 91.5836 30.1467 90.4743 30.616C89.3649 31.0853 88.0956 31.32 86.6663 31.32ZM82.9223 22.616C82.9223 23.4907 83.0823 24.2587 83.4023 24.92C83.7436 25.5813 84.1916 26.0933 84.7463 26.456C85.3009 26.8187 85.9409 27 86.6663 27C87.3703 27 87.9996 26.8187 88.5543 26.456C89.1303 26.072 89.5783 25.5493 89.8983 24.888C90.2183 24.2267 90.3783 23.4693 90.3783 22.616C90.3783 21.7413 90.2183 20.9733 89.8983 20.312C89.5783 19.6507 89.1303 19.1387 88.5543 18.776C87.9996 18.4133 87.3703 18.232 86.6663 18.232C85.9409 18.232 85.3009 18.4133 84.7463 18.776C84.1916 19.1387 83.7436 19.6507 83.4023 20.312C83.0823 20.9733 82.9223 21.7413 82.9223 22.616ZM114.39 31H109.27V21.56C109.27 20.4507 109.056 19.6507 108.63 19.16C108.224 18.648 107.68 18.392 106.998 18.392C106.528 18.392 106.048 18.52 105.558 18.776C105.067 19.032 104.619 19.384 104.214 19.832C103.83 20.28 103.531 20.792 103.318 21.368V31H98.1975V14.2H102.806V17.016C103.232 16.3547 103.766 15.7893 104.406 15.32C105.046 14.8507 105.782 14.4987 106.614 14.264C107.446 14.008 108.352 13.88 109.334 13.88C110.422 13.88 111.296 14.0827 111.958 14.488C112.64 14.872 113.152 15.384 113.494 16.024C113.856 16.664 114.091 17.3573 114.198 18.104C114.326 18.8293 114.39 19.544 114.39 20.248V31ZM124.223 31.32C122.794 31.32 121.397 31.0853 120.031 30.616C118.666 30.1467 117.514 29.4533 116.575 28.536L118.335 25.304C119.359 26.0507 120.351 26.616 121.311 27C122.293 27.384 123.21 27.576 124.063 27.576C124.725 27.576 125.237 27.4693 125.599 27.256C125.962 27.0427 126.143 26.712 126.143 26.264C126.143 25.944 126.037 25.6987 125.823 25.528C125.61 25.336 125.279 25.1653 124.831 25.016C124.405 24.8667 123.871 24.7067 123.231 24.536C121.951 24.1093 120.885 23.6933 120.031 23.288C119.178 22.8827 118.538 22.392 118.111 21.816C117.685 21.2187 117.471 20.4507 117.471 19.512C117.471 18.3813 117.749 17.4 118.303 16.568C118.879 15.7147 119.69 15.0533 120.735 14.584C121.781 14.1147 123.029 13.88 124.479 13.88C125.631 13.88 126.751 14.0613 127.839 14.424C128.949 14.7867 129.983 15.3947 130.943 16.248L128.959 19.448C127.999 18.7867 127.146 18.3067 126.399 18.008C125.653 17.7093 124.927 17.56 124.223 17.56C123.861 17.56 123.53 17.6027 123.231 17.688C122.933 17.7733 122.687 17.9227 122.495 18.136C122.325 18.328 122.239 18.584 122.239 18.904C122.239 19.224 122.325 19.48 122.495 19.672C122.687 19.864 122.975 20.0347 123.359 20.184C123.765 20.312 124.266 20.472 124.863 20.664C126.25 21.0693 127.402 21.4853 128.319 21.912C129.237 22.3173 129.919 22.8293 130.367 23.448C130.837 24.0453 131.071 24.8453 131.071 25.848C131.071 27.5547 130.453 28.8987 129.215 29.88C127.999 30.84 126.335 31.32 124.223 31.32ZM144.453 30.104C143.983 30.296 143.461 30.488 142.885 30.68C142.33 30.872 141.743 31.0213 141.125 31.128C140.506 31.256 139.898 31.32 139.301 31.32C138.447 31.32 137.658 31.1813 136.933 30.904C136.229 30.6053 135.663 30.1253 135.237 29.464C134.831 28.8027 134.629 27.928 134.629 26.84V18.072H132.485V14.2H134.629V8.856H139.749V14.2H143.173V18.072H139.749V25.08C139.749 25.6347 139.887 26.04 140.165 26.296C140.442 26.5307 140.794 26.648 141.22 26.648C141.583 26.648 141.967 26.584 142.373 26.456C142.799 26.328 143.162 26.1893 143.461 26.04L144.453 30.104ZM157.104 18.584C155.866 18.584 154.746 18.7867 153.744 19.192C152.741 19.576 152.016 20.152 151.568 20.92V31H146.448V14.2H151.152V17.592C151.728 16.4613 152.474 15.576 153.392 14.936C154.309 14.296 155.269 13.9653 156.272 13.944C156.506 13.944 156.677 13.944 156.784 13.944C156.912 13.944 157.018 13.9547 157.104 13.976V18.584ZM167.167 31.32C165.738 31.32 164.468 31.0853 163.359 30.616C162.25 30.1467 161.3 29.5067 160.511 28.696C159.743 27.8853 159.156 26.9573 158.751 25.912C158.346 24.8667 158.143 23.7573 158.143 22.584C158.143 21.048 158.495 19.6187 159.199 18.296C159.924 16.9733 160.959 15.9067 162.303 15.096C163.647 14.2853 165.268 13.88 167.167 13.88C169.087 13.88 170.708 14.296 172.031 15.128C173.375 15.9387 174.378 17.0053 175.039 18.328L170.047 19.832C169.727 19.32 169.311 18.9253 168.799 18.648C168.308 18.3707 167.754 18.232 167.135 18.232C166.431 18.232 165.791 18.4133 165.215 18.776C164.66 19.1387 164.212 19.64 163.871 20.28C163.551 20.92 163.391 21.688 163.391 22.584C163.391 23.4587 163.562 24.2267 163.903 24.888C164.244 25.5493 164.692 26.072 165.247 26.456C165.802 26.8187 166.431 27 167.135 27C167.562 27 167.956 26.936 168.319 26.808C168.703 26.6587 169.044 26.456 169.343 26.2C169.663 25.944 169.908 25.656 170.079 25.336L175.071 26.872C174.666 27.7253 174.079 28.4933 173.311 29.176C172.564 29.8373 171.679 30.36 170.655 30.744C169.631 31.128 168.468 31.32 167.167 31.32Z" fill="black"/>
<path d="M26.8273 1.30859L22.1163 4.44922V26.5244L19.7599 27.9766V6.01953L15.049 9.16113V30.4004L12.6935 31.8525V21.0938L7.71985 24.3418V34.6689L5.36438 36.1211V23.0332L12.6935 18.3574V7.85254L24.8644 0L26.8273 1.30859ZM31.8009 4.53027V20.8086L26.8273 23.9492V1.30859L31.8009 4.53027ZM39.0636 8.98047V16.752L34.0909 19.8926V5.75879L39.0636 8.98047Z" fill="#FF650C"/>
<path d="M31.9312 39.0002H27.0894V32.718L31.9312 28.6613V39.0002ZM38.9985 39.0002H34.1567V25.258L38.9985 21.2014V39.0002ZM46.1968 24.342V39.0002H41.354V21.2014L46.1968 24.342Z" fill="#FF650C"/>
<path d="M5.36621 39.0001H0L48.8154 10.9933L5.36621 39.0001ZM22.7715 39.0001H17.4062L39 21.2013L22.7715 39.0001Z" fill="black"/>
</svg>
